<svg width="14" height="7" viewBox="0 0 14 7" fill="none" xmlns="http://www.w3.org/2000/svg">
<path d="M6.99985 0.251131C6.78566 0.250712 6.5781 0.325306 6.41318 0.461964L0.913179 5.0453C0.725981 5.20089 0.608258 5.42448 0.58591 5.66687C0.563562 5.90926 0.638419 6.1506 0.794012 6.3378C0.949606 6.525 1.17319 6.64272 1.41558 6.66507C1.65797 6.68741 1.89931 6.61256 2.08651 6.45696L6.99985 2.3503L11.9132 6.3103C12.0069 6.38644 12.1148 6.4433 12.2306 6.47762C12.3465 6.51193 12.4679 6.52301 12.588 6.51024C12.7081 6.49746 12.8245 6.46107 12.9305 6.40316C13.0365 6.34525 13.13 6.26696 13.2057 6.1728C13.2896 6.07854 13.3532 5.96797 13.3924 5.848C13.4317 5.72804 13.4457 5.60126 13.4336 5.47562C13.4216 5.34998 13.3837 5.22818 13.3224 5.11785C13.2611 5.00752 13.1777 4.91105 13.0773 4.83446L7.57735 0.406964C7.40769 0.291908 7.20435 0.237041 6.99985 0.251131Z" fill="#C10000"/>
</svg>
