<svg width="6" height="13" viewBox="0 0 6 13" fill="none" xmlns="http://www.w3.org/2000/svg">
<path d="M5.9252 6.42661C5.92558 6.62132 5.85777 6.81002 5.73353 6.95994L1.56686 11.9599C1.42542 12.1301 1.22216 12.2371 1.0018 12.2575C0.781445 12.2778 0.562044 12.2097 0.391864 12.0683C0.221683 11.9268 0.114663 11.7236 0.0943466 11.5032C0.0740301 11.2829 0.142081 11.0635 0.28353 10.8933L4.01686 6.42661L0.416864 1.95994C0.347642 1.8747 0.295949 1.77662 0.264756 1.67134C0.233563 1.56606 0.223485 1.45565 0.235101 1.34646C0.246717 1.23727 0.279798 1.13145 0.332442 1.03508C0.385087 0.938722 0.456258 0.853712 0.541864 0.784943C0.627548 0.708626 0.72807 0.650827 0.837132 0.615167C0.946193 0.579506 1.06144 0.566753 1.17566 0.577706C1.28988 0.588658 1.40061 0.62308 1.50091 0.678816C1.6012 0.734552 1.68891 0.810402 1.75853 0.90161L5.78353 5.90161C5.88813 6.05585 5.93801 6.24069 5.9252 6.42661Z" fill="#7A7A7A"/>
</svg>
