<svg width="14" height="8" viewBox="0 0 14 8" fill="none" xmlns="http://www.w3.org/2000/svg">
<path d="M6.99985 7.16659C6.78566 7.16701 6.5781 7.09242 6.41318 6.95576L0.913179 2.37243C0.725981 2.21683 0.608258 1.99325 0.58591 1.75086C0.563562 1.50847 0.638419 1.26713 0.794012 1.07993C0.949606 0.892728 1.17319 0.775006 1.41558 0.752658C1.65797 0.73031 1.89931 0.805166 2.08651 0.96076L6.99985 5.06743L11.9132 1.10743C12.0069 1.03128 12.1148 0.974421 12.2306 0.940109C12.3465 0.905796 12.4679 0.89471 12.588 0.907488C12.7081 0.920266 12.8245 0.956654 12.9305 1.01456C13.0365 1.07247 13.13 1.15076 13.2057 1.24493C13.2896 1.33918 13.3532 1.44975 13.3924 1.56972C13.4317 1.68969 13.4457 1.81646 13.4336 1.94211C13.4216 2.06775 13.3837 2.18955 13.3224 2.29987C13.2611 2.4102 13.1777 2.50668 13.0773 2.58326L7.57735 7.01076C7.40769 7.12582 7.20435 7.18068 6.99985 7.16659Z" fill="#3E3E3E"/>
</svg>
