<svg width="10" height="8" viewBox="0 0 10 8" fill="none" xmlns="http://www.w3.org/2000/svg">
<path d="M6.06676 7.4487C6.15207 7.53401 6.26418 7.57694 6.37602 7.57694C6.48785 7.57694 6.59996 7.53429 6.68527 7.4487L9.82461 4.30937C9.84375 4.29022 9.8607 4.26944 9.87547 4.24784C9.87629 4.24675 9.87738 4.24538 9.8782 4.24429C9.88477 4.23472 9.89051 4.2246 9.89625 4.21448C9.89762 4.21202 9.89898 4.20983 9.90035 4.20737C9.90555 4.1978 9.90992 4.18823 9.9143 4.17839C9.91566 4.17511 9.91758 4.17183 9.91895 4.16854C9.92277 4.15925 9.92606 4.14968 9.92934 4.14038C9.9307 4.13628 9.93234 4.13218 9.93371 4.12808C9.93672 4.11851 9.93891 4.10894 9.94109 4.09909C9.94219 4.09472 9.94328 4.09062 9.9441 4.08624C9.94629 4.07476 9.94793 4.06327 9.9493 4.05179C9.94957 4.04905 9.95012 4.04632 9.95039 4.04358C9.9534 4.01433 9.9534 3.98507 9.95039 3.95581C9.94984 3.95116 9.94902 3.94651 9.94848 3.94159C9.94711 3.93229 9.94602 3.92272 9.9441 3.9137C9.94273 3.90714 9.94082 3.90058 9.93945 3.89401C9.93754 3.88663 9.93617 3.87952 9.93398 3.87214C9.9318 3.8653 9.92934 3.85847 9.92688 3.8519C9.92441 3.84534 9.92223 3.83851 9.91949 3.83194C9.91676 3.82511 9.91348 3.81854 9.9102 3.81198C9.90719 3.80569 9.90445 3.7994 9.90117 3.79311C9.89762 3.78628 9.89324 3.77972 9.88941 3.77288C9.88613 3.76741 9.88313 3.76194 9.8793 3.75647C9.87383 3.74827 9.86781 3.74034 9.86152 3.73241C9.85879 3.72913 9.8566 3.72558 9.85387 3.72229C9.8443 3.71054 9.83418 3.69933 9.82324 3.68866L6.68555 0.551514C6.51465 0.380615 6.23766 0.380615 6.06676 0.551514C5.89586 0.722412 5.89586 0.999404 6.06676 1.1703L8.45906 3.56261H0.485352C0.243633 3.56261 0.0478516 3.75839 0.0478516 4.00011C0.0478516 4.24183 0.243633 4.43761 0.485352 4.43761H8.45934L6.06676 6.83019C5.89586 7.00081 5.89586 7.27808 6.06676 7.4487Z" fill="#7A7A7A"/>
</svg>
