<svg width="27" height="26" viewBox="0 0 27 26" fill="none" xmlns="http://www.w3.org/2000/svg">
<path d="M1.66797 1L2.02118 1.11773C3.78124 1.70443 4.66126 1.99776 5.16461 2.69613C5.66797 3.39449 5.66797 4.32212 5.66797 6.17739V9.66667C5.66797 13.4379 5.66797 15.3235 6.83954 16.4951C8.01112 17.6667 9.89673 17.6667 13.668 17.6667H16.3346M24.3346 17.6667H21.668" stroke="#3E3E3E" stroke-width="1.5" stroke-linecap="round"/>
<path d="M9 21C10.1046 21 11 21.8955 11 23C11 24.1045 10.1046 25 9 25C7.89543 25 7 24.1045 7 23C7 21.8955 7.89543 21 9 21Z" stroke="#3E3E3E" stroke-width="1.5"/>
<path d="M21 21C22.1045 21 23 21.8953 23 23C23 24.1045 22.1045 25 21 25C19.8955 25 19 24.1045 19 23C19 21.8953 19.8955 21 21 21Z" stroke="#3E3E3E" stroke-width="1.5"/>
<path d="M5.66797 5H9.66797M6.33464 14.3333H20.3637C21.6429 14.3333 22.2825 14.3333 22.7834 14.0031C23.2844 13.6727 23.5364 13.0848 24.0402 11.9091L24.6117 10.5757C25.691 8.05725 26.2308 6.79804 25.638 5.89901C25.045 5 23.6752 5 20.9352 5H15.0013" stroke="#3E3E3E" stroke-width="1.5" stroke-linecap="round"/>
</svg>
