<svg width="40" height="40" viewBox="0 0 40 40" fill="none" xmlns="http://www.w3.org/2000/svg">
<g clip-path="url(#clip0_442_883)">
<path d="M14.631 24.0875H12.442C12.1182 24.0875 11.8555 24.35 11.8555 24.6741V26.8631C11.8555 27.1872 12.1182 27.4496 12.442 27.4496H14.631C14.9551 27.4496 15.2176 27.1872 15.2176 26.8631V24.6741C15.2176 24.35 14.9551 24.0875 14.631 24.0875ZM14.0448 26.2766H13.0286V25.2603H14.0448V26.2766Z" fill="#EF0206"/>
<path d="M18.8391 24.0875H16.65C16.3259 24.0875 16.0635 24.35 16.0635 24.6741V26.8631C16.0635 27.1872 16.3259 27.4496 16.65 27.4496H18.8391C19.1628 27.4496 19.4256 27.1872 19.4256 26.8631V24.6741C19.4256 24.35 19.1628 24.0875 18.8391 24.0875ZM18.2525 26.2766H17.2363V25.2603H18.2525V26.2766Z" fill="#EF0206"/>
<path d="M23.0471 24.0875H20.8577C20.5339 24.0875 20.2715 24.35 20.2715 24.6741V26.8631C20.2715 27.1872 20.5339 27.4496 20.8577 27.4496H23.0471C23.3709 27.4496 23.6333 27.1872 23.6333 26.8631V24.6741C23.6333 24.35 23.3709 24.0875 23.0471 24.0875ZM22.4605 26.2766H21.4443V25.2603H22.4605V26.2766Z" fill="#EF0206"/>
<path d="M14.631 28.3319H12.442C12.1182 28.3319 11.8555 28.5944 11.8555 28.9185V31.1075C11.8555 31.4316 12.1182 31.694 12.442 31.694H14.631C14.9551 31.694 15.2176 31.4316 15.2176 31.1075V28.9185C15.2176 28.5944 14.9551 28.3319 14.631 28.3319ZM14.0448 30.5209H13.0286V29.505H14.0448V30.5209Z" fill="#EF0206"/>
<path d="M18.8391 28.3319H16.65C16.3259 28.3319 16.0635 28.5944 16.0635 28.9185V31.1075C16.0635 31.4316 16.3259 31.694 16.65 31.694H18.8391C19.1628 31.694 19.4256 31.4316 19.4256 31.1075V28.9185C19.4256 28.5944 19.1628 28.3319 18.8391 28.3319ZM18.2525 30.5209H17.2363V29.505H18.2525V30.5209Z" fill="#EF0206"/>
<path d="M23.0471 28.3319H20.8577C20.5339 28.3319 20.2715 28.5944 20.2715 28.9185V31.1075C20.2715 31.4316 20.5339 31.694 20.8577 31.694H23.0471C23.3709 31.694 23.6333 31.4316 23.6333 31.1075V28.9185C23.6333 28.5944 23.3709 28.3319 23.0471 28.3319ZM22.4605 30.5209H21.4443V29.505H22.4605V30.5209Z" fill="#EF0206"/>
<path d="M14.631 32.5763H12.442C12.1182 32.5763 11.8555 32.8387 11.8555 33.1628V35.3519C11.8555 35.676 12.1182 35.9384 12.442 35.9384H14.631C14.9551 35.9384 15.2176 35.676 15.2176 35.3519V33.1628C15.2176 32.8387 14.9551 32.5763 14.631 32.5763ZM14.0448 34.7656H13.0286V33.7494H14.0448V34.7656Z" fill="#EF0206"/>
<path d="M18.8391 32.5763H16.65C16.3259 32.5763 16.0635 32.8387 16.0635 33.1628V35.3519C16.0635 35.676 16.3259 35.9384 16.65 35.9384H18.8391C19.1628 35.9384 19.4256 35.676 19.4256 35.3519V33.1628C19.4256 32.8387 19.1628 32.5763 18.8391 32.5763ZM18.2525 34.7656H17.2363V33.7494H18.2525V34.7656Z" fill="#EF0206"/>
<path d="M23.0471 32.5763H20.8577C20.5339 32.5763 20.2715 32.8387 20.2715 33.1628V35.3519C20.2715 35.676 20.5339 35.9384 20.8577 35.9384H23.0471C23.3709 35.9384 23.6333 35.676 23.6333 35.3519V33.1628C23.6333 32.8387 23.3709 32.5763 23.0471 32.5763ZM22.4605 34.7656H21.4443V33.7494H22.4605V34.7656Z" fill="#EF0206"/>
<path d="M30.2363 14.144V31.1075C30.2363 31.4316 30.4988 31.6941 30.8226 31.6941C31.1467 31.6941 31.4091 31.4316 31.4091 31.1075V14.144C31.4091 13.8199 31.1467 13.5575 30.8226 13.5575C30.4988 13.5575 30.2363 13.8199 30.2363 14.144Z" fill="#EF0206"/>
<path d="M12.2447 12.2281H17.7443C18.0681 12.2281 18.3308 11.9657 18.3308 11.6416C18.3308 11.3175 18.0681 11.0551 17.7443 11.0551H12.2447C11.2315 11.0551 10.4072 11.8793 10.4072 12.8928V18.0015C10.4072 19.0147 11.2315 19.8389 12.2447 19.8389H23.2441C24.2573 19.8389 25.0816 19.0147 25.0816 18.0015V12.8928C25.0816 11.8793 24.2573 11.0551 23.2441 11.0551H19.9336C19.6098 11.0551 19.3474 11.3175 19.3474 11.6416C19.3474 11.9657 19.6098 12.2281 19.9336 12.2281H23.2441C23.6107 12.2281 23.9088 12.5263 23.9088 12.8928V18.0015C23.9088 18.368 23.6107 18.6661 23.2441 18.6661H12.2447C11.8782 18.6661 11.58 18.368 11.58 18.0015V12.8928C11.58 12.5263 11.8782 12.2281 12.2447 12.2281Z" fill="#EF0206"/>
<path d="M33.1488 21.0965C33.4729 21.0965 33.7354 20.8341 33.7354 20.5103V12.2803C33.7354 11.116 32.7881 10.1691 31.6242 10.1691H29.1611V7.95991C29.1611 6.50483 27.977 5.32075 26.5219 5.32075H25.0818V4.78669C25.0818 3.93128 24.386 3.23579 23.5309 3.23579H21.879V0.874337C21.879 0.560921 21.7133 0.280159 21.4468 0.141914C20.9168 -0.133049 20.5298 0.322884 20.4053 0.380867L19.9521 0.061348C19.6881 -0.124504 19.3472 -0.124504 19.0833 0.0616532L18.6307 0.380867L18.1781 0.061348C17.9141 -0.124504 17.5732 -0.124504 17.3093 0.0616532L16.857 0.380562L16.4047 0.0616532C16.1407 -0.124504 15.7999 -0.124504 15.5359 0.0616532L15.0833 0.380867L14.8221 0.196541C14.3103 -0.164177 13.6099 0.213631 13.6099 0.874642V3.23579H11.9583C11.1029 3.23579 10.4074 3.93128 10.4074 4.78669V5.32075H8.96729C7.51221 5.32075 6.32812 6.50483 6.32812 7.95991V31.503C6.32812 31.8268 6.59088 32.0892 6.91467 32.0892C7.23846 32.0892 7.50122 31.8268 7.50122 31.503V7.95991C7.50122 7.1515 8.15887 6.49384 8.96729 6.49384H10.4074V8.48786C10.4074 9.34297 11.1029 10.0385 11.9583 10.0385H23.5309C24.386 10.0385 25.0818 9.34297 25.0818 8.48786V6.49384H26.5219C27.3303 6.49384 27.988 7.1515 27.988 7.95991V37.2827C27.988 38.0911 27.3303 38.7491 26.5219 38.7491H25.9158V23.4751C25.9158 22.3468 24.9982 21.4288 23.8696 21.4288H11.2283C10.1001 21.4288 9.18213 22.3468 9.18213 23.4751V38.7491H8.96729C8.15887 38.7491 7.50092 38.0911 7.50092 37.2827V33.6923C7.50092 33.3685 7.23846 33.1058 6.91467 33.1058C6.59058 33.1058 6.32812 33.3685 6.32812 33.6923V37.2827C6.32812 38.7378 7.5119 39.9219 8.96729 39.9219H26.5219C27.977 39.9219 29.1608 38.7378 29.1608 37.2827V35.4257H31.6238C32.7881 35.4257 33.7354 34.4785 33.7354 33.3145V22.6996C33.7354 22.3755 33.4726 22.1131 33.1488 22.1131C32.8247 22.1131 32.5623 22.3755 32.5623 22.6996V33.3145C32.5623 33.8318 32.1414 34.2526 31.6238 34.2526H29.1608V11.3419H31.6238C32.1414 11.3419 32.5623 11.7627 32.5623 12.2803V20.5103C32.5623 20.8341 32.825 21.0965 33.1488 21.0965ZM14.783 1.5857C15.3317 1.8274 15.6836 1.34156 15.9702 1.1905L16.4221 1.50941C16.6861 1.69587 17.0276 1.69587 17.2913 1.50941L17.7438 1.1905L18.1964 1.50971C18.4604 1.69556 18.8013 1.69556 19.0653 1.50971L19.5178 1.19019C19.8059 1.34217 20.1572 1.82771 20.7062 1.58509V6.53291H14.783V1.5857ZM23.909 8.48786C23.909 8.69599 23.7393 8.86567 23.5309 8.86567H11.9583C11.7499 8.86567 11.5802 8.69599 11.5802 8.48786V4.78669C11.5802 4.57826 11.7499 4.40858 11.9583 4.40858H13.6099V6.53291H12.8769C12.5531 6.53291 12.2907 6.79536 12.2907 7.11946C12.2907 7.44325 12.5531 7.7057 12.8769 7.7057H22.6123C22.9361 7.7057 23.1986 7.44325 23.1986 7.11946C23.1986 6.79536 22.9361 6.53291 22.6123 6.53291H21.879V4.40858H23.5309C23.7393 4.40858 23.909 4.57826 23.909 4.78669V8.48786ZM10.3552 38.7491V23.4751C10.3552 22.9935 10.7468 22.6019 11.2283 22.6019H23.8699C24.3512 22.6019 24.743 22.9935 24.743 23.4751V38.7491H10.3552Z" fill="#EF0206"/>
</g>
<defs>
<clipPath id="clip0_442_883">
<rect width="40" height="40" fill="white"/>
</clipPath>
</defs>
</svg>
