<svg width="40" height="40" viewBox="0 0 40 40" fill="none" xmlns="http://www.w3.org/2000/svg">
<g clip-path="url(#clip0_442_938)">
<path d="M20.0001 0C11.7619 0 5.05957 6.64514 5.05957 14.813C5.05957 19.8791 7.07213 25.2645 11.0413 30.8195C14.1836 35.2173 17.6732 38.4462 19.0276 39.6304C19.5782 40.1117 20.4119 40.1241 20.9764 39.6609C21.6663 39.0946 23.0674 37.8941 24.6975 36.2158C25.2084 35.6897 24.3911 34.8493 23.8568 35.3992C22.2667 37.0362 20.9038 38.2043 20.2329 38.7549C20.1056 38.8593 19.923 38.8565 19.7989 38.748C18.4753 37.5909 15.0655 34.4358 11.9948 30.1383C8.17056 24.786 6.23145 19.6299 6.23145 14.8131C6.23153 7.29128 12.4081 1.17195 20.0001 1.17195C27.5921 1.17195 33.7688 7.29128 33.7688 14.813C33.7688 22.3692 29.4744 28.9769 25.8718 33.1895C25.3952 33.7468 26.2642 34.534 26.7625 33.9511C30.4933 29.5885 34.9408 22.7269 34.9408 14.813C34.9408 6.64514 28.2384 0 20.0001 0Z" fill="#EF0206"/>
<path d="M22.2128 34.0244C22.367 34.0244 22.5208 33.9641 22.6359 33.844C24.4793 31.9214 26.0887 29.9182 27.4196 27.89C27.8219 27.277 26.8602 26.606 26.4398 27.2471C25.1483 29.2153 23.5838 31.1619 21.7899 33.0329C21.4469 33.3907 21.691 34.0244 22.2128 34.0244Z" fill="#EF0206"/>
<path d="M12.0676 9.38275C11.7962 9.20649 11.4334 9.28353 11.257 9.55511C10.1772 11.2182 9.60645 13.1449 9.60645 15.1268C9.60645 20.8139 14.269 25.4407 20 25.4407C25.7311 25.4407 30.3937 20.8139 30.3937 15.1268C30.3937 9.43971 25.7311 4.81299 20 4.81299C17.6275 4.81299 15.3051 5.63093 13.4608 7.11619C12.8898 7.57622 13.5987 8.50988 14.1959 8.02907C15.8327 6.71093 17.894 5.98502 20 5.98502C25.0849 5.98502 29.2217 10.0861 29.2217 15.127C29.2217 20.1679 25.0849 24.2689 20 24.2689C14.9152 24.2689 10.7784 20.1679 10.7784 15.127C10.7784 13.3721 11.2838 11.666 12.2399 10.1934C12.4162 9.92185 12.3391 9.55894 12.0676 9.38275Z" fill="#EF0206"/>
<path d="M24.0828 20.1963C24.6266 20.1963 25.0691 19.7538 25.0691 19.21V11.0436C25.0691 10.4998 24.6266 10.0574 24.0828 10.0574H15.917C15.3731 10.0574 14.9307 10.4998 14.9307 11.0436V19.21C14.9307 19.7538 15.3731 20.1963 15.917 20.1963H24.0828ZM20.9065 11.2293V13.7901H19.0932V11.2293H20.9065ZM16.1026 11.2293H17.9213V14.376C17.9213 14.6997 18.1835 14.962 18.5072 14.962H21.4925C21.8162 14.962 22.0785 14.6997 22.0785 14.376V11.2293H23.8971V19.0244H16.1025L16.1026 11.2293Z" fill="#EF0206"/>
</g>
<defs>
<clipPath id="clip0_442_938">
<rect width="40" height="40" fill="white"/>
</clipPath>
</defs>
</svg>
