<svg width="40" height="40" viewBox="0 0 40 40" fill="none" xmlns="http://www.w3.org/2000/svg">
<g clip-path="url(#clip0_442_913)">
<path d="M38.4168 8.8259L20.2552 0.0582422C20.0942 -0.0194141 19.9067 -0.0194141 19.7457 0.0582422L1.5841 8.8259C1.3816 8.92363 1.25293 9.12871 1.25293 9.35355V30.6464C1.25293 30.8713 1.3816 31.0764 1.5841 31.1741L19.7457 39.9418C19.8261 39.9806 19.9133 40 20.0004 40C20.0875 40 20.1746 39.9806 20.2552 39.9418L38.4168 31.1741C38.6193 31.0764 38.7479 30.8713 38.7479 30.6464V9.35363C38.7479 9.12863 38.6192 8.92371 38.4168 8.8259ZM20.0004 1.2366L36.8143 9.35355L31.9403 11.7065C31.9094 11.683 31.8768 11.6613 31.8411 11.644L15.1414 3.5823L20.0004 1.2366ZM13.8182 4.2448L30.6075 12.35L27.1689 14.01L10.3864 5.90816L13.8182 4.2448ZM31.0004 13.4615V19.5979L27.7884 21.1486V15.0121L31.0004 13.4615ZM37.5761 30.2788L20.5864 38.4805V18.4889L24.6389 16.5325C24.9303 16.3918 25.0525 16.0416 24.9118 15.7501C24.7711 15.4588 24.4209 15.3364 24.1294 15.4772L20.0004 17.4706L18.3757 16.6862C18.0843 16.5454 17.734 16.6677 17.5933 16.9591C17.4526 17.2505 17.5748 17.6008 17.8662 17.7415L19.4145 18.4889V38.4805L2.4248 30.2786V10.2871L15.3623 16.5328C15.4444 16.5725 15.5312 16.5912 15.6166 16.5912C15.8344 16.5912 16.0436 16.4692 16.1446 16.2599C16.2854 15.9685 16.1632 15.6182 15.8718 15.4775L3.1866 9.35355L9.00731 6.54356L26.6084 15.0407C26.611 15.0443 26.6139 15.0475 26.6165 15.051V22.0821C26.6165 22.2838 26.7202 22.4712 26.891 22.5785C26.9858 22.638 27.094 22.6681 27.2025 22.6681C27.2894 22.6681 27.3765 22.6488 27.4572 22.6098L31.8411 20.4935C32.0436 20.3957 32.1722 20.1907 32.1722 19.9658V12.8959L37.5761 10.2871V30.2788Z" fill="#EF0206"/>
<path d="M7.25998 28.0061L4.59475 26.7195C4.30318 26.5786 3.95303 26.701 3.81232 26.9924C3.67162 27.2838 3.79381 27.6341 4.08521 27.7748L6.75045 29.0614C6.83256 29.1011 6.91935 29.1199 7.00475 29.1199C7.22256 29.1199 7.43178 28.9979 7.53279 28.7886C7.67357 28.4971 7.55139 28.1469 7.25998 28.0061Z" fill="#EF0206"/>
<path d="M9.71306 26.4096L4.5986 23.9405C4.30712 23.7998 3.95688 23.922 3.81618 24.2135C3.67556 24.5049 3.79774 24.8552 4.08915 24.9959L9.2036 27.4649C9.28571 27.5046 9.37251 27.5234 9.4579 27.5234C9.67571 27.5234 9.88493 27.4014 9.98595 27.1921C10.1266 26.9005 10.0045 26.5502 9.71306 26.4096Z" fill="#EF0206"/>
</g>
<defs>
<clipPath id="clip0_442_913">
<rect width="40" height="40" fill="white"/>
</clipPath>
</defs>
</svg>
