<svg width="40" height="30" viewBox="0 0 40 30" fill="none" xmlns="http://www.w3.org/2000/svg">
<path d="M39.0234 7.86498H31.0025L12.3939 2.19794C12.0844 2.10373 11.757 2.27818 11.6627 2.58779C11.5684 2.89732 11.7429 3.22474 12.0525 3.31904L26.9799 7.86498H22.9574L10.7952 4.16115C10.5048 4.07263 10.1898 4.15208 9.97383 4.36865C9.30914 5.03513 8.46953 5.48271 7.54562 5.66318C7.24555 5.72177 7.00406 5.93873 6.91555 6.22935L6.41742 7.86505H5.19242L7.04164 1.79302L9.43344 2.52146C9.74305 2.61576 10.0704 2.44122 10.1647 2.13162C10.259 1.82208 10.0845 1.49466 9.77484 1.40037L7.19609 0.615053C6.68125 0.458257 6.13438 0.749741 5.97742 1.26474L3.96742 7.86498H0.976562C0.438047 7.86498 0 8.30302 0 8.84154V18.2464C0 18.57 0.262344 18.8323 0.585938 18.8323C0.909531 18.8323 1.17188 18.57 1.17188 18.2464V9.03685H38.8281V28.2556H35.7164C35.3928 28.2556 35.1305 28.5179 35.1305 28.8415C35.1305 29.1651 35.3928 29.4275 35.7164 29.4275H39.0234C39.562 29.4275 40 28.9894 40 28.4509V8.84154C40 8.3031 39.562 7.86498 39.0234 7.86498ZM7.97625 6.76927C8.98078 6.53591 9.89867 6.04654 10.6523 5.34263L18.9349 7.86498H7.64258L7.97625 6.76927Z" fill="#EF0206"/>
<path d="M32.9804 28.2556H1.17188V20.979C1.17188 20.6554 0.909531 20.3931 0.585938 20.3931C0.262344 20.3931 0 20.6554 0 20.979V28.4509C0 28.9894 0.438047 29.4274 0.976562 29.4274H32.9804C33.304 29.4274 33.5663 29.1651 33.5663 28.8415C33.5663 28.5179 33.304 28.2556 32.9804 28.2556Z" fill="#EF0206"/>
<path d="M35.2728 26.0209C35.7145 25.1896 36.3873 24.5168 37.2186 24.0751C37.4887 23.9316 37.6564 23.6537 37.6564 23.3499V13.9424C37.6564 13.6387 37.4887 13.3608 37.2186 13.2172C36.3874 12.7755 35.7146 12.1027 35.2729 11.2715C35.1295 11.0014 34.8515 10.8337 34.5477 10.8337H22.4583C21.7 10.493 20.8923 10.3129 20.0733 10.3125C20.0721 10.3125 20.0713 10.3125 20.0702 10.3125C19.2356 10.3125 18.4253 10.4916 17.6678 10.8337H5.45258C5.14875 10.8337 4.87086 11.0014 4.72734 11.2715C4.28562 12.1027 3.61281 12.7755 2.78156 13.2173C2.51148 13.3608 2.34375 13.6387 2.34375 13.9424V23.35C2.34375 23.6538 2.51148 23.9316 2.78156 24.0752C3.61273 24.5169 4.28555 25.1898 4.72727 26.0209C4.87078 26.291 5.14867 26.4587 5.4525 26.4587H17.5806C18.355 26.8277 19.1972 27.0309 20.0775 27.0313H20.0805C20.9601 27.0312 21.8067 26.8295 22.5875 26.4587H34.5475C34.8514 26.4587 35.1293 26.2909 35.2728 26.0209ZM5.66016 25.2868C5.14422 24.3938 4.40867 23.6583 3.5157 23.1424V14.1499C4.40867 13.634 5.14422 12.8986 5.66008 12.0055H15.9187C14.185 13.6149 13.1973 16.0922 13.2032 18.6687C13.2041 21.3586 14.255 23.7559 15.883 25.2868H5.66016ZM34.34 25.2868H24.2891C25.4758 24.1705 26.3604 22.5821 26.7439 20.7088C26.8088 20.3918 26.6044 20.0822 26.2874 20.0173C25.9702 19.9523 25.6608 20.1568 25.5959 20.4737C24.9269 23.5059 22.9866 25.7466 20.0806 25.8593C16.6267 25.745 14.4384 22.482 14.3751 18.6683C14.3104 15.2148 16.614 11.507 20.0727 11.4843C22.7107 11.4857 25.0498 13.8401 25.6344 17.0824C25.6918 17.4009 25.9966 17.6124 26.315 17.5551C26.6334 17.4977 26.8451 17.193 26.7877 16.8745C26.4432 14.9826 25.5453 13.2294 24.2223 12.0055H34.3401C34.856 12.8985 35.5916 13.634 36.4845 14.1498V23.1423C35.5915 23.6583 34.8559 24.3937 34.34 25.2868Z" fill="#EF0206"/>
<path d="M30.8203 19.7791C32.005 19.7791 32.9688 18.8153 32.9688 17.6306C32.9688 16.4459 32.005 15.4822 30.8203 15.4822C29.6356 15.4822 28.6719 16.4459 28.6719 17.6306C28.6719 18.8153 29.6356 19.7791 30.8203 19.7791ZM30.8203 16.6541C31.3588 16.6541 31.7969 17.0921 31.7969 17.6306C31.7969 18.1691 31.3588 18.6072 30.8203 18.6072C30.2818 18.6072 29.8438 18.1691 29.8438 17.6306C29.8438 17.0921 30.2818 16.6541 30.8203 16.6541Z" fill="#EF0206"/>
<path d="M9.17969 19.7791C10.3644 19.7791 11.3281 18.8153 11.3281 17.6306C11.3281 16.4459 10.3644 15.4822 9.17969 15.4822C7.995 15.4822 7.03125 16.446 7.03125 17.6306C7.03125 18.8152 7.995 19.7791 9.17969 19.7791ZM9.17969 16.6541C9.7182 16.6541 10.1562 17.0921 10.1562 17.6306C10.1562 18.1691 9.7182 18.6072 9.17969 18.6072C8.64117 18.6072 8.20312 18.1691 8.20312 17.6306C8.20312 17.0921 8.64117 16.6541 9.17969 16.6541Z" fill="#EF0206"/>
<path d="M11.5234 20.9757H6.83594C6.51234 20.9757 6.25 21.2381 6.25 21.5616C6.25 21.8852 6.51234 22.1476 6.83594 22.1476H11.5234C11.847 22.1476 12.1094 21.8852 12.1094 21.5616C12.1094 21.2381 11.847 20.9757 11.5234 20.9757Z" fill="#EF0206"/>
<path d="M33.1641 20.9757H28.4766C28.153 20.9757 27.8906 21.2381 27.8906 21.5616C27.8906 21.8852 28.153 22.1476 28.4766 22.1476H33.1641C33.4877 22.1476 33.75 21.8852 33.75 21.5616C33.75 21.2381 33.4877 20.9757 33.1641 20.9757Z" fill="#EF0206"/>
<path d="M20.8899 18.1441C20.6814 18.0704 20.4911 18.0138 20.3231 17.9638C19.8328 17.8178 19.6073 17.7428 19.3987 17.4942C19.2871 17.3611 19.2464 17.1206 19.2949 16.8812C19.3545 16.5876 19.5305 16.3467 19.7778 16.2202C20.2766 15.9649 20.7911 16.3561 20.8892 16.4371C21.1386 16.6432 21.508 16.608 21.7141 16.3585C21.9203 16.1091 21.885 15.7398 21.6356 15.5336C21.3693 15.3136 21.0254 15.1221 20.6438 15.0264V14.6313C20.6438 14.3078 20.3814 14.0454 20.0578 14.0454C19.7342 14.0454 19.4719 14.3078 19.4719 14.6313V15.0778C19.3959 15.1055 19.3199 15.1381 19.2442 15.1767C18.6774 15.4667 18.2773 16.003 18.1465 16.6482C18.0262 17.2415 18.1587 17.8392 18.501 18.2471C18.9445 18.7759 19.4517 18.9269 19.9888 19.0868C20.1511 19.1351 20.3188 19.185 20.4996 19.2489C21.176 19.488 21.1612 20.0363 21.1234 20.2611C21.0476 20.7117 20.6685 21.1987 20.0149 21.2031C19.3903 21.2081 19.1947 21.1762 18.7124 20.8608C18.4415 20.6837 18.0785 20.7596 17.9013 21.0305C17.7242 21.3013 17.8002 21.6645 18.071 21.8416C18.6008 22.1881 18.984 22.3168 19.4719 22.358V22.8327C19.4719 23.1563 19.7342 23.4186 20.0578 23.4186C20.3814 23.4186 20.6438 23.1563 20.6438 22.8327V22.2885C21.5604 22.0313 22.1474 21.2381 22.279 20.4553C22.4517 19.4275 21.8935 18.4987 20.8899 18.1441Z" fill="#EF0206"/>
</svg>
