<svg width="40" height="40" viewBox="0 0 40 40" fill="none" xmlns="http://www.w3.org/2000/svg">
<path d="M2.12289 12.3417H8.90609C10.0766 12.3417 11.029 13.2945 11.029 14.4658V22.2731H13.5662C13.4252 21.7605 13.3729 21.1559 13.4072 20.4523V20.4523C13.4623 17.4789 14.0018 14.973 15.0109 13.0041C15.7945 11.4754 16.709 10.5589 17.4937 10.011C16.5727 9.06406 16.0402 7.71695 16.0402 6.16328C16.0402 3.36789 18.2701 1.09375 21.0109 1.09375C23.7518 1.09375 25.9817 3.36789 25.9817 6.16328C25.9817 6.48695 25.7194 6.74922 25.3958 6.74922H24.9977C25.0343 6.97031 25.0538 7.19562 25.0538 7.42445C25.0538 9.39445 23.6462 11.0409 21.7851 11.4099C21.9802 12.1343 22.0771 12.9884 22.0767 13.9587L23.5381 15.2157L27.094 15.5033L31.1958 14.1473C31.5717 14.0223 31.9978 13.8811 32.3675 14.1477C32.7318 14.4105 32.7318 14.8708 32.7318 15.022V18.0716C32.7318 18.3952 32.4695 18.6575 32.1459 18.6575H31.4483L32.5182 22.3547C32.6081 22.6655 32.4291 22.9905 32.1182 23.0804C31.8072 23.1708 31.4824 22.9912 31.3924 22.6805L30.2282 18.6575H28.5624C30.6343 24.9756 29.4521 29.193 27.635 33.461H28.6883L33.0752 28.5559L32.1476 25.3512C32.0576 25.0403 32.2366 24.7154 32.5475 24.6255C32.8584 24.5355 33.1833 24.7146 33.2733 25.0254L34.1605 28.0908C36.9048 28.045 39.3595 29.937 39.985 32.6591C40.0574 32.9745 39.8606 33.2888 39.5454 33.3613L38.7136 33.5527C38.9261 35.7599 37.4726 37.8423 35.2559 38.3526C34.9192 38.4302 34.5797 38.4684 34.2425 38.4684C33.4109 38.4684 32.594 38.2353 31.8714 37.7824C31.0234 37.251 30.3915 36.4698 30.0495 35.5465L29.3932 35.6975C29.1977 35.7427 29.0122 35.7656 28.8269 35.6659C28.6545 35.573 28.5398 35.4055 28.4969 35.2163C28.4556 35.0245 28.4242 34.8296 28.4024 34.6329H16.1479C15.756 37.0694 13.683 38.906 11.2071 38.906C8.73125 38.906 6.65813 37.0694 6.26625 34.6329H5.81906C5.81906 34.6329 5.73031 34.6339 5.71008 34.6339C5.5425 34.6339 5.30047 34.6153 5.10172 34.4131C5.00227 34.312 4.88555 34.1309 4.89453 33.8434C4.91101 33.2931 4.99359 32.7615 5.13453 32.2562C4.66781 29.4227 5.11687 27.697 5.78258 26.3465C5.36172 26.0706 5.08266 25.5953 5.08266 25.0553V23.4449H2.12305C0.952499 23.4449 0.000156403 22.4921 0.000156403 21.3209V14.4657C0 13.2945 0.952267 12.3417 2.12289 12.3417ZM32.4937 36.7896C33.2437 37.2597 34.1312 37.4091 34.9928 37.2108C36.5786 36.8458 37.6366 35.3916 37.5595 33.8193L31.2038 35.2821C31.4668 35.9012 31.9117 36.4249 32.4937 36.7896ZM29.5618 34.4563L38.6762 32.359C37.9729 30.4329 36.0801 29.1579 34.0111 29.2676L29.5462 34.2598C29.5501 34.3257 29.5552 34.3912 29.5618 34.4563ZM20.7114 24.2458C20.8815 24.6944 20.8815 25.2474 20.8815 26.013V28.2241H23.027V25.1906C23.027 21.7611 21.1553 21.1499 20.3153 21.0491H14.5709C14.594 21.8274 14.7696 22.3807 15.103 22.7319C15.4916 23.1411 16.1566 23.3405 17.1359 23.3414L19.2391 23.3436C19.9891 23.3437 20.4845 23.6471 20.7114 24.2458ZM20.8815 29.3959V30.7949C20.8868 30.7949 20.8923 30.7949 20.8979 30.7949H25.0598C25.013 30.361 24.8779 30.0252 24.6559 29.7929C24.3258 29.4474 23.8608 29.3959 23.613 29.3959H20.8815ZM14.5967 19.8773H19.9254C20.1394 19.2039 20.3302 18.4666 20.487 17.7087L18.867 16.6572C17.9826 16.0829 17.5225 15.2714 17.6047 14.4307C17.6775 13.6855 18.1841 13.0198 18.8954 12.7348C19.5449 12.4747 20.2441 12.5564 20.862 12.9515C20.811 12.391 20.7162 11.8907 20.579 11.466C20.3292 11.4402 20.0812 11.3914 19.8376 11.3198C19.3417 11.2046 18.8835 11.0211 18.4698 10.7777C17.3413 11.452 14.8593 13.6388 14.5967 19.8773ZM24.767 5.57742C24.4906 3.70523 22.9116 2.2657 21.0109 2.2657C18.9162 2.2657 17.212 4.01422 17.212 6.16336C17.212 7.91133 18.0502 9.32016 19.4018 9.94016V6.85711C19.4018 6.32328 19.6061 5.66844 20.5791 5.57984C20.5967 5.5782 20.6145 5.57742 20.6322 5.57742H24.767ZM23.8819 7.42453C23.8819 7.19328 23.8555 6.96742 23.8037 6.7493H20.6609C20.6248 6.7532 20.5984 6.75742 20.5795 6.76125C20.5764 6.78297 20.5737 6.81422 20.5737 6.85711V10.2849C20.7134 10.3055 20.8538 10.3159 20.9942 10.3159C20.9955 10.3159 20.9969 10.3159 20.9981 10.3159C22.5884 10.3145 23.8819 9.01797 23.8819 7.42453ZM24.6415 16.4808L23.2537 16.3685C23.13 16.3586 23.0127 16.3096 22.9186 16.2288L20.4139 14.0745L20.4135 14.0741C20.1713 13.8654 19.9128 13.7584 19.6611 13.7584C19.5491 13.7584 19.4384 13.7796 19.3311 13.8226C19.0215 13.9466 18.8016 14.23 18.7709 14.5445C18.7322 14.9404 18.993 15.3416 19.5049 15.6741L22.2959 17.4857H24.6413V16.4808H24.6415ZM27.1177 16.6811L25.8134 16.5756V17.4859H27.3291C27.5255 17.4859 27.5734 17.3226 27.5791 17.1856C27.5823 17.108 27.5749 16.7186 27.1177 16.6811ZM28.5045 16.2766C28.681 16.5659 28.7634 16.9045 28.7499 17.2336C28.7464 17.3188 28.7355 17.4009 28.7204 17.4809C28.7204 17.4826 28.7213 17.4842 28.721 17.4858H31.5598V15.2613L28.5023 16.272C28.5032 16.2736 28.5037 16.2751 28.5045 16.2766ZM27.3258 18.6577H22.1226C22.0094 18.6577 21.8985 18.6248 21.8036 18.5632L21.5384 18.391C21.4108 18.9549 21.2655 19.5037 21.1072 20.022C22.3022 20.3747 24.199 21.5146 24.199 25.1905V28.2828C24.6101 28.3658 25.0964 28.5575 25.5032 28.9832C25.932 29.432 26.177 30.04 26.2357 30.7948H27.4177C28.6088 27.3622 29.0618 23.7094 27.3258 18.6577ZM26.36 33.4591C26.5766 32.961 26.7853 32.4648 26.9819 31.9668H20.898C20.1095 31.9668 19.7097 31.6078 19.7097 30.8999V28.8099V26.5988H15.0848C14.7611 26.5988 14.4988 26.3366 14.4988 26.0129C14.4988 25.6892 14.7611 25.427 15.0848 25.427H19.7055C19.698 25.0941 19.6766 24.822 19.6156 24.6612C19.586 24.583 19.5604 24.5155 19.2386 24.5155L17.1348 24.5133C15.8173 24.512 14.8747 24.1933 14.2532 23.5387C14.2245 23.5084 14.1973 23.4766 14.17 23.445H10.443H6.2543V25.0554C6.2543 25.2568 6.42406 25.427 6.625 25.427H12.4582C12.7819 25.427 13.0441 25.6892 13.0441 26.0129C13.0441 26.3366 12.7819 26.5988 12.4582 26.5988H6.9693C6.50617 27.4584 6.08961 28.528 6.11438 30.218C7.27359 28.6077 9.15024 27.5723 11.2801 27.5723C12.9905 27.5723 14.5955 28.2433 15.7995 29.4616C16.8679 30.5427 17.5095 31.9457 17.6416 33.461L26.36 33.4591ZM11.207 37.7343C13.0388 37.7343 14.5836 36.4145 14.9573 34.633H7.45672C7.83055 36.4144 9.37539 37.7343 11.207 37.7343ZM6.79109 33.4612H15.6228H16.4646C16.177 30.8117 13.9616 28.7442 11.2801 28.7442C8.92578 28.7442 6.94867 30.2966 6.29391 32.4698C6.2918 32.4767 6.28969 32.4836 6.28734 32.4904C6.19477 32.8022 6.12938 33.1267 6.09398 33.4612H6.79109ZM1.17188 21.3209C1.17188 21.846 1.59851 22.2731 2.12289 22.2731H9.85711V19.2473H1.17188V21.3209ZM1.17188 18.0754H9.85711V16.8292H1.17188V18.0754ZM1.17188 15.6573H9.85711V14.4658C9.85711 13.9407 9.43047 13.5136 8.90609 13.5136H2.12289C1.59851 13.5136 1.17188 13.9408 1.17188 14.4658V15.6573Z" fill="#EF0206"/>
</svg>
