<svg width="40" height="40" viewBox="0 0 40 40" fill="none" xmlns="http://www.w3.org/2000/svg">
<g clip-path="url(#clip0_442_852)">
<path d="M39.9788 24.8546L37.9477 7.41393C37.7503 5.71917 36.2109 4.50105 34.5163 4.69832L4.61795 8.18018C3.82295 8.27276 3.10397 8.66299 2.59351 9.27908C2.38702 9.52822 2.42163 9.89759 2.67077 10.1041C2.91999 10.3106 3.28928 10.276 3.49585 10.0267C3.81295 9.64408 4.25959 9.40166 4.7535 9.34416L34.6519 5.86238C35.1618 5.80292 35.6645 5.94566 36.0673 6.2644C36.4699 6.58308 36.7244 7.03948 36.7838 7.54956L38.8148 24.9903C38.9375 26.0432 38.1806 26.9996 37.1277 27.1222L36.2892 27.2199V26.5845C36.2892 26.2609 36.0268 25.9985 35.7032 25.9985C35.3796 25.9985 35.1173 26.2609 35.1173 26.5845V32.2283C35.1173 33.2883 34.2549 34.1507 33.1949 34.1507H3.09428C2.03429 34.1507 1.17187 33.2883 1.17187 32.2283V14.6697C1.17187 13.6097 2.03429 12.7473 3.09428 12.7473H33.1948C34.2548 12.7473 35.1172 13.6097 35.1172 14.6697V24.0761C35.1172 24.3996 35.3796 24.662 35.7031 24.662C36.0267 24.662 36.2891 24.3996 36.2891 24.0761V14.6697C36.2891 12.9635 34.901 11.5754 33.1948 11.5754H3.09428C1.38812 11.5753 0 12.9634 0 14.6697V32.2283C0 33.9345 1.38812 35.3226 3.09428 35.3226H33.1948C34.901 35.3226 36.2891 33.9345 36.2891 32.2283V28.3996L37.2632 28.2862C38.0841 28.1906 38.8188 27.781 39.3317 27.1328C39.8447 26.4847 40.0745 25.6757 39.9788 24.8546Z" fill="#EF0206"/>
<path d="M4.34863 27.7975H9.36535C9.68895 27.7975 9.95129 27.5351 9.95129 27.2115C9.95129 26.888 9.68895 26.6256 9.36535 26.6256H4.34863C4.02504 26.6256 3.7627 26.888 3.7627 27.2115C3.7627 27.5351 4.02504 27.7975 4.34863 27.7975Z" fill="#EF0206"/>
<path d="M4.34863 30.9329H16.8905C17.2141 30.9329 17.4764 30.6705 17.4764 30.3469C17.4764 30.0233 17.2141 29.761 16.8905 29.761H4.34863C4.02504 29.761 3.7627 30.0233 3.7627 30.3469C3.7627 30.6705 4.02504 30.9329 4.34863 30.9329Z" fill="#EF0206"/>
<path d="M16.8907 26.6256H11.874C11.5504 26.6256 11.2881 26.888 11.2881 27.2115C11.2881 27.5351 11.5504 27.7975 11.874 27.7975H16.8907C17.2143 27.7975 17.4767 27.5351 17.4767 27.2115C17.4767 26.888 17.2143 26.6256 16.8907 26.6256Z" fill="#EF0206"/>
<path d="M24.4152 26.6256H19.3984C19.0748 26.6256 18.8125 26.888 18.8125 27.2115C18.8125 27.5351 19.0748 27.7975 19.3984 27.7975H24.4152C24.7388 27.7975 25.0011 27.5351 25.0011 27.2115C25.0011 26.888 24.7388 26.6256 24.4152 26.6256Z" fill="#EF0206"/>
<path d="M26.3379 27.2115C26.3379 27.5351 26.6002 27.7975 26.9238 27.7975H31.9406C32.2642 27.7975 32.5266 27.5351 32.5266 27.2115C32.5266 26.888 32.2642 26.6256 31.9406 26.6256H26.9238C26.6002 26.6256 26.3379 26.888 26.3379 27.2115Z" fill="#EF0206"/>
<path d="M5.60277 24.662H9.36535C10.38 24.662 11.2055 23.8365 11.2055 22.8218V20.3135C11.2055 19.2989 10.38 18.4734 9.36535 18.4734H5.60277C4.58816 18.4734 3.7627 19.2989 3.7627 20.3135V22.8218C3.7627 23.8365 4.58816 24.662 5.60277 24.662ZM4.93457 20.3135C4.93457 19.945 5.23434 19.6453 5.60277 19.6453H9.36535C9.73379 19.6453 10.0336 19.945 10.0336 20.3135V22.8218C10.0336 23.1903 9.73387 23.4901 9.36535 23.4901H5.60277C5.23434 23.4901 4.93457 23.1903 4.93457 22.8218V20.3135Z" fill="#EF0206"/>
<path d="M6.85645 22.1537H8.11066C8.43426 22.1537 8.6966 21.8913 8.6966 21.5677C8.6966 21.2442 8.43426 20.9818 8.11066 20.9818H6.85645C6.53285 20.9818 6.27051 21.2442 6.27051 21.5677C6.27051 21.8913 6.53285 22.1537 6.85645 22.1537Z" fill="#EF0206"/>
<path d="M29.7587 22.7194C29.8425 22.7611 29.9316 22.7809 30.0192 22.7809C30.2346 22.7809 30.4419 22.6617 30.5443 22.4558C31.0275 21.4846 31.2724 20.4473 31.2724 19.3729C31.2724 18.2984 31.0274 17.2611 30.5443 16.29C30.4001 16.0002 30.0485 15.8823 29.7587 16.0264C29.469 16.1705 29.351 16.5223 29.4951 16.812C29.8969 17.6195 30.1006 18.4812 30.1006 19.373C30.1006 20.2648 29.8969 21.1263 29.4951 21.9339C29.3509 22.2235 29.4689 22.5752 29.7587 22.7194Z" fill="#EF0206"/>
<path d="M27.509 21.5867C27.593 21.6286 27.6823 21.6484 27.7702 21.6484C27.9852 21.6484 28.1923 21.5296 28.2949 21.3242C28.6061 20.7007 28.7639 20.0442 28.7639 19.3729C28.7639 18.7016 28.6061 18.0451 28.2949 17.4217C28.1503 17.1321 27.7985 17.0145 27.5089 17.1592C27.2194 17.3037 27.1019 17.6556 27.2464 17.9452C27.4758 18.4045 27.592 18.8849 27.592 19.3729C27.592 19.8609 27.4758 20.3413 27.2464 20.8006C27.1019 21.0902 27.2195 21.4421 27.509 21.5867Z" fill="#EF0206"/>
<path d="M25.2644 20.4565C25.3497 20.4999 25.4405 20.5205 25.53 20.5205C25.7433 20.5205 25.949 20.4035 26.0525 20.2005C26.187 19.9364 26.2552 19.658 26.2552 19.3729C26.2552 19.0878 26.187 18.8094 26.0525 18.5453C25.9055 18.257 25.5526 18.1424 25.2644 18.2893C24.9761 18.4363 24.8614 18.7891 25.0083 19.0774C25.0581 19.1751 25.0833 19.2745 25.0833 19.373C25.0833 19.4714 25.0581 19.5708 25.0083 19.6685C24.8615 19.9567 24.9761 20.3096 25.2644 20.4565Z" fill="#EF0206"/>
</g>
<defs>
<clipPath id="clip0_442_852">
<rect width="40" height="40" fill="white"/>
</clipPath>
</defs>
</svg>
