<svg width="281" height="86" viewBox="0 0 281 86" fill="none" xmlns="http://www.w3.org/2000/svg">
<g clip-path="url(#clip0_560_975)">
<path fill-rule="evenodd" clip-rule="evenodd" d="M15.3457 43.5356L35.1626 5.79834H46.1152L57.6514 27.947C55.6866 28.9295 53.661 29.8051 51.6323 30.6153C50.9328 30.895 50.2304 31.1672 49.5252 31.4336L41.0074 14.5851H40.4715L28.1524 38.4552C27.8425 38.5557 27.533 38.6566 27.2232 38.7578C25.0725 39.462 22.9225 40.1934 20.8121 41.0128C19.0895 41.6819 17.3416 42.4215 15.7251 43.3217C15.5988 43.3915 15.4721 43.4634 15.3457 43.5356ZM60.0241 32.4611L70.5821 52.7724H60.313L54.3472 40.945H54.3334L51.8935 36.066C54.2655 35.0763 56.628 34.0624 58.9787 33.0154L59.0071 33.0028L59.0348 32.9878C59.3639 32.811 59.6936 32.6362 60.0241 32.4611ZM268.389 15.678C272.8 15.678 275.994 16.5151 277.97 18.1957C279.946 19.877 280.935 22.5453 280.935 26.1931H272.147C272.147 24.9298 271.847 24.0222 271.248 23.4802C270.648 22.9368 269.448 22.6704 267.648 22.6704H252.879C251.538 22.6704 250.498 22.9729 249.757 23.5865C249.015 24.1912 248.645 25.1792 248.645 26.5399C248.645 28.1142 249.033 29.1728 249.809 29.7151C250.409 30.1424 251.433 30.3556 252.879 30.3556H268.919C273.435 30.3556 276.453 30.9256 277.97 32.0635C279.946 33.5588 280.935 36.7075 280.935 41.5105C280.935 45.4605 279.999 48.325 278.129 50.1038C276.259 51.8829 273.171 52.7724 268.866 52.7724H251.133C246.58 52.7724 243.413 51.9455 241.631 50.2901C239.849 48.6357 238.958 45.9586 238.958 42.258H247.745C247.745 43.2184 248.159 44.046 248.989 44.7396C249.818 45.4339 250.85 45.7811 252.085 45.7811H266.801C268.706 45.7811 270.074 45.4431 270.903 44.7669C271.733 44.0906 272.147 43.0055 272.147 41.5105C272.147 40.0163 271.847 38.9847 271.248 38.4154C270.471 37.7033 268.901 37.348 266.536 37.348H253.515C248.257 37.348 244.728 36.6717 242.928 35.3107C240.881 33.7813 239.858 30.7301 239.858 26.1665C239.858 22.4213 240.908 19.7346 243.008 18.116C245.107 16.4879 248.592 15.678 253.462 15.678H268.389ZM232.606 15.678V52.7724H223.819V15.678H232.606ZM216.832 52.7724H208.045V47.0079C208.045 45.1941 207.497 43.8678 206.403 43.0321C205.31 42.1957 203.527 41.7776 201.057 41.7776H184.012V52.7724H175.225V15.678H203.121C207.321 15.678 210.445 16.5325 212.491 18.2499C214.961 20.3131 216.196 23.8089 216.196 28.7282C216.196 31.299 215.649 33.4249 214.556 35.0967C213.744 36.3072 212.509 37.4188 210.85 38.4154C212.861 39.0913 214.308 39.8561 215.191 40.7106C216.285 41.7776 216.832 43.2368 216.832 45.0871V52.7724ZM184.012 23.0437V34.4123H202.381C204.251 34.4123 205.556 33.9857 206.298 33.1224C207.039 32.2686 207.409 30.8003 207.409 28.7282C207.409 26.6905 207.074 25.2586 206.403 24.4406C205.627 23.5068 204.286 23.0437 202.381 23.0437H184.012ZM139.072 36.44H153.734L146.747 22.6165H146.324L139.072 36.44ZM130.761 52.7724H120.547L120.605 52.6651L120.544 52.6733L139.972 15.678H152.993L172.314 52.7724H161.992L157.281 43.4324H135.525L130.761 52.7724ZM85.185 37.2941V45.7811H102.812C105.106 45.7811 106.57 45.4956 107.206 44.9263C107.841 44.3577 108.158 43.201 108.158 41.4574C108.158 39.8923 107.894 38.8423 107.364 38.3084C106.694 37.6325 105.282 37.2941 103.13 37.2941H85.185ZM76.3979 52.7724V15.678H102.865C107.1 15.678 110.267 16.3986 112.366 17.8492C114.466 19.2904 115.516 21.6738 115.516 24.9918C115.516 27.7759 115.128 29.7778 114.352 30.9873C113.716 31.9569 112.587 32.7044 110.964 33.2379C113.046 33.9503 114.493 34.8037 115.305 35.8002C116.399 37.1524 116.945 39.1802 116.945 41.8839C116.945 45.7985 115.957 48.5918 113.981 50.2642C112.005 51.9364 108.9 52.7724 104.665 52.7724H76.3979ZM85.185 22.6704V30.7301H103.13C104.294 30.7301 105.185 30.3383 105.803 29.5462C106.42 28.7633 106.729 27.7054 106.729 26.3795C106.729 23.9067 105.512 22.6704 103.077 22.6704H85.185Z" fill="white"/>
<path fill-rule="evenodd" clip-rule="evenodd" d="M122.171 57.5852V58.4025C119.979 58.5541 117.299 59.7305 117.299 62.6785C117.299 65.5441 119.676 66.6925 122.137 66.8448V67.6891H124.548V66.8448C127.059 66.6513 129.42 65.4885 129.42 62.61C129.42 59.7029 126.992 58.5409 124.581 58.4025V57.5852H122.171ZM122.154 65.3775C121.143 65.2667 119.878 64.4644 119.878 62.637C119.878 60.6719 121.159 59.9523 122.154 59.8413V65.3775ZM124.564 59.8413C125.627 59.9523 126.84 60.6446 126.84 62.61C126.84 64.5888 125.559 65.2807 124.564 65.3775V59.8413ZM137.006 64.907L137.882 67.3017H140.647L137.123 57.9726H133.752L130.279 67.3017H132.943L133.752 64.907H137.006ZM134.123 63.3292L134.797 61.3498C134.983 60.8109 135.151 60.1046 135.32 59.5506H135.354C135.522 60.1046 135.724 60.7966 135.927 61.3498L136.635 63.3292H134.123ZM142.501 57.9726V67.2605C143.074 67.3293 144.001 67.3985 145.266 67.3985C147.002 67.3985 148.789 67.1225 149.885 66.3191C150.542 65.8347 150.964 65.1281 150.964 64.2151C150.964 63.1913 150.441 62.4574 149.649 61.9866C148.789 61.4606 147.592 61.2258 146.446 61.2258C145.991 61.2258 145.451 61.2538 145.064 61.2943V59.689H150.053V57.9726H142.501ZM145.047 62.8451C145.367 62.8036 145.67 62.7896 145.957 62.7896C146.564 62.7896 147.205 62.9146 147.66 63.2049C148.03 63.44 148.266 63.7865 148.266 64.2566C148.266 64.7135 148.047 65.0869 147.71 65.3363C147.289 65.6551 146.665 65.8204 146.041 65.8204C145.687 65.8204 145.333 65.8067 145.047 65.7655V62.8451ZM153.004 67.3017H155.549V63.9663C155.785 63.9933 156.088 64.0076 156.426 64.0076C157.943 64.0076 159.241 63.703 160.117 63.0243C160.792 62.499 161.163 61.7236 161.163 60.8109C161.163 59.8968 160.674 59.1214 159.949 58.6516C159.19 58.1531 158.061 57.9038 156.476 57.9038C154.909 57.9038 153.796 57.9865 153.004 58.0979V67.3017ZM155.549 59.5783C155.734 59.537 156.089 59.4951 156.611 59.4951C157.892 59.4951 158.617 60.0079 158.617 60.8657C158.617 61.821 157.774 62.3883 156.409 62.3883C156.038 62.3883 155.769 62.3746 155.549 62.3327V59.5783ZM163.135 57.9726V67.3017H166.068L168.378 63.9384C169.052 62.9559 169.777 61.7236 170.299 60.616H170.35C170.198 61.835 170.165 63.1081 170.165 64.5476V67.3017H172.525V57.9726H169.895L167.451 61.6411C166.776 62.637 166.018 63.8692 165.428 64.9629H165.36C165.462 63.717 165.495 62.2356 165.495 60.741V57.9726H163.135ZM175.104 57.9726V67.3017H177.65V63.3987H178.138C179.52 63.3987 180.043 64.2014 180.431 65.2535C180.701 65.9454 180.92 66.665 181.307 67.3017H184.072C183.533 66.3743 183.162 65.3642 182.758 64.3677C182.285 63.2468 181.628 62.4159 180.161 62.1116L184.123 57.9726H181.004L177.868 61.8483H177.65V57.9726H175.104ZM191.743 64.907L192.619 67.3017H195.384L191.861 57.9726H188.489L185.017 67.3017H187.68L188.489 64.907H191.743ZM188.86 63.3292L189.534 61.3498C189.72 60.8109 189.888 60.1046 190.057 59.5506H190.09C190.259 60.1046 190.462 60.7966 190.664 61.3498L191.372 63.3292H188.86ZM200.643 67.3017H203.189V63.9663C203.425 63.9933 203.728 64.0076 204.066 64.0076C205.583 64.0076 206.881 63.703 207.757 63.0243C208.432 62.499 208.803 61.7236 208.803 60.8109C208.803 59.8968 208.314 59.1214 207.589 58.6516C206.83 58.1531 205.7 57.9038 204.116 57.9038C202.548 57.9038 201.436 57.9865 200.643 58.0979V67.3017ZM203.189 59.5783C203.374 59.537 203.728 59.4951 204.251 59.4951C205.532 59.4951 206.257 60.0079 206.257 60.8657C206.257 61.821 205.414 62.3883 204.048 62.3883C203.678 62.3883 203.408 62.3746 203.189 62.3327V59.5783ZM217.535 61.6411H213.354V59.7029H217.788V57.9726H210.775V67.3017H218.024V65.5717H213.354V63.3569H217.535V61.6411ZM220.114 57.9726V67.3017H222.66V63.3987H223.149C224.531 63.3987 225.053 64.2014 225.441 65.2535C225.711 65.9454 225.93 66.665 226.318 67.3017H229.083C228.543 66.3743 228.172 65.3642 227.768 64.3677C227.295 63.2468 226.638 62.4159 225.172 62.1116L229.133 57.9726H226.014L222.879 61.8483H222.66V57.9726H220.114ZM232.049 57.9726V62.0561C232.049 63.4679 231.881 64.6583 231.19 65.2392C230.903 65.4885 230.448 65.6824 229.891 65.7379L230.212 67.44C231.123 67.44 231.898 67.2462 232.471 66.9838C234.19 66.1526 234.561 64.3121 234.561 61.9181V59.7029H237.14V67.3017H239.703V57.9726H232.049ZM248.183 64.907L249.059 67.3017H251.824L248.3 57.9726H244.929L241.456 67.3017H244.119L244.929 64.907H248.183ZM245.3 63.3292L245.974 61.3498C246.159 60.8109 246.328 60.1046 246.496 59.5506H246.53C246.699 60.1046 246.901 60.7966 247.103 61.3498L247.811 63.3292H245.3ZM263.455 67.3017H265.967L265.343 57.9726H261.989L260.775 61.0732C260.404 62.1116 260.016 63.3432 259.696 64.4232H259.645C259.393 63.3292 259.039 62.1672 258.684 61.0875L257.572 57.9726H254.15L253.425 67.3017H255.802L256.004 63.7582C256.088 62.5957 256.139 61.1563 256.207 59.8968H256.24C256.51 61.1148 256.898 62.4435 257.269 63.5371L258.482 67.1498H260.488L261.871 63.5091C262.309 62.4159 262.781 61.0875 263.135 59.8968H263.185C263.185 61.2538 263.236 62.6101 263.287 63.7309L263.455 67.3017ZM268.276 57.9726V67.2605C268.85 67.3293 269.794 67.3985 271.024 67.3985C272.693 67.3985 274.598 67.1225 275.694 66.2084C276.25 65.7236 276.604 65.0739 276.604 64.2014C276.604 62.0973 274.447 61.143 272.103 61.143C271.682 61.143 271.159 61.1843 270.839 61.2258V57.9726H268.276ZM270.822 62.8175C271.075 62.7896 271.378 62.762 271.733 62.762C272.71 62.762 273.907 63.1913 273.907 64.2566C273.907 65.2807 272.828 65.8204 271.699 65.8204C271.344 65.8204 271.041 65.8067 270.822 65.7655V62.8175ZM277.649 57.9726V67.3017H280.212V57.9726H277.649Z" fill="white"/>
<path fill-rule="evenodd" clip-rule="evenodd" d="M10.7737 40.6839C-27.2293 56.2718 44.887 89.0817 78.8594 82.3697C81.2429 81.9984 83.0614 81.5245 85.255 80.9419L91.442 78.9693L91.3096 85.9892L108.173 62.1143L79.7626 62.2377L83.2979 66.7995C62.8881 74.6534 41.3791 71.4857 22.2441 60.8718C18.6361 58.8706 4.72214 52.3869 9.86211 46.9883C11.8996 44.8481 19.7761 43.1208 22.9276 42.2752C33.1721 39.7998 42.8066 37.4579 52.8305 34.3995C60.9199 31.2559 70.8335 28.6323 71.2147 18.4753C70.9704 11.1085 65.1935 5.22956 58.804 2.46213C52.5875 -0.228983 41.5666 -2.53852 38.4891 5.93241C39.4004 5.46804 40.09 4.74271 41.1767 4.14651C50.0206 -0.708672 65.8547 8.30123 66.0666 18.1359C66.4214 34.6386 24.5481 35.2802 10.7737 40.6839Z" fill="#C10000"/>
</g>
<defs>
<clipPath id="clip0_560_975">
<rect width="281" height="86" fill="white"/>
</clipPath>
</defs>
</svg>
