<svg width="204" height="62" viewBox="0 0 204 62" fill="none" xmlns="http://www.w3.org/2000/svg">
<g clip-path="url(#clip0_422_1290)">
<path fill-rule="evenodd" clip-rule="evenodd" d="M11.1406 31.3861L25.5272 4.18018H33.4786L41.8537 20.1478C40.4273 20.8561 38.9567 21.4874 37.4839 22.0714C36.9761 22.2731 36.4662 22.4693 35.9542 22.6614L29.7704 10.5148H29.3814L20.438 27.7235C20.2131 27.796 19.9884 27.8687 19.7634 27.9416C18.2021 28.4493 16.6412 28.9766 15.1091 29.5673C13.8586 30.0497 12.5896 30.583 11.4161 31.2319C11.3244 31.2822 11.2324 31.334 11.1406 31.3861ZM43.5762 23.4022L51.2411 38.0452H43.7859L39.4549 29.5185H39.4448L37.6735 26.001C39.3955 25.2875 41.1107 24.5566 42.8172 23.8018L42.8378 23.7927L42.858 23.7819C43.0969 23.6544 43.3363 23.5284 43.5762 23.4022ZM194.845 11.3027C198.047 11.3027 200.365 11.9062 201.8 13.1178C203.235 14.3299 203.953 16.2536 203.953 18.8834H197.573C197.573 17.9726 197.355 17.3183 196.92 16.9275C196.484 16.5358 195.613 16.3437 194.307 16.3437H183.585C182.611 16.3437 181.856 16.5618 181.318 17.0042C180.78 17.4401 180.511 18.1524 180.511 19.1334C180.511 20.2684 180.793 21.0315 181.356 21.4225C181.792 21.7305 182.535 21.8843 183.585 21.8843H195.229C198.508 21.8843 200.699 22.2952 201.8 23.1155C203.235 24.1935 203.953 26.4635 203.953 29.9262C203.953 32.7738 203.273 34.839 201.916 36.1213C200.558 37.4039 198.316 38.0452 195.191 38.0452H182.317C179.012 38.0452 176.713 37.4491 175.419 36.2557C174.125 35.063 173.478 33.1329 173.478 30.4651H179.858C179.858 31.1574 180.158 31.754 180.761 32.2541C181.363 32.7547 182.112 33.005 183.009 33.005H193.692C195.075 33.005 196.068 32.7613 196.67 32.2738C197.272 31.7862 197.573 31.0039 197.573 29.9262C197.573 28.8489 197.355 28.1052 196.92 27.6948C196.356 27.1814 195.216 26.9253 193.5 26.9253H184.046C180.229 26.9253 177.667 26.4377 176.36 25.4565C174.875 24.3539 174.132 22.1542 174.132 18.8642C174.132 16.1642 174.894 14.2273 176.418 13.0604C177.942 11.8866 180.472 11.3027 184.008 11.3027H194.845ZM168.867 11.3027V38.0452H162.487V11.3027H168.867ZM157.415 38.0452H151.036V33.8894C151.036 32.5818 150.639 31.6256 149.844 31.0231C149.05 30.4201 147.756 30.1187 145.963 30.1187H133.589V38.0452H127.21V11.3027H147.462C150.511 11.3027 152.778 11.9187 154.264 13.1569C156.057 14.6443 156.954 17.1646 156.954 20.711C156.954 22.5644 156.557 24.097 155.763 25.3022C155.173 26.1749 154.277 26.9763 153.073 27.6948C154.533 28.1821 155.583 28.7335 156.224 29.3495C157.018 30.1187 157.415 31.1707 157.415 32.5046V38.0452ZM133.589 16.6129V24.8088H146.924C148.282 24.8088 149.229 24.5013 149.768 23.8789C150.306 23.2634 150.575 22.2048 150.575 20.711C150.575 19.242 150.331 18.2096 149.844 17.6199C149.281 16.9467 148.307 16.6129 146.924 16.6129H133.589ZM100.963 26.2707H111.608L106.535 16.3049H106.228L100.963 26.2707ZM94.9298 38.0452H87.5146L87.5566 37.9678L87.5124 37.9737L101.616 11.3028H111.07L125.096 38.0452H117.603L114.182 31.3117H98.3883L94.9298 38.0452ZM61.8425 26.8865V33.005H74.6395C76.3049 33.005 77.3678 32.7991 77.8289 32.3887C78.2903 31.9788 78.5207 31.1449 78.5207 29.8879C78.5207 28.7595 78.3286 28.0025 77.9442 27.6177C77.4576 27.1304 76.4327 26.8865 74.8701 26.8865H61.8425ZM55.4632 38.0452V11.3027H74.6778C77.7521 11.3027 80.0516 11.8222 81.5756 12.868C83.0999 13.907 83.8621 15.6253 83.8621 18.0173C83.8621 20.0245 83.5802 21.4677 83.0168 22.3397C82.5556 23.0387 81.7358 23.5775 80.5574 23.9622C82.0689 24.4758 83.1193 25.091 83.7088 25.8094C84.5028 26.7843 84.8997 28.2462 84.8997 30.1954C84.8997 33.0175 84.1825 35.0313 82.7479 36.237C81.3132 37.4425 79.0589 38.0452 75.9843 38.0452H55.4632ZM61.8425 16.3437V22.1542H74.8701C75.7154 22.1542 76.3623 21.8718 76.8107 21.3007C77.2589 20.7363 77.4831 19.9737 77.4831 19.0177C77.4831 17.2351 76.5992 16.3437 74.8314 16.3437H61.8425Z" fill="#3E3E3E"/>
<path fill-rule="evenodd" clip-rule="evenodd" d="M88.693 41.5149V42.1041C87.1022 42.2134 85.1562 43.0615 85.1562 45.1868C85.1562 47.2527 86.8819 48.0806 88.6687 48.1904V48.7991H90.4189V48.1904C92.2422 48.0509 93.9557 47.2126 93.9557 45.1375C93.9557 43.0416 92.1932 42.2038 90.4432 42.1041V41.5149H88.693ZM88.6807 47.1326C87.9468 47.0527 87.0286 46.4743 87.0286 45.1569C87.0286 43.7402 87.9588 43.2214 88.6807 43.1413V47.1326ZM90.431 43.1413C91.2022 43.2214 92.0833 43.7205 92.0833 45.1375C92.0833 46.564 91.1531 47.0628 90.431 47.1326V43.1413ZM99.4632 46.7934L100.099 48.5198H102.106L99.5485 41.7942H97.1009L94.5797 48.5198H96.5134L97.1009 46.7934H99.4632ZM97.37 45.6559L97.8599 44.2289C97.9945 43.8404 98.1167 43.3312 98.2391 42.9318H98.2636C98.3858 43.3312 98.5327 43.8301 98.6797 44.2289L99.1936 45.6559H97.37ZM103.453 41.7942V48.4901C103.869 48.5397 104.542 48.5896 105.46 48.5896C106.72 48.5896 108.017 48.3906 108.813 47.8115C109.29 47.4622 109.597 46.9528 109.597 46.2945C109.597 45.5565 109.217 45.0274 108.642 44.688C108.018 44.3088 107.149 44.1395 106.316 44.1395C105.986 44.1395 105.594 44.1597 105.313 44.1889V43.0316H108.935V41.7942H103.453ZM105.301 45.3069C105.533 45.277 105.753 45.2669 105.961 45.2669C106.402 45.2669 106.867 45.357 107.197 45.5663C107.467 45.7358 107.638 45.9856 107.638 46.3245C107.638 46.6539 107.479 46.9231 107.234 47.1029C106.928 47.3328 106.476 47.4519 106.022 47.4519C105.766 47.4519 105.509 47.442 105.301 47.4123V45.3069ZM111.077 48.5198H112.925V46.1153C113.096 46.1346 113.317 46.145 113.562 46.145C114.663 46.145 115.605 45.9254 116.242 45.4361C116.731 45.0574 117.001 44.4984 117.001 43.8404C117.001 43.1814 116.645 42.6224 116.119 42.2837C115.569 41.9243 114.749 41.7445 113.598 41.7445C112.46 41.7445 111.652 41.8042 111.077 41.8845V48.5198ZM112.925 42.9517C113.06 42.922 113.317 42.8918 113.696 42.8918C114.626 42.8918 115.153 43.2615 115.153 43.8799C115.153 44.5686 114.541 44.9776 113.549 44.9776C113.28 44.9776 113.084 44.9677 112.925 44.9375V42.9517ZM118.432 41.7942V48.5198H120.562L122.239 46.0951C122.728 45.3868 123.254 44.4984 123.634 43.6999H123.67C123.56 44.5787 123.536 45.4965 123.536 46.5343V48.5198H125.249V41.7942H123.34L121.565 44.4389C121.076 45.1569 120.525 46.0452 120.097 46.8337H120.048C120.121 45.9355 120.146 44.8675 120.146 43.79V41.7942H118.432ZM127.122 41.7942V48.5198H128.97V45.706H129.325C130.328 45.706 130.708 46.2847 130.989 47.0432C131.185 47.542 131.344 48.0608 131.625 48.5198H133.632C133.241 47.8512 132.971 47.123 132.678 46.4046C132.335 45.5965 131.858 44.9975 130.793 44.7781L133.669 41.7942H131.405L129.129 44.5883H128.97V41.7942H127.122ZM139.201 46.7934L139.837 48.5198H141.844L139.287 41.7942H136.839L134.318 48.5198H136.252L136.839 46.7934H139.201ZM137.108 45.6559L137.598 44.2289C137.732 43.8404 137.855 43.3312 137.977 42.9318H138.001C138.124 43.3312 138.271 43.8301 138.418 44.2289L138.932 45.6559H137.108ZM145.663 48.5198H147.511V46.1153C147.682 46.1346 147.902 46.145 148.147 46.145C149.249 46.145 150.191 45.9254 150.827 45.4361C151.317 45.0574 151.586 44.4984 151.586 43.8404C151.586 43.1814 151.231 42.6224 150.705 42.2837C150.154 41.9243 149.334 41.7445 148.184 41.7445C147.046 41.7445 146.238 41.8042 145.663 41.8845V48.5198ZM147.511 42.9517C147.645 42.922 147.902 42.8918 148.282 42.8918C149.212 42.8918 149.738 43.2615 149.738 43.8799C149.738 44.5686 149.126 44.9776 148.135 44.9776C147.866 44.9776 147.67 44.9677 147.511 44.9375V42.9517ZM157.926 44.4389H154.89V43.0416H158.109V41.7942H153.018V48.5198H158.281V47.2726H154.89V45.6758H157.926V44.4389ZM159.798 41.7942V48.5198H161.646V45.706H162.001C163.005 45.706 163.384 46.2847 163.665 47.0432C163.861 47.542 164.02 48.0608 164.302 48.5198H166.309C165.917 47.8512 165.648 47.123 165.354 46.4046C165.011 45.5965 164.534 44.9975 163.47 44.7781L166.345 41.7942H164.081L161.805 44.5883H161.646V41.7942H159.798ZM168.463 41.7942V44.7381C168.463 45.7559 168.34 46.6141 167.839 47.0329C167.63 47.2126 167.3 47.3524 166.896 47.3924L167.129 48.6195C167.79 48.6195 168.353 48.4798 168.769 48.2907C170.017 47.6914 170.286 46.3645 170.286 44.6386V43.0416H172.159V48.5198H174.019V41.7942H168.463ZM180.175 46.7934L180.811 48.5198H182.818L180.26 41.7942H177.813L175.292 48.5198H177.225L177.813 46.7934H180.175ZM178.082 45.6559L178.572 44.2289C178.706 43.8404 178.829 43.3312 178.951 42.9318H178.976C179.098 43.3312 179.245 43.8301 179.392 44.2289L179.905 45.6559H178.082ZM191.263 48.5198H193.086L192.633 41.7942H190.198L189.317 44.0295C189.048 44.7781 188.766 45.666 188.534 46.4446H188.497C188.313 45.6559 188.056 44.8182 187.799 44.0398L186.992 41.7942H184.507L183.981 48.5198H185.707L185.853 45.9652C185.915 45.1271 185.951 44.0894 186 43.1814H186.025C186.221 44.0595 186.502 45.0174 186.771 45.8058L187.652 48.4103H189.109L190.112 45.7856C190.43 44.9975 190.773 44.0398 191.03 43.1814H191.067C191.067 44.1597 191.104 45.1375 191.14 45.9455L191.263 48.5198ZM194.763 41.7942V48.4901C195.179 48.5397 195.864 48.5896 196.758 48.5896C197.969 48.5896 199.352 48.3906 200.148 47.7316C200.552 47.3821 200.809 46.9137 200.809 46.2847C200.809 44.7678 199.242 44.0798 197.541 44.0798C197.235 44.0798 196.856 44.1096 196.623 44.1395V41.7942H194.763ZM196.611 45.287C196.794 45.2669 197.015 45.247 197.272 45.247C197.982 45.247 198.85 45.5565 198.85 46.3245C198.85 47.0628 198.067 47.4519 197.247 47.4519C196.99 47.4519 196.77 47.442 196.611 47.4123V45.287ZM201.567 41.7942V48.5198H203.428V41.7942H201.567Z" fill="#3E3E3E"/>
<path fill-rule="evenodd" clip-rule="evenodd" d="M7.8215 29.3302C-19.7679 40.5681 32.587 64.2217 57.2502 59.3828C58.9806 59.1151 60.3008 58.7735 61.8933 58.3535L66.385 56.9314L66.2888 61.9922L78.5315 44.7801L57.9059 44.869L60.4725 48.1578C45.6554 53.8199 30.0403 51.5362 16.1487 43.8843C13.5294 42.4416 3.42817 37.7673 7.15968 33.8753C8.63884 32.3324 14.357 31.0871 16.6449 30.4775C24.0822 28.6929 31.0767 27.0045 38.3538 24.7996C44.2265 22.5333 51.4236 20.6419 51.7003 13.3194C51.523 8.00846 47.3291 3.77015 42.6904 1.77503C38.1774 -0.165081 30.1765 -1.83009 27.9423 4.27685C28.6038 3.94207 29.1045 3.41916 29.8934 2.98934C36.3139 -0.510903 47.8091 5.98461 47.9629 13.0747C48.2205 24.972 17.8214 25.4345 7.8215 29.3302Z" fill="#C10000"/>
</g>
<defs>
<clipPath id="clip0_422_1290">
<rect width="204" height="62" fill="white"/>
</clipPath>
</defs>
</svg>
