<svg width="24" height="24" viewBox="0 0 24 24" fill="none" xmlns="http://www.w3.org/2000/svg">
<path fill-rule="evenodd" clip-rule="evenodd" d="M7.17442 5H16.8256C17.1765 4.99999 17.4793 4.99998 17.7299 5.01735C17.9938 5.03564 18.2577 5.07586 18.5185 5.18554C19.1065 5.43293 19.5738 5.90746 19.8173 6.50471C19.9253 6.76953 19.9649 7.03758 19.983 7.30557C20 7.56009 20 7.86761 20 8.22401V14.776C20 15.1324 20 15.4399 19.983 15.6944C19.9649 15.9624 19.9253 16.2305 19.8173 16.4953C19.5738 17.0925 19.1065 17.5671 18.5185 17.8144C18.2577 17.9241 17.9938 17.9643 17.7299 17.9827C17.4793 18 17.1765 18 16.8256 18H7.17441C6.82349 18 6.5207 18 6.2701 17.9827C6.00623 17.9643 5.7423 17.9241 5.48156 17.8144C4.8935 17.5671 4.42627 17.0925 4.18269 16.4953C4.07469 16.2305 4.03509 15.9624 4.01708 15.6944C3.99998 15.4399 3.99999 15.1324 4 14.776V8.22402C3.99999 7.86761 3.99998 7.56009 4.01708 7.30557C4.03509 7.03758 4.07469 6.76953 4.18269 6.50471C4.42627 5.90746 4.8935 5.43293 5.48156 5.18554C5.7423 5.07586 6.00623 5.03564 6.2701 5.01735C6.5207 4.99998 6.8235 4.99999 7.17442 5ZM5.85396 6.85069C6.14491 6.51299 6.65032 6.47877 6.98283 6.77426L11.4732 10.7647C11.7748 11.0327 12.2252 11.0327 12.5268 10.7647L17.0172 6.77426C17.3497 6.47877 17.8551 6.51299 18.146 6.85069C18.437 7.1884 18.4033 7.7017 18.0708 7.99719L13.5804 11.9877C12.6755 12.7918 11.3245 12.7918 10.4196 11.9877L5.92922 7.99719C5.59671 7.7017 5.56302 7.1884 5.85396 6.85069Z" fill="#EF0206"/>
</svg>
