<svg width="54" height="54" viewBox="0 0 54 54" fill="none" xmlns="http://www.w3.org/2000/svg">
<path d="M27 0C15.8203 0 6.75 9.07031 6.75 20.25C6.77637 22.6494 7.21143 25.0225 8.05518 27.2637L8.00244 27.2505C10.1514 33.9609 20.7642 44.4023 26.9868 50.6382H27V50.625C32.0889 45.5361 40.0913 37.3755 44.0332 31.2056C44.9165 29.8081 45.6152 28.4766 46.0107 27.2505L45.9448 27.2637C46.7886 25.0225 47.2368 22.6494 47.25 20.25C47.25 9.07031 38.1929 0 27 0Z" fill="#EF0206"/>
<path d="M27.0288 9H27.0258C25.8955 9.00124 24.9152 9.72386 24.5436 10.7396L18.1498 27.852C17.702 29.0497 18.2922 30.3906 19.4674 30.8471C20.6411 31.3033 21.9578 30.7023 22.4056 29.504L23.4394 26.7373H30.5688L31.5907 29.4978C31.9347 30.4272 32.8011 31 33.7213 31C35.3049 31 36.4149 29.3808 35.8514 27.8588L29.5159 10.7454C29.1601 9.75326 28.1874 9 27.0288 9ZM25.1741 22.0948L27.0209 17.1522L28.8507 22.0948H25.1741Z" fill="white"/>
</svg>
