<svg width="199" height="40" viewBox="0 0 199 40" fill="none" xmlns="http://www.w3.org/2000/svg">
<g clip-path="url(#clip0_488_346)">
<path d="M81 9H93.9988V12.3987H84.4914V17.8922H92.1968V21.2299H84.4914V26.6013H94V30H81V9Z" fill="#1E1E1E"/>
<path d="M102 9H98V30H102V9Z" fill="#1E1E1E"/>
<path d="M108 9H124V12.4309H117.919V30H114.144V12.4309H108V9Z" fill="#1E1E1E"/>
<path d="M135.287 21.3229C135.287 18.8208 134.345 17.8985 132.03 17.8985C129.716 17.8985 128.716 18.9387 128.716 21.3229H135.287ZM138.339 26.727L138.405 29.3066C136.241 29.7023 134.042 29.9343 131.834 30C126.921 30 125 27.7302 125 22.6739C125 17.4443 127.541 15 132.065 15C136.59 15 139 17.0953 139 21.5517L138.738 23.9117H128.716C128.716 26.007 129.723 27.0136 132.366 27.0136C135.009 27.0136 138.339 26.727 138.339 26.727Z" fill="#1E1E1E"/>
<path d="M142 29.9681V15.3495H145.47V16.1464C146.317 15.7218 147.224 15.4156 148.163 15.2373C148.688 15.1167 149.226 15.0482 149.766 15.0331C150.402 15.0078 151.037 15.1037 151.633 15.3152C152.229 15.5267 152.774 15.8495 153.236 16.2645C154.945 15.5612 156.765 15.1338 158.622 15C162.827 15 164 17.2007 164 22.3388V30H160.474V23.6635C160.474 19.7107 160.418 18.1429 157.94 18.1429C156.787 18.1934 155.652 18.4293 154.582 18.8406C154.742 20.009 154.814 21.1867 154.797 22.3648V29.9669H151.272V22.425C151.272 19.3152 150.966 18.1098 148.739 18.1098C147.637 18.1794 146.553 18.4014 145.519 18.7686V29.9681H142Z" fill="#1E1E1E"/>
<path d="M171.7 18.7972V26.9344C172.611 27.0553 173.53 27.1226 174.451 27.1359C177.363 27.1359 178.222 25.836 178.222 22.4174C178.222 19.1676 177.02 18.0436 175.07 18.0436C173.907 18.1283 172.77 18.3829 171.7 18.7972ZM168 15.3786H171.699V16.1648C172.947 15.5177 174.338 15.1203 175.776 15C179.991 15 182 16.9953 182 22.4162C182 28.4417 179.7 30.1178 174.72 30.1178C173.709 30.1035 172.702 30.0167 171.706 29.8581V36H168.008L168 15.3786Z" fill="#1E1E1E"/>
<path d="M195.381 22.4416C195.381 19.4241 194.54 17.9921 192.014 17.9921C189.361 17.9921 188.612 19.3663 188.612 22.4416C188.612 25.517 189.239 27.0391 192.014 27.0391C194.789 27.0391 195.381 25.4916 195.381 22.4416ZM199 22.4416C199 27.0714 197.375 30 192 30C186.625 30 185 27.1304 185 22.4416C185 17.7529 186.75 15 192 15C197.25 15 199 17.8488 199 22.4416Z" fill="#1E1E1E"/>
<path d="M66.6022 25.7599C66.5414 22.2155 64.7169 15.1801 61.8092 10.2178C58.9015 5.25555 55.5314 6.83822 52.6177 8.19902C49.7041 9.55982 42.9211 9.79312 39.2063 7.38102C35.4914 4.96892 34.0137 -0.250484 26.1406 0.00948655C19.9963 0.232318 16.1819 5.05653 14.7758 7.17247C13.4535 6.33433 11.9396 5.81233 10.362 5.65048C8.78426 5.48863 7.18896 5.69167 5.71059 6.24249C4.23221 6.79331 2.9141 7.67576 1.86739 8.81542C0.820671 9.95509 0.0760429 11.3186 -0.303711 12.7909C0.332605 11.4041 1.36913 10.2192 2.68452 9.37497C3.99991 8.53072 5.53974 8.06201 7.12376 8.02372C8.70778 7.98543 10.2704 8.37914 11.6288 9.15877C12.9872 9.93839 14.0851 11.0717 14.7939 12.4259C15.5028 13.7802 15.7933 15.2994 15.6315 16.8057C15.4697 18.3121 14.8622 19.7432 13.8801 20.9315C12.8981 22.1199 11.5822 23.0163 10.0864 23.5159C8.59056 24.0155 6.97679 24.0976 5.43396 23.7525C6.86544 24.3348 8.42043 24.5865 9.97274 24.487C11.525 24.3875 13.031 23.9397 14.3682 23.1799C15.7055 22.4201 16.8366 21.3697 17.6695 20.1139C18.5025 18.8582 19.0139 17.4324 19.1623 15.9524C19.5458 16.2641 19.9528 16.5483 20.38 16.8028C20.664 16.9142 21.5757 17.4037 23.0605 17.9455C24.5452 18.4874 25.1122 18.7635 26.3688 17.9455C27.6253 17.1275 26.6577 15.6601 26.6577 15.6601C25.3866 14.4484 24.3607 13.0227 23.6315 11.4548C22.9419 9.4884 24.3599 9.46268 26.2283 11.5986C28.564 14.2555 28.1744 15.0363 27.8963 16.7266C27.6183 18.4169 25.0664 19.9643 23.5816 20.7804C22.5348 21.3995 21.7735 22.3759 21.4522 23.5115C21.2798 24.0001 20.6789 24.8828 20.0731 26.3331C19.6519 27.4644 19.6306 28.6964 20.0123 29.8403C20.2687 30.0681 20.6081 30.191 20.9581 30.183C21.3081 30.175 21.6409 30.0367 21.8856 29.7975C22.546 29.3272 23.154 28.7934 23.7002 28.2043C23.7002 28.2043 22.4716 25.6751 23.8616 23.7944C25.7021 21.2918 27.5595 21.727 28.8051 22.0146C30.3457 22.3755 30.5988 23.0459 31.4577 23.9191C32.3167 24.7924 30.2012 27.5587 29.2336 29.6327C28.266 31.7068 30.546 32.821 31.5185 33.0609C32.7064 33.1925 33.7926 33.765 34.5428 34.655C35.2313 35.4066 36.0733 36.0158 37.017 36.4453C37.017 36.4453 38.1739 33.4752 37.4734 32.6248C36.7729 31.7744 36.1391 32.46 35.6499 32.0934C35.1606 31.7268 35.7057 30.5631 35.7057 30.5631C35.3452 30.8427 34.9642 31.0973 34.5657 31.3249C33.8263 31.7611 32.9714 31.7058 32.0526 29.9594C31.1339 28.2129 35.8223 25.2199 39.281 23.3649C42.7397 21.5099 42.934 23.583 42.9899 25.4904C43.0457 27.3978 40.6492 29.9594 39.9098 32.9295C39.1704 35.8996 41.1055 37.1271 41.1055 37.1271L43.218 34.237C42.8947 33.9164 42.6584 33.5251 42.5295 33.0972C42.4006 32.6693 42.3832 32.2178 42.4787 31.782C42.8773 30.4165 44.7526 32.6534 44.7526 32.6534C44.7526 32.6534 43.9126 30.6183 44.2295 29.5661C44.646 28.1577 46.6818 29.1623 47.0704 27.2549C47.3693 25.7989 48.6388 25.018 52.8639 24.9695C57.0889 24.9209 57.5961 23.0087 57.5961 23.0087C57.5662 23.555 57.5866 24.1028 57.6569 24.6457C57.7685 25.517 58.6802 29.0614 58.5686 31.1869C58.6248 32.8083 59.0499 34.3987 59.8142 35.8473C59.8142 35.8473 62.7658 33.7275 62.5934 32.3534C62.421 30.9793 60.4011 31.5916 60.7469 28.9795C61.0927 26.3674 61.6587 22.2184 61.7145 19.6539C61.7703 17.0894 59.7216 18.235 59.7216 18.235C59.2532 16.3235 58.5439 14.4733 57.609 12.7252C56.4083 10.8711 56.1243 11.0358 56.497 10.3816C56.8697 9.72742 60.161 11.3748 62.2077 16.0296C64.1259 20.2418 64.9652 24.8304 64.6561 29.4147L66.3242 30.0156C66.3242 30.0156 66.7227 29.3033 66.6689 25.7646" fill="#181716"/>
<path fill-rule="evenodd" clip-rule="evenodd" d="M25.9 0.599854C22.7601 2.39965 20.1364 4.67558 16.583 6.0678C17.5577 4.50446 18.9146 3.1903 20.5373 2.23798C22.16 1.28565 24.0001 0.723546 25.9 0.599854Z" fill="#009445"/>
<path fill-rule="evenodd" clip-rule="evenodd" d="M28.9214 0.598878C30.1664 2.53113 31.3001 4.52689 32.3174 6.57724C30.0741 5.10748 28.1348 3.2536 26.5977 1.1093C26.9215 0.864994 27.2971 0.690931 27.6983 0.599176C28.0996 0.507421 28.5169 0.500171 28.9214 0.577928" fill="#F3931B"/>
<path fill-rule="evenodd" clip-rule="evenodd" d="M30.46 1.56165C31.8895 1.94609 33.1817 2.69691 34.1967 3.73282C35.0636 4.48702 36.938 5.96971 36.9769 6.38966C37.0157 7.23433 35.2141 7.8295 34.5475 8.56275C33.0906 6.33062 31.7673 3.95566 30.4829 1.58069" fill="#1D468D"/>
<path fill-rule="evenodd" clip-rule="evenodd" d="M25.1669 2.30537C24.7877 4.84163 24.2493 7.35381 23.5546 9.82832C21.4082 9.03698 18.1737 9.29695 17.2998 7.26671C19.6388 5.23384 22.2946 3.56131 25.1719 2.30918" fill="#3DB3B9"/>
<path fill-rule="evenodd" clip-rule="evenodd" d="M26.0622 2.47485C27.5241 3.24797 28.7548 4.36546 29.6375 5.72115C28.2212 5.99746 26.761 5.99746 25.3447 5.72115C25.5839 4.65841 25.843 3.59568 26.0622 2.47485Z" fill="#E51C22"/>
<path fill-rule="evenodd" clip-rule="evenodd" d="M14.2581 7.26288V10.3397C12.2841 8.8627 10.2822 7.41715 6.56836 7.60284C7.12439 4.74603 12.8182 6.32204 14.2581 7.26288Z" fill="#E51C22"/>
<path fill-rule="evenodd" clip-rule="evenodd" d="M15.8865 6.57727C17.3229 8.81935 18.5794 11.1623 19.6451 13.586C18.4864 13.9494 17.2859 14.1777 16.0698 14.2659C15.2298 12.2309 14.2184 8.57514 15.8865 6.57727Z" fill="#9B1522"/>
<path fill-rule="evenodd" clip-rule="evenodd" d="M29.6388 6.57737C29.4554 9.02661 28.4938 10.7217 28.0265 12.9005C26.8307 11.8377 26.1252 10.276 24.4512 9.65416C24.8498 8.78283 24.7232 7.4068 25.348 6.74783C26.9772 6.88019 28.0504 6.48214 29.6408 6.57737" fill="#9B1522"/>
<path fill-rule="evenodd" clip-rule="evenodd" d="M30.7118 6.52393C31.9338 7.26696 32.9699 8.25751 33.7471 9.4255C31.7681 10.9491 30.3591 13.0232 28.5654 14.7392C28.8325 11.551 29.9724 9.25599 30.7118 6.54011" fill="#AA9132"/>
<path fill-rule="evenodd" clip-rule="evenodd" d="M41.0208 9.12283C41.0985 10.1856 41.3655 11.0674 41.3765 12.1996C38.686 12.5929 35.2602 12.2577 32.2578 12.3701C33.4924 10.1332 35.7943 8.91047 37.4394 7.0564C38.5284 7.89438 39.7332 8.58463 41.0198 9.10759" fill="#3DB3B9"/>
<path fill-rule="evenodd" clip-rule="evenodd" d="M61.3756 11.2006C61.0916 11.4977 60.5196 11.5139 60.3363 11.9072C59.2242 10.0636 56.177 10.0312 55.332 7.94285C58.451 6.56111 60.6591 8.96845 61.4035 11.1996" fill="#009445"/>
<path fill-rule="evenodd" clip-rule="evenodd" d="M53.5914 9.28174C52.8939 10.4454 52.5292 11.9386 51.7978 13.0442C50.6189 12.568 50.4964 11.0939 49.6514 10.3073C50.875 9.88262 52.3757 9.72264 53.5884 9.28174" fill="#E51C22"/>
<path fill-rule="evenodd" clip-rule="evenodd" d="M54.2034 9.96167C56.3219 11.2206 57.1002 13.7612 58.1514 16.0295C56.5332 15.4982 52.8702 15.7372 52.6519 13.8726C52.4795 12.4442 54.042 11.5139 54.2034 9.96167Z" fill="#FFEE00"/>
<path fill-rule="evenodd" clip-rule="evenodd" d="M42.4994 9.79211C43.961 10.0947 45.4521 10.248 46.9476 10.2492C46.3058 11.8228 45.4476 13.3078 44.3956 14.6649C43.0384 13.7298 42.5163 12.008 42.4824 9.79211" fill="#009445"/>
<path fill-rule="evenodd" clip-rule="evenodd" d="M18.729 9.48364C20.397 9.63791 21.5091 10.3502 23.1772 10.5092C23.1736 11.3021 23.4239 12.077 23.8946 12.7299C23.2161 13.3356 21.8539 13.2613 20.6751 13.4156C20.0244 12.0929 19.007 11.1577 18.707 9.48364" fill="#F3931B"/>
<path fill-rule="evenodd" clip-rule="evenodd" d="M51.4726 15.2925C49.6321 15.6486 47.0692 16.918 45.2178 16.1495C45.6164 13.6308 47.2476 12.2814 48.0756 10.1721C49.7936 11.3196 50.6386 13.307 51.4726 15.2944" fill="#F3931B"/>
<path fill-rule="evenodd" clip-rule="evenodd" d="M61.9205 12.0872C62.9488 13.1499 63.2886 14.8554 63.8446 16.3724C61.9374 16.0534 61.8378 14.0022 60.9648 12.7004C61.2638 12.4776 61.7929 12.4776 61.9215 12.0891" fill="#E51C22"/>
<path fill-rule="evenodd" clip-rule="evenodd" d="M40.6745 13.2031C40.9734 13.7926 39.8574 14.1325 39.3173 14.5001C37.4227 15.9443 35.3724 17.1912 33.201 18.2197C32.8393 16.6732 32.4726 15.1381 32.1836 13.5221C33.9772 12.5394 38.2999 13.1127 40.6625 13.1984" fill="#E51C22"/>
<path fill-rule="evenodd" clip-rule="evenodd" d="M19.3623 14.2346C20.6577 13.7032 22.4872 13.7346 23.7767 13.209C24.2878 14.3565 26.0954 15.0183 26.0685 16.2858C26.0018 19.0645 19.3284 16.7476 19.3623 14.2346Z" fill="#AA9132"/>
<path fill-rule="evenodd" clip-rule="evenodd" d="M43.766 15.4668C42.7207 16.0381 37.5719 20.1424 36.6104 17.5446C38.1449 15.9505 40.4418 15.0525 42.1706 13.6127C43.0824 13.8784 43.3714 14.7392 43.7829 15.4934" fill="#FFEE00"/>
<path fill-rule="evenodd" clip-rule="evenodd" d="M30.712 13.7565C31.8739 14.7498 31.7902 16.94 32.141 18.7141C30.7898 19.1283 28.5158 18.6665 27.1367 19.054C28.2092 17.211 29.4052 15.4361 30.717 13.7404" fill="#009445"/>
<path fill-rule="evenodd" clip-rule="evenodd" d="M18.3731 14.7811C19.6017 16.3171 18.1399 18.6016 17.4763 19.9091C16.6253 19.9091 16.4977 19.2501 15.6826 19.2235C16.161 17.9071 16.3503 16.5105 16.2386 15.1211C16.9322 14.9056 17.6558 14.791 18.385 14.7811" fill="#009445"/>
<path fill-rule="evenodd" clip-rule="evenodd" d="M54.0069 19.8024C53.4418 20.1805 52.8312 20.4926 52.1884 20.7319C50.2751 19.7701 47.8567 19.292 46.5723 17.7351C47.9295 17.2037 50.2472 15.96 51.6931 16.3066C53.139 16.6533 53.1111 18.7245 54.0059 19.7815" fill="#AA9132"/>
<path fill-rule="evenodd" clip-rule="evenodd" d="M53.6973 15.7963C55.4552 16.1375 57.1865 16.5938 58.8789 17.1618C58.2172 18.1817 56.7435 18.4264 55.6593 19.0426C54.6609 18.1873 53.9736 17.0502 53.6973 15.7963Z" fill="#3DB3B9"/>
<path fill-rule="evenodd" clip-rule="evenodd" d="M45.7136 18.4949C45.2462 20.209 44.173 21.3518 43.612 22.9792C42.205 21.646 40.3705 20.7156 39.0801 19.2596C40.6933 18.1844 42.4323 17.2928 44.2617 16.6028C44.9901 16.9837 45.2512 17.8198 45.7126 18.4626" fill="#9B1522"/>
<path fill-rule="evenodd" clip-rule="evenodd" d="M63.3057 17.4866C63.9394 17.4866 64.1028 17.9751 64.7406 18.0179C65.1521 19.612 66.32 21.9975 64.9189 23.3316C64.3131 21.4614 64.0122 19.3035 63.3067 17.5228" fill="#3DB3B9"/>
<path fill-rule="evenodd" clip-rule="evenodd" d="M60.5092 18.8255C61.7049 19.8882 61.0203 22.1203 60.837 23.8468C60.7295 25.594 60.454 27.3281 60.0139 29.0271H59.3582C57.729 25.9399 57.9682 20.7481 60.5092 18.8255Z" fill="#F3931B"/>
<path fill-rule="evenodd" clip-rule="evenodd" d="M34.9969 18.2369C35.2082 18.2055 35.3138 18.2741 35.3527 18.4074C34.691 21.2642 33.8579 23.9172 33.0289 26.6112C32.15 24.8685 31.8441 21.7441 31.7783 19.433C33.0957 19.2682 34.3532 19.0397 34.9979 18.2379" fill="#9B1522"/>
<path fill-rule="evenodd" clip-rule="evenodd" d="M36.1387 18.7665C37.6952 19.6702 38.7913 21.0196 40.2242 22.0452C38.2313 23.3679 35.8398 24.3087 34.1807 25.9495C34.5866 23.4998 35.2424 21.094 36.1387 18.7665Z" fill="#1D468D"/>
<path fill-rule="evenodd" clip-rule="evenodd" d="M58.1451 18.9635C58.4062 21.7794 56.3515 25.058 51.7617 24.2772C52.1902 20.8814 55.8761 20.5947 58.1451 18.9635Z" fill="#1D468D"/>
<path fill-rule="evenodd" clip-rule="evenodd" d="M30.3447 19.7386C30.5711 20.5847 30.6941 21.4529 30.7114 22.326C29.1878 21.0928 25.6124 21.2632 24.2722 22.4964C23.9105 19.3082 27.3802 19.771 30.3506 19.7653" fill="#F3931B"/>
<path fill-rule="evenodd" clip-rule="evenodd" d="M47.7532 20.0366C49.0161 20.4894 50.2349 21.0477 51.3952 21.705C51.1391 22.6527 50.7658 23.568 50.2832 24.4314C49.7885 24.4226 49.2987 24.5264 48.8543 24.7342C48.2078 23.2398 47.8317 21.6514 47.7422 20.0366" fill="#E51C22"/>
<path fill-rule="evenodd" clip-rule="evenodd" d="M16.865 20.3929C16.3197 21.1907 15.611 21.8746 14.7816 22.4034C13.9522 22.9322 13.0192 23.2949 12.0391 23.4697C12.9568 22.0089 14.7026 21.3442 15.436 19.7073C15.9613 19.8275 16.4503 20.0621 16.865 20.3929Z" fill="#E51C22"/>
<path fill-rule="evenodd" clip-rule="evenodd" d="M46.2635 20.1272C47.2142 21.3547 47.1863 23.5116 47.8479 25.0162C47.6307 25.8189 46.7359 25.9884 46.7917 27.035C45.7159 26.3444 44.7639 25.4923 43.9727 24.5115C44.6166 22.9967 45.3828 21.5321 46.2645 20.131" fill="#009445"/>
<path fill-rule="evenodd" clip-rule="evenodd" d="M23.1729 21.8699C24.0847 23.0602 22.6617 24.2506 23.0284 25.8285C22.856 26.2589 21.9164 25.2123 21.6055 24.8762C21.9463 23.7976 22.4767 22.7823 23.1739 21.8737" fill="#009445"/>
<path fill-rule="evenodd" clip-rule="evenodd" d="M65.6784 23.2831C66.0704 24.5977 66.0704 25.9908 65.6784 27.3055C65.0805 27.3055 64.95 25.1486 65.0616 24.4677C65.1453 23.9363 65.6176 23.5802 65.6784 23.2831Z" fill="#AA9132"/>
<path fill-rule="evenodd" clip-rule="evenodd" d="M43.4051 25.6904C44.5172 25.9761 44.8998 26.9389 45.7628 27.4597C45.1569 27.9483 44.0498 27.9911 43.5705 28.5806V30.5184C42.4585 29.6738 43.3712 26.9846 43.4041 25.6933" fill="#E51C22"/>
<path fill-rule="evenodd" clip-rule="evenodd" d="M20.6422 25.977C21.6267 26.4074 22.1658 27.2625 23.1503 27.6911C22.9347 28.2025 22.5625 28.6398 22.0825 28.9457C21.6024 29.2516 21.0368 29.4117 20.4599 29.4052C20.1364 28.2756 20.1989 27.0769 20.6382 25.9836" fill="#1D468D"/>
<path fill-rule="evenodd" clip-rule="evenodd" d="M31.246 26.9121C32.4188 27.513 31.4512 28.6262 31.6077 29.4832C31.8299 30.7374 33.3485 31.2849 33.0366 32.56C28.8385 33.24 29.1942 28.8405 31.243 26.9169" fill="#3DB3B9"/>
<path fill-rule="evenodd" clip-rule="evenodd" d="M42.3752 29.0862C42.9312 30.6803 41.2631 32.9172 42.5306 34.2665C42.2805 35.0902 41.5581 35.4673 41.2571 36.2482C39.033 34.2294 41.5292 30.9821 42.3692 29.0852" fill="#FFEE00"/>
<path fill-rule="evenodd" clip-rule="evenodd" d="M61.9208 32.2839C61.7315 33.4904 60.7091 33.878 60.1271 34.7179C59.438 33.4903 59.127 32.1012 59.2303 30.7117C60.7041 30.2355 60.9652 31.8325 61.9268 32.3058" fill="#E51C22"/>
<path fill-rule="evenodd" clip-rule="evenodd" d="M35.1814 31.5306C35.1814 32.4391 34.3534 32.5619 33.9309 33.0666C33.3749 32.8114 34.0754 32.3172 33.9309 31.8715C34.5816 31.983 34.6145 31.4983 35.1814 31.5306Z" fill="#AA9132"/>
<path fill-rule="evenodd" clip-rule="evenodd" d="M37.3287 32.7257C37.3914 33.7005 37.2689 34.6781 36.967 35.6111C35.7383 35.4206 35.3547 34.4208 34.4648 33.897C34.5482 33.6235 34.6935 33.3708 34.8904 33.1569C35.0872 32.9429 35.3309 32.773 35.6041 32.659C35.8773 32.5449 36.1734 32.4897 36.4714 32.4971C36.7694 32.5045 37.0621 32.5744 37.3287 32.7019" fill="#F3931B"/>
<path fill-rule="evenodd" clip-rule="evenodd" d="M5.6732 6.7478C6.14054 6.98682 5.54565 7.63532 5.49483 7.94862C4.27117 7.73055 1.90754 9.86649 2.63696 8.79899C3.57252 8.01728 4.58998 7.32991 5.6732 6.7478Z" fill="#3DB3B9"/>
<path fill-rule="evenodd" clip-rule="evenodd" d="M21.3714 1.78449C22.7156 1.19079 24.1599 0.830912 25.6363 0.72176C22.906 2.31586 20.5603 4.22897 17.6406 5.6212C20.6769 4.2185 23.0784 2.21492 25.8924 0.599869C24.3237 0.717621 22.7928 1.11965 21.3814 1.78449" fill="#5C9E3F"/>
<path fill-rule="evenodd" clip-rule="evenodd" d="M28.6754 0.717095C29.7546 2.53974 30.8995 4.2824 31.8641 6.24027L32.3254 6.58023C31.3066 4.5289 30.1726 2.53162 28.9285 0.597108C28.2519 0.495413 27.5589 0.585808 26.9355 0.857079C27.4985 0.692645 28.0916 0.644921 28.6754 0.717095Z" fill="#FCBF08"/>
<path fill-rule="evenodd" clip-rule="evenodd" d="M34.2034 3.73282C33.1902 2.6976 31.9001 1.94681 30.4727 1.56165L30.5783 1.75781C31.8553 2.19873 33.0098 2.91308 33.9533 3.84614C34.8262 4.60034 36.6996 6.08303 36.7335 6.50298C36.7663 7.27337 35.2706 7.83616 34.5093 8.48466L34.5592 8.55894C35.2258 7.82759 37.0284 7.23623 36.9945 6.39157C36.9945 5.99352 35.1012 4.50512 34.2144 3.73473" fill="#0068B3"/>
<path fill-rule="evenodd" clip-rule="evenodd" d="M24.578 2.57586L24.9228 2.42159C24.5541 4.89499 24.0323 7.34535 23.3604 9.75979C23.428 9.77978 23.4945 9.80298 23.5596 9.82931C24.2538 7.35468 24.7922 4.84253 25.1719 2.30637L24.5741 2.57205" fill="#88CDD0"/>
<path fill-rule="evenodd" clip-rule="evenodd" d="M29.3487 5.78593L29.6477 5.72784C28.7641 4.37127 27.5319 3.25338 26.0684 2.48059L26.0186 2.69866C27.3663 3.46637 28.5085 4.52335 29.3547 5.78593" fill="#EC6453"/>
<path fill-rule="evenodd" clip-rule="evenodd" d="M7.54688 6.34398C9.44017 5.60025 12.9457 6.66775 14.0299 7.38005V10.154L14.28 10.3445V7.26292C13.168 6.52395 9.37041 5.38694 7.54688 6.34398Z" fill="#EC6453"/>
<path fill-rule="evenodd" clip-rule="evenodd" d="M19.3619 13.6583L19.629 13.5841C18.5666 11.1637 17.3158 8.82278 15.8872 6.58105C15.8248 6.65732 15.7672 6.73714 15.7148 6.82008C17.1073 9.01125 18.3302 11.2968 19.3739 13.6583" fill="#B74844"/>
<path fill-rule="evenodd" clip-rule="evenodd" d="M25.3397 6.75242C25.3068 6.78956 25.2839 6.83241 25.251 6.87431C26.7855 6.96477 27.8478 6.60291 29.3823 6.69338C29.2319 9.04168 28.3311 10.6929 27.8538 12.7298L28.0371 12.905C28.4985 10.7262 29.4601 9.02644 29.6444 6.58196C28.0501 6.48673 26.9809 6.87907 25.3516 6.75242" fill="#B74844"/>
<path fill-rule="evenodd" clip-rule="evenodd" d="M30.7164 6.52393L30.6496 6.75818C31.7983 7.49493 32.772 8.45431 33.5075 9.57405C31.6222 11.0139 30.255 12.9584 28.5869 14.6059V14.7516C30.3806 13.0508 31.7896 10.9739 33.7745 9.43788C32.9932 8.26993 31.9555 7.27826 30.7333 6.53154" fill="#B6B036"/>
<path fill-rule="evenodd" clip-rule="evenodd" d="M40.7749 9.23986C40.8527 10.2759 41.1087 11.1444 41.1307 12.2309L41.3808 12.1995C41.3808 11.073 41.1028 10.1855 41.025 9.12273C39.7363 8.60381 38.5309 7.91323 37.4447 7.07153C37.3949 7.13534 37.3331 7.19342 37.2783 7.25246C38.3475 8.05923 39.5226 8.72747 40.7749 9.23986Z" fill="#88CDD0"/>
<path fill-rule="evenodd" clip-rule="evenodd" d="M61.1306 11.3177C61.0459 11.3974 60.9483 11.4637 60.8416 11.5139C61.0465 11.445 61.2354 11.3386 61.3977 11.2006C60.6523 8.97417 58.4511 6.56683 55.3262 7.94382C58.3156 6.80109 60.4191 9.13892 61.1426 11.3072" fill="#5C9E3F"/>
<path fill-rule="evenodd" clip-rule="evenodd" d="M60.2695 11.8119L60.3423 11.9072C60.439 11.7393 60.5946 11.6094 60.7817 11.5405C60.6009 11.6118 60.4283 11.7028 60.2695 11.8119Z" fill="#5C9E3F"/>
<path fill-rule="evenodd" clip-rule="evenodd" d="M49.6602 10.3131L49.6881 10.3397C50.8559 9.97883 52.2231 9.80837 53.3471 9.39889C52.6914 10.5045 52.3237 11.8805 51.679 12.9804C51.7288 12.9804 51.7737 13.028 51.8235 13.0442C52.5519 11.9234 52.9356 10.4512 53.6082 9.28748C52.4014 9.72362 50.9008 9.88836 49.6771 10.3131" fill="#EC6453"/>
<path fill-rule="evenodd" clip-rule="evenodd" d="M57.816 15.9504C57.931 15.9751 58.0442 16.0069 58.1548 16.0457C57.1036 13.7716 56.3253 11.2319 54.2068 9.97778C54.213 10.0627 54.1998 10.1478 54.168 10.2273C56.0613 11.4814 56.8435 13.8088 57.816 15.9504Z" fill="#FFF48B"/>
<path fill-rule="evenodd" clip-rule="evenodd" d="M42.5039 9.79211V9.95114C43.8872 10.2338 45.2984 10.3727 46.713 10.3654C46.0959 11.8683 45.293 13.2954 44.3215 14.6163L44.4161 14.6906C45.4681 13.3318 46.3263 11.8453 46.9681 10.2702C45.4724 10.2715 43.981 10.1183 42.5198 9.81306" fill="#5C9E3F"/>
<path fill-rule="evenodd" clip-rule="evenodd" d="M22.955 10.6368C22.956 11.4258 23.2061 12.1961 23.6724 12.8471C23.5925 12.9162 23.5049 12.9769 23.4113 13.028C23.5981 12.9594 23.771 12.8605 23.9225 12.7357C23.4519 12.0806 23.2016 11.3039 23.2051 10.5092C21.537 10.355 20.4249 9.64267 18.7568 9.48364C18.7646 9.53565 18.7755 9.58716 18.7897 9.63791C20.3183 9.84551 21.3915 10.4778 22.9749 10.6264" fill="#FCBF08"/>
<path fill-rule="evenodd" clip-rule="evenodd" d="M51.1884 15.3553L51.4555 15.2972C50.6214 13.305 49.7874 11.3224 48.0585 10.1692C48.0426 10.2487 48.0104 10.3244 47.9639 10.392C49.5582 11.5452 50.3823 13.4393 51.1884 15.3553Z" fill="#FCBF08"/>
<path fill-rule="evenodd" clip-rule="evenodd" d="M63.5333 16.2952C63.6364 16.3286 63.7425 16.3535 63.8501 16.3695C63.2941 14.8601 62.9533 13.1498 61.9259 12.0842C61.9 12.1739 61.8457 12.2537 61.7705 12.3128C62.6823 13.3279 63.038 14.8839 63.5333 16.2923" fill="#EC6453"/>
<path fill-rule="evenodd" clip-rule="evenodd" d="M61.4305 12.491C61.2983 12.5362 61.17 12.5913 61.0469 12.6557C61.18 12.6127 61.3085 12.5576 61.4305 12.491Z" fill="#EC6453"/>
<path fill-rule="evenodd" clip-rule="evenodd" d="M40.6801 13.2032C38.3285 13.1185 34.0038 12.5442 32.2012 13.527C34.1194 12.7137 38.18 13.2346 40.43 13.3194C40.729 13.9088 39.6129 14.2488 39.0728 14.6164C37.3425 15.9018 35.5101 17.0566 33.5922 18.0703C35.6079 17.0442 37.5244 15.8492 39.319 14.4992C39.875 14.1326 40.987 13.7927 40.6761 13.2023" fill="#EC6453"/>
<path fill-rule="evenodd" clip-rule="evenodd" d="M23.7834 13.209C22.493 13.7403 20.6645 13.7089 19.374 14.2346V14.266C20.6475 13.8298 22.3206 13.8194 23.5333 13.3251C24.0445 14.4726 25.8521 15.1345 25.8252 16.4019C25.8336 16.6071 25.7831 16.8105 25.6793 16.9903C25.5756 17.17 25.4223 17.3192 25.2362 17.4218C25.4877 17.3471 25.7064 17.1952 25.8583 16.9896C26.0102 16.784 26.0868 16.5363 26.0763 16.2848C26.1042 15.0202 24.2966 14.3612 23.7844 13.208" fill="#B6B036"/>
<path fill-rule="evenodd" clip-rule="evenodd" d="M43.5209 15.5839C42.2874 16.4236 41.0085 17.2004 39.6895 17.9113C41.1053 17.1819 42.47 16.3654 43.775 15.4668C43.3694 14.7174 43.0774 13.8727 42.1627 13.5861C42.1058 13.6368 42.0463 13.6848 41.9843 13.7299C42.8403 14.0222 43.1293 14.8507 43.5249 15.5839" fill="#FFF48B"/>
<path fill-rule="evenodd" clip-rule="evenodd" d="M31.891 18.7827L32.1471 18.7131C31.7963 16.9381 31.8801 14.7545 30.7182 13.7556L30.5518 13.9575C31.614 14.9726 31.5642 17.0609 31.892 18.7827" fill="#5C9E3F"/>
<path fill-rule="evenodd" clip-rule="evenodd" d="M18.3788 14.7868C17.6496 14.7967 16.926 14.9113 16.2324 15.1268V15.1697C16.8443 15.0013 17.4754 14.9054 18.1118 14.884C19.3015 16.3714 17.9733 18.5559 17.2837 19.8844H17.467C18.1287 18.5769 19.5915 16.2924 18.3639 14.7621" fill="#5C9E3F"/>
<path fill-rule="evenodd" clip-rule="evenodd" d="M51.4733 16.4447C52.958 16.8056 52.8913 18.8673 53.7861 19.9195C53.4024 20.1538 53.0188 20.3957 52.6013 20.5995C53.0999 20.3687 53.5796 20.1023 54.0362 19.8024C53.1394 18.7397 53.2081 16.6942 51.7234 16.3323C50.2387 15.9705 47.9587 17.236 46.6025 17.7512C47.9817 17.1884 50.1111 16.1038 51.4623 16.4333" fill="#B6B036"/>
<path fill-rule="evenodd" clip-rule="evenodd" d="M55.6438 19.0321C55.7664 18.9626 55.8939 18.8997 56.0215 18.8359L55.6318 19.0169" fill="#88CDD0"/>
<path fill-rule="evenodd" clip-rule="evenodd" d="M53.6973 15.7963L53.764 15.9867C55.4203 16.3031 57.0502 16.7346 58.6407 17.278C58.3142 17.7285 57.8614 18.082 57.3344 18.2979C57.9573 18.0753 58.4972 17.6813 58.8859 17.1656C57.1914 16.5955 55.4577 16.138 53.6973 15.7963Z" fill="#88CDD0"/>
<path fill-rule="evenodd" clip-rule="evenodd" d="M44.2447 16.6409C43.3219 17.0656 42.3514 17.4436 41.4316 17.8683C42.2766 17.4874 43.1555 17.1408 43.9946 16.7523C44.729 17.1332 44.984 17.9693 45.4514 18.6121C45.007 20.2376 44.0225 21.3489 43.4445 22.863L43.595 22.9954C44.151 21.3641 45.2302 20.2271 45.7025 18.5111C45.2352 17.8731 44.9801 17.0389 44.2457 16.6571" fill="#B74844"/>
<path fill-rule="evenodd" clip-rule="evenodd" d="M64.7464 18.0018C64.1127 18.0018 63.9493 17.5133 63.3115 17.4705L63.3783 17.6457C63.7769 17.7733 63.9842 18.0818 64.4904 18.0971C64.88 19.5845 65.9362 21.8166 64.88 23.1612C64.8962 23.2008 64.9092 23.2416 64.9188 23.2831C66.3199 21.9652 65.152 19.5636 64.7405 17.9694" fill="#88CDD0"/>
<path fill-rule="evenodd" clip-rule="evenodd" d="M60.511 18.8254C60.4409 18.8762 60.3743 18.9312 60.3117 18.9902C61.4238 20.0796 60.7731 22.2631 60.5897 23.9639C60.4864 25.6701 60.2266 27.3643 59.8135 29.0271H60.0307C60.4717 27.3283 60.7472 25.5941 60.8538 23.8468C61.0371 22.1251 61.7207 19.8986 60.5259 18.8254" fill="#FCBF08"/>
<path fill-rule="evenodd" clip-rule="evenodd" d="M33.9585 18.9635C33.2592 19.2142 32.5279 19.3743 31.7842 19.4396C31.7842 19.4396 31.7842 19.493 31.7842 19.5196C32.5328 19.4586 33.2656 19.279 33.9525 18.9883" fill="#B74844"/>
<path fill-rule="evenodd" clip-rule="evenodd" d="M35.0041 18.2408C34.9712 18.2836 34.9314 18.315 34.8985 18.3522C34.9493 18.3562 34.9975 18.3752 35.0364 18.4066C35.0753 18.438 35.103 18.4802 35.1157 18.5274C34.482 21.2271 33.6977 23.7877 32.8916 26.336C32.9364 26.4312 32.9753 26.5265 33.0191 26.6122C33.8532 23.9553 34.6872 21.2509 35.3489 18.4084C35.304 18.276 35.1984 18.2122 34.9872 18.2379" fill="#B74844"/>
<path fill-rule="evenodd" clip-rule="evenodd" d="M36.1457 18.772C36.1178 18.8415 36.0959 18.9205 36.068 18.9948C37.5358 19.8928 38.603 21.1736 39.9602 22.183C38.0749 23.4419 35.8238 24.3561 34.1807 25.8493V25.9711C35.8488 24.3294 38.2343 23.3943 40.2242 22.0668C38.7953 21.0412 37.7002 19.6862 36.1387 18.7882" fill="#0068B3"/>
<path fill-rule="evenodd" clip-rule="evenodd" d="M58.1452 18.9634L57.9001 19.1338C58.0062 20.099 57.8142 21.0728 57.3478 21.9348C56.8813 22.7969 56.1609 23.5095 55.2754 23.9847C56.241 23.5373 57.0365 22.813 57.5507 21.9128C58.065 21.0127 58.2735 19.9816 58.1452 18.9634Z" fill="#0068B3"/>
<path fill-rule="evenodd" clip-rule="evenodd" d="M24.2736 22.3926C24.2708 22.4192 24.2708 22.446 24.2736 22.4726C24.4883 22.2778 24.7342 22.1171 25.002 21.9965C24.7402 22.0963 24.4933 22.2285 24.2676 22.3898" fill="#FCBF08"/>
<path fill-rule="evenodd" clip-rule="evenodd" d="M30.1104 19.8558C30.3113 20.5938 30.4233 21.3513 30.4442 22.1136C30.5394 22.1711 30.6303 22.2347 30.7163 22.3041C30.6928 21.4364 30.5678 20.574 30.3436 19.7329C28.4971 19.7329 26.4514 19.5625 25.2676 20.19C26.4853 19.7015 28.3706 19.8501 30.0935 19.8501" fill="#FCBF08"/>
<path fill-rule="evenodd" clip-rule="evenodd" d="M48.8652 24.7285V24.7342L48.9049 24.718L48.8652 24.7285Z" fill="#EC6453"/>
<path fill-rule="evenodd" clip-rule="evenodd" d="M47.7598 20.0424V20.2547C48.9422 20.6759 50.0814 21.2006 51.1627 21.8222C50.9171 22.7455 50.5568 23.6375 50.0895 24.479H50.3008C50.7823 23.6155 51.1555 22.7007 51.4128 21.7536C50.2511 21.0999 49.0326 20.5433 47.7707 20.09" fill="#EC6453"/>
<path fill-rule="evenodd" clip-rule="evenodd" d="M15.4439 19.7073C15.4439 19.7606 15.3941 19.8082 15.3712 19.8558C15.8231 20.0056 16.2458 20.2264 16.6217 20.5091C16.0109 21.49 15.1169 22.2816 14.0469 22.7888C15.222 22.2834 16.2076 21.4472 16.8719 20.392C16.4559 20.0631 15.9674 19.8287 15.4429 19.7063" fill="#EC6453"/>
<path fill-rule="evenodd" clip-rule="evenodd" d="M46.2696 20.132L46.1191 20.3872C46.9641 21.6308 46.9701 23.682 47.6039 25.1323C47.4046 25.8656 46.6582 26.0732 46.5586 26.9017C46.6363 26.9445 46.714 26.9969 46.7977 27.0397C46.7589 25.977 47.6378 25.8227 47.854 25.0152C47.1983 23.5116 47.2202 21.3594 46.2696 20.132Z" fill="#5C9E3F"/>
<path fill-rule="evenodd" clip-rule="evenodd" d="M23.1762 21.8699C23.1095 21.9394 23.0537 22.0137 22.9929 22.0822C23.7492 23.2354 22.4368 24.3991 22.7816 25.9132C22.8034 25.9235 22.827 25.9296 22.8513 25.9311C22.8755 25.9325 22.8998 25.9293 22.9227 25.9217C22.9456 25.9141 22.9667 25.9022 22.9848 25.8866C23.0028 25.8711 23.0174 25.8523 23.0278 25.8313C22.6611 24.2372 24.084 23.0697 23.1722 21.8727" fill="#5C9E3F"/>
<path fill-rule="evenodd" clip-rule="evenodd" d="M65.6852 23.2831C65.6453 23.3984 65.5849 23.5063 65.5068 23.6021C65.8043 24.797 65.8043 26.042 65.5068 27.2369C65.5553 27.281 65.6185 27.3073 65.6852 27.3112C66.0772 25.9946 66.0772 24.5997 65.6852 23.2831Z" fill="#B6B036"/>
<path fill-rule="evenodd" clip-rule="evenodd" d="M43.3271 28.7034V30.2546C43.3954 30.3552 43.4798 30.4448 43.5773 30.5203V28.5862C43.7103 28.4242 43.8809 28.2938 44.0755 28.2053C43.7859 28.3047 43.5289 28.4751 43.3301 28.6996" fill="#EC6453"/>
<path fill-rule="evenodd" clip-rule="evenodd" d="M45.5179 27.5711C45.4224 27.6503 45.3157 27.7164 45.201 27.7673C45.4029 27.6944 45.5908 27.5902 45.7571 27.4587C44.8951 26.9273 44.5005 25.976 43.3994 25.6894V25.8913C44.3172 26.2474 44.7227 27.093 45.5179 27.5711Z" fill="#EC6453"/>
<path fill-rule="evenodd" clip-rule="evenodd" d="M20.6474 25.9827C20.6115 26.0441 20.5799 26.1077 20.5527 26.1731C21.4366 26.6197 21.9707 27.4006 22.9044 27.8044C22.6331 28.3665 22.1965 28.841 21.6479 29.1699C22.3182 28.8629 22.852 28.3375 23.1535 27.6882C22.169 27.2635 21.6299 26.4074 20.6454 25.9827" fill="#0068B3"/>
<path fill-rule="evenodd" clip-rule="evenodd" d="M31.612 29.4795C31.4566 28.6224 32.4241 27.513 31.2503 26.9178L31.0889 27.0826C32.1172 27.6882 31.2114 28.7614 31.3609 29.5956C31.5781 30.8174 33.029 31.3754 32.8068 32.5867L33.04 32.5553C33.3509 31.285 31.8332 30.7326 31.611 29.4785" fill="#88CDD0"/>
<path fill-rule="evenodd" clip-rule="evenodd" d="M42.3765 29.0909C42.3266 29.2081 42.2649 29.3357 42.1981 29.4719C42.504 31.0288 41.1189 33.1114 42.2868 34.3865C42.0646 35.1198 41.4637 35.4969 41.1299 36.1454C41.1715 36.1921 41.2161 36.2363 41.2634 36.2777C41.5623 35.4969 42.2868 35.1245 42.5369 34.2961C41.2973 32.9515 42.9265 30.6936 42.3755 29.1205" fill="#FFF48B"/>
<path fill-rule="evenodd" clip-rule="evenodd" d="M59.2569 30.7127V30.766C60.5134 30.5317 60.8024 31.9725 61.7032 32.3972C61.5368 33.46 60.6858 33.9209 60.0909 34.597L60.1577 34.7189C60.7416 33.8952 61.765 33.4857 61.9513 32.2849C60.9897 31.8278 60.7277 30.2337 59.2549 30.6908" fill="#EC6453"/>
<path fill-rule="evenodd" clip-rule="evenodd" d="M34.3142 31.8953C34.1902 31.9252 34.0605 31.9252 33.9365 31.8953C33.9419 31.9377 33.9419 31.9806 33.9365 32.023C34.0669 32.0081 34.1912 31.9623 34.2982 31.8896" fill="#B6B036"/>
<path fill-rule="evenodd" clip-rule="evenodd" d="M34.6871 31.6735C34.7681 31.65 34.8529 31.641 34.9373 31.6468C34.9373 32.4496 34.2925 32.6353 33.8252 33.0181L33.9139 33.0714C34.3364 32.54 35.1644 32.4391 35.1644 31.5306C34.986 31.5225 34.8101 31.5733 34.6662 31.6744" fill="#B6B036"/>
<path fill-rule="evenodd" clip-rule="evenodd" d="M37.3329 32.7218C37.0355 32.5825 36.7072 32.5141 36.3761 32.5224C36.0451 32.5307 35.721 32.6155 35.4316 32.7695C35.6992 32.6687 35.986 32.6227 36.2734 32.6347C36.5608 32.6467 36.8423 32.7163 37.0997 32.839C37.1705 33.7735 37.0572 34.7125 36.7659 35.6072L36.9712 35.6501C37.2784 34.7109 37.4011 33.7256 37.3329 32.7437" fill="#FCBF08"/>
<path fill-rule="evenodd" clip-rule="evenodd" d="M4.07263 8.30383C3.56385 8.54312 3.06828 8.80725 2.58789 9.09517C2.80512 9.03137 3.41097 8.61903 4.07263 8.30383Z" fill="#88CDD0"/>
<path fill-rule="evenodd" clip-rule="evenodd" d="M5.67966 6.75256L5.46243 6.88493C5.81817 7.103 5.42954 7.6077 5.29004 7.94766C5.36034 7.94219 5.43099 7.94219 5.50129 7.94766C5.55111 7.63437 6.146 6.99539 5.67966 6.75256Z" fill="#88CDD0"/>
<path fill-rule="evenodd" clip-rule="evenodd" d="M16.9548 5.79638C17.7655 4.58467 18.778 3.50774 19.9522 2.60817C18.6108 3.55157 17.4661 4.7266 16.5771 6.07253C20.1306 4.6746 22.7553 2.39581 25.8961 0.594116H25.8044C22.8688 2.35868 20.3388 4.47843 16.9578 5.79638" fill="#005421"/>
<path fill-rule="evenodd" clip-rule="evenodd" d="M26.9695 0.837944L27.0083 0.806519C26.8506 0.881227 26.7092 0.984005 26.5918 1.10934C28.1338 3.25299 30.0762 5.10661 32.3215 6.57728C32.188 6.2916 32.0544 6.01449 31.9229 5.73738C29.9811 4.39907 28.3053 2.73983 26.9744 0.837944" fill="#EF771E"/>
<path fill-rule="evenodd" clip-rule="evenodd" d="M36.3993 7.21533C35.9878 7.48673 35.5264 7.7467 35.1816 8.0181C35.5802 7.75241 36.0436 7.48673 36.3993 7.21533Z" fill="#0C2B61"/>
<path fill-rule="evenodd" clip-rule="evenodd" d="M31.0768 1.72639C30.8758 1.65678 30.6696 1.60171 30.46 1.56165C31.7613 3.93661 33.0677 6.30681 34.5186 8.5437C34.6249 8.43035 34.7423 8.32703 34.8693 8.23516C33.5181 6.14683 32.2895 3.94137 31.0768 1.72639Z" fill="#0C2B61"/>
<path fill-rule="evenodd" clip-rule="evenodd" d="M17.6707 6.99156C18.3015 6.42302 18.9669 5.89072 19.6636 5.39746C18.8293 5.97158 18.036 6.5983 17.2891 7.27344C18.1679 9.28749 21.3985 9.04847 23.5499 9.84457C23.5778 9.72268 23.6107 9.60555 23.6386 9.48366C21.4981 8.80374 18.5067 8.95229 17.6667 7.01251" fill="#319397"/>
<path fill-rule="evenodd" clip-rule="evenodd" d="M25.7185 5.45559C25.9297 4.50998 26.147 3.57485 26.3473 2.62353L26.0583 2.47498C25.8391 3.57961 25.58 4.6433 25.3408 5.72127C26.7571 5.99758 28.2173 5.99758 29.6336 5.72127L29.5001 5.54605C28.2443 5.73161 26.9629 5.70097 25.7185 5.45559Z" fill="#94090D"/>
<path fill-rule="evenodd" clip-rule="evenodd" d="M6.9418 7.33152C7.01417 6.95915 7.20895 6.61855 7.49783 6.35925C7.25615 6.48644 7.04794 6.66452 6.88893 6.87998C6.72993 7.09545 6.62431 7.34267 6.58008 7.60292C10.2939 7.41246 12.3018 8.85706 14.2698 10.334V9.80267C13.2823 8.95053 12.1272 8.29464 10.8719 7.87318C9.61653 7.45171 8.286 7.27309 6.95774 7.34771" fill="#94090D"/>
<path fill-rule="evenodd" clip-rule="evenodd" d="M16.4439 14.0003C15.6766 12.0824 14.726 8.77133 15.9716 6.71538L15.8879 6.5773C14.2198 8.56945 15.2481 12.2147 16.0662 14.2659C17.2822 14.1734 18.4824 13.9432 19.6416 13.5803C19.618 13.5337 19.5977 13.4857 19.5808 13.4365C18.5594 13.73 17.5081 13.9187 16.4449 13.9993" fill="#6B040B"/>
<path fill-rule="evenodd" clip-rule="evenodd" d="M24.822 9.38264C25.1777 8.62082 25.1209 7.46953 25.5195 6.75818H25.3412C24.7243 7.41715 24.8519 8.79318 24.4443 9.66451C26.1124 10.2863 26.8239 11.8328 28.0246 12.9108C28.0575 12.7356 28.1024 12.5651 28.1412 12.3794C27.0959 11.3167 26.3735 9.95686 24.8051 9.37693" fill="#6B040B"/>
<path fill-rule="evenodd" clip-rule="evenodd" d="M30.9601 6.68403L30.704 6.51929C29.9696 9.23421 28.8247 11.5663 28.5576 14.7231C28.6911 14.6012 28.8187 14.4679 28.9472 14.3355C29.2193 11.4025 30.2377 9.1866 30.9601 6.68403Z" fill="#867424"/>
<path fill-rule="evenodd" clip-rule="evenodd" d="M32.6296 12.0976C33.7915 9.97213 35.893 8.79226 37.5123 7.12388L37.4396 7.0658C35.7715 8.90939 33.4866 10.1321 32.252 12.3795C35.2414 12.2681 38.6852 12.5975 41.3706 12.2043V11.9814C38.741 12.2947 35.4825 11.9814 32.6356 12.109" fill="#319397"/>
<path fill-rule="evenodd" clip-rule="evenodd" d="M55.7263 7.77246C55.5801 7.82107 55.437 7.87799 55.2979 7.94292C56.1708 10.0312 59.1901 10.0684 60.335 11.9015C60.4074 11.7619 60.5267 11.6496 60.6738 11.5825C59.5338 9.82365 56.6481 9.7389 55.7253 7.77341" fill="#005421"/>
<path fill-rule="evenodd" clip-rule="evenodd" d="M60.7803 11.5348C60.9967 11.4568 61.1962 11.3416 61.3692 11.1948C61.1559 11.2702 60.9651 11.3941 60.8131 11.5557" fill="#005421"/>
<path fill-rule="evenodd" clip-rule="evenodd" d="M50.1377 10.1531L49.6484 10.3073C50.4994 11.0939 50.616 12.5709 51.7948 13.0385C51.8676 12.927 51.9333 12.8099 52.0001 12.6928C51.0325 12.1614 50.8432 10.9178 50.1377 10.1531Z" fill="#94090D"/>
<path fill-rule="evenodd" clip-rule="evenodd" d="M53.0238 13.6013C52.8683 12.3204 54.1079 11.4386 54.4806 10.1474C54.3919 10.0836 54.2972 10.0198 54.1966 9.95691C54.0352 11.5082 52.4727 12.4385 52.6451 13.8679C52.8673 15.7277 56.5373 15.4934 58.1496 16.0248C58.0828 15.8867 58.022 15.7534 57.9603 15.6153C56.1806 15.2487 53.223 15.2696 53.0228 13.5965" fill="#F9B015"/>
<path fill-rule="evenodd" clip-rule="evenodd" d="M42.8828 9.85601L42.4932 9.7865C42.532 11.992 43.0492 13.7289 44.4054 14.664C44.505 14.5526 44.5947 14.4355 44.6834 14.3184C43.4717 13.4204 42.9595 11.8425 42.8818 9.85506" fill="#005421"/>
<path fill-rule="evenodd" clip-rule="evenodd" d="M21.0694 13.1451C20.4715 11.9176 19.5289 11.0197 19.1761 9.54268C19.0256 9.54268 18.8772 9.49506 18.7197 9.48459C18.9977 11.153 20.043 12.0938 20.6878 13.4118C21.8666 13.2842 23.2287 13.3375 23.9073 12.7318V12.7052C22.9926 12.9872 22.0385 13.1358 21.0774 13.1461" fill="#EF771E"/>
<path fill-rule="evenodd" clip-rule="evenodd" d="M45.568 15.8753C45.9457 13.527 47.3865 12.1928 48.2585 10.3064L48.0592 10.1626C47.2251 12.2881 45.6019 13.627 45.1953 16.1457C47.0468 16.9161 49.6097 15.6458 51.4561 15.2887C51.4561 15.2353 51.4063 15.1773 51.3834 15.1239C49.5897 15.5648 47.2799 16.5847 45.573 15.8734" fill="#EF771E"/>
<path fill-rule="evenodd" clip-rule="evenodd" d="M61.9729 12.1452L61.9235 12.0872L61.8682 12.1938L61.9729 12.1452Z" fill="#94090D"/>
<path fill-rule="evenodd" clip-rule="evenodd" d="M61.3825 12.5023C61.2317 12.546 61.0891 12.6122 60.96 12.6985C61.8388 14.0002 61.9335 16.0457 63.8398 16.3647C63.7899 16.2266 63.7401 16.0885 63.6953 15.9448C62.3161 15.382 62.1268 13.6717 61.3825 12.5023Z" fill="#94090D"/>
<path fill-rule="evenodd" clip-rule="evenodd" d="M39.6901 14.2288C37.7969 15.6748 35.7463 16.9219 33.5738 17.9484C33.218 16.4248 32.8563 14.9192 32.5773 13.3365C32.4398 13.387 32.3065 13.4475 32.1787 13.5175C32.4677 15.1116 32.8344 16.6685 33.1961 18.215C35.3628 17.1798 37.4124 15.9344 39.3124 14.4983C39.7339 14.284 40.1373 14.0389 40.5191 13.7651C40.2411 13.9298 39.9133 14.0784 39.6911 14.2326" fill="#94090D"/>
<path fill-rule="evenodd" clip-rule="evenodd" d="M19.6693 14.1279C19.5637 14.1594 19.4581 14.1917 19.3634 14.2289C19.3305 16.4819 24.7513 18.6093 25.8634 16.9552C24.3567 17.9808 19.9025 16.1639 19.6693 14.1279Z" fill="#867424"/>
<path fill-rule="evenodd" clip-rule="evenodd" d="M42.1817 13.5965H42.1488C41.9655 13.7555 41.7761 13.905 41.5928 14.0479C41.798 13.9041 42.0043 13.7622 42.1986 13.6117" fill="#FFEE00"/>
<path fill-rule="evenodd" clip-rule="evenodd" d="M36.9812 17.2466C37.3486 16.8579 37.7525 16.5022 38.1879 16.1839C37.6137 16.566 37.0827 17.0042 36.6035 17.4914C37.5492 20.1482 42.7198 16.0087 43.7592 15.4402C42.1857 16.4763 37.8541 19.6378 36.9981 17.2495" fill="#F9B015"/>
<path fill-rule="evenodd" clip-rule="evenodd" d="M27.5076 18.7827C28.6196 17.1409 29.5424 15.3392 30.7879 13.8356C30.7879 13.8089 30.7321 13.7775 30.7042 13.7556C29.386 15.4462 28.1914 17.2216 27.1289 19.0693C28.513 18.6817 30.782 19.1436 32.1332 18.7236V18.5532C30.765 18.7922 28.797 18.4465 27.5345 18.7979" fill="#005421"/>
<path fill-rule="evenodd" clip-rule="evenodd" d="M16.0604 18.953C16.5205 17.6895 16.7096 16.3503 16.6164 15.0154C16.4889 15.0468 16.3554 15.0792 16.2328 15.122C16.3435 16.5115 16.1542 17.9078 15.6768 19.2244C16.4829 19.2244 16.6104 19.9262 17.4614 19.9043C17.5063 19.8139 17.5561 19.7139 17.6119 19.6187C16.9612 19.5177 16.7838 18.9759 16.0494 18.9521" fill="#005421"/>
<path fill-rule="evenodd" clip-rule="evenodd" d="M52.585 20.4795C50.7057 19.5387 48.3481 19.0607 47.0247 17.5675L46.5684 17.7484C47.8528 19.3102 50.2712 19.7892 52.1845 20.7509C52.8279 20.5034 53.4384 20.1837 54.003 19.7987C53.5588 20.0759 53.0831 20.305 52.585 20.4795Z" fill="#867424"/>
<path fill-rule="evenodd" clip-rule="evenodd" d="M56.0214 18.772C55.1168 18.0229 54.4761 17.0252 54.1869 15.9152L53.6807 15.7981C53.9627 17.0512 54.6514 18.1873 55.6487 19.0444C56.6074 18.6432 57.5362 18.18 58.4288 17.6579C57.7064 18.1045 56.7607 18.3483 56.0373 18.7739" fill="#319397"/>
<path fill-rule="evenodd" clip-rule="evenodd" d="M39.4577 18.9949C39.5414 18.9254 39.6361 18.8673 39.7248 18.7987C39.5026 18.9473 39.2854 19.1015 39.0801 19.2663C40.3645 20.7166 42.199 21.6412 43.606 22.9858C43.6618 22.8316 43.7226 22.6887 43.7844 22.5392C42.4053 21.3013 40.6814 20.4138 39.4587 19.0053" fill="#6B040B"/>
<path fill-rule="evenodd" clip-rule="evenodd" d="M63.8338 17.6294C63.6718 17.5423 63.4912 17.4915 63.3057 17.4808C64.0032 19.2606 64.3121 21.4232 64.913 23.2897C65.0435 23.1668 65.1558 23.0274 65.2468 22.8755C64.6908 21.1804 64.4127 19.273 63.8348 17.6256" fill="#319397"/>
<path fill-rule="evenodd" clip-rule="evenodd" d="M59.7296 28.7557C58.1781 25.817 58.3225 20.9709 60.5267 18.8521V18.8197C57.9857 20.7433 57.7466 25.9398 59.3758 29.0214H60.0315C60.0644 28.9366 60.0873 28.8462 60.1152 28.7557H59.7535" fill="#EF771E"/>
<path fill-rule="evenodd" clip-rule="evenodd" d="M35.1138 18.2351H34.9972C34.9211 18.3264 34.8374 18.4118 34.7471 18.4903C34.8781 18.4174 35.001 18.3319 35.1138 18.2351Z" fill="#9B1522"/>
<path fill-rule="evenodd" clip-rule="evenodd" d="M32.162 19.3835L31.7783 19.4312C31.8391 21.7423 32.151 24.8724 33.0289 26.6094L33.2282 25.9561C32.5282 23.8298 32.1684 21.6145 32.161 19.3855" fill="#6B040B"/>
<path fill-rule="evenodd" clip-rule="evenodd" d="M36.3652 18.915L36.132 18.7665C35.2372 21.0932 34.5798 23.4971 34.1689 25.9447C34.2915 25.8228 34.425 25.7162 34.5586 25.599C34.9473 23.323 35.552 21.0864 36.3652 18.915Z" fill="#0C2B61"/>
<path fill-rule="evenodd" clip-rule="evenodd" d="M35.6875 24.7285C37.1224 23.761 38.7766 23.0021 40.2135 22.045C38.7397 22.9697 37.0995 23.7344 35.7094 24.7447" fill="#0C2B61"/>
<path fill-rule="evenodd" clip-rule="evenodd" d="M52.1231 24.0115C52.1738 23.4748 52.3397 22.9539 52.6104 22.4812C52.8811 22.0085 53.2508 21.5942 53.6965 21.2642C53.1523 21.5885 52.6923 22.0268 52.3513 22.5459C52.0104 23.0651 51.7974 23.6516 51.7285 24.261C52.5202 24.443 53.3446 24.4526 54.1406 24.2889C54.9367 24.1252 55.684 23.7925 56.3272 23.3154C55.0698 24.066 53.5519 24.3089 52.1072 23.9905" fill="#0C2B61"/>
<path fill-rule="evenodd" clip-rule="evenodd" d="M25.2279 20.2014C24.8356 20.4297 24.5305 20.7723 24.3574 21.1788C24.1842 21.5852 24.1523 22.0341 24.2663 22.4593C24.3838 22.3544 24.5101 22.2588 24.6439 22.1736C24.5638 21.8263 24.5725 21.4658 24.6693 21.1224C24.7661 20.7791 24.9481 20.4632 25.2 20.2014" fill="#EF771E"/>
<path fill-rule="evenodd" clip-rule="evenodd" d="M24.7178 22.146C26.2802 21.2109 29.3324 21.1842 30.7065 22.3003C30.7134 22.1224 30.7004 21.9442 30.6677 21.7689C28.9996 20.8547 25.9913 21.0623 24.7178 22.1498" fill="#EF771E"/>
<path fill-rule="evenodd" clip-rule="evenodd" d="M49.2484 24.4524C48.6811 23.0799 48.3071 21.6414 48.1364 20.1748L47.7637 20.0262C47.8506 21.6395 48.2267 23.2265 48.8757 24.7181C49.3198 24.5152 49.8065 24.4116 50.2987 24.4152L50.3983 24.1705C49.9967 24.1794 49.6028 24.2772 49.2474 24.4562" fill="#94090D"/>
<path fill-rule="evenodd" clip-rule="evenodd" d="M12.4129 23.1983C13.2698 21.8309 14.8552 21.1643 15.6524 19.7444C15.5794 19.7265 15.5051 19.7141 15.4302 19.7073C14.6958 21.3385 12.95 22.0032 12.0332 23.464C13.297 23.1993 14.4826 22.6673 15.5029 21.907C14.5657 22.5165 13.5173 22.9543 12.4129 23.1983Z" fill="#94090D"/>
<path fill-rule="evenodd" clip-rule="evenodd" d="M44.3445 24.32C44.9304 22.9447 45.618 21.611 46.4022 20.3291C46.3524 20.2596 46.3075 20.191 46.2577 20.1272C45.3812 21.5311 44.6152 22.9953 43.9658 24.5076C44.7583 25.489 45.71 26.3429 46.7848 27.0369C46.7803 26.9069 46.7913 26.7769 46.8177 26.6493C45.9032 25.9657 45.0732 25.1849 44.3435 24.322" fill="#005421"/>
<path fill-rule="evenodd" clip-rule="evenodd" d="M22.0047 24.6009C22.3351 23.6808 22.7555 22.7926 23.2602 21.9479L23.1934 21.8469C22.4931 22.7537 21.9624 23.7695 21.625 24.8494C21.9239 25.1951 22.8756 26.2417 23.0539 25.8017C23.0319 25.7122 23.0153 25.6216 23.0041 25.5303C22.6356 25.2582 22.3013 24.9463 22.0076 24.6009" fill="#005421"/>
<path fill-rule="evenodd" clip-rule="evenodd" d="M65.4355 24.1973C65.4825 23.9447 65.591 23.7062 65.7523 23.5012C65.7315 23.4269 65.7055 23.354 65.6746 23.2831C65.5969 23.5754 65.1186 23.9154 65.0578 24.4629C64.9462 25.1486 65.0578 27.3055 65.6746 27.3055C65.734 27.1734 65.7804 27.0363 65.8131 26.896C65.4428 26.043 65.3126 25.1132 65.4355 24.1973Z" fill="#867424"/>
<path fill-rule="evenodd" clip-rule="evenodd" d="M43.7439 25.8122C43.6331 25.7601 43.5177 25.7174 43.3991 25.6846C43.3662 26.9759 42.4315 29.6698 43.5655 30.5097V29.766C43.1261 28.7614 43.6104 26.9816 43.7439 25.8284" fill="#94090D"/>
<path fill-rule="evenodd" clip-rule="evenodd" d="M44.0613 28.1987C44.6451 28.012 45.2047 27.7625 45.7294 27.455H45.6906C45.0968 27.6292 44.5343 27.889 44.0225 28.2253" fill="#94090D"/>
<path fill-rule="evenodd" clip-rule="evenodd" d="M20.8352 29.128C20.5707 28.128 20.5707 27.0808 20.8352 26.0808C20.7624 26.0436 20.7017 26.0065 20.6299 25.9741C20.1896 27.0653 20.1254 28.2624 20.4466 29.3909C21.1309 29.4079 21.7965 29.1762 22.309 28.7424C21.8597 28.9966 21.3462 29.1283 20.8242 29.1233" fill="#0C2B61"/>
<path fill-rule="evenodd" clip-rule="evenodd" d="M31.3222 26.9597L31.2445 26.9121C29.1868 28.8519 28.8311 33.2352 33.0292 32.5496C33.0504 32.4768 33.0634 32.4021 33.068 32.3267C29.4319 32.6991 29.5934 28.9576 31.3222 26.9597Z" fill="#319397"/>
<path fill-rule="evenodd" clip-rule="evenodd" d="M42.4598 29.4842C42.4414 29.3495 42.4118 29.2164 42.3711 29.0862C41.5261 30.9831 39.0349 34.2285 41.259 36.2435C41.3153 36.1146 41.3819 35.9901 41.4583 35.8711C39.7902 34.0485 41.5081 31.3488 42.4707 29.4909" fill="#F9B015"/>
<path fill-rule="evenodd" clip-rule="evenodd" d="M59.5968 30.6317C59.4703 30.6474 59.3455 30.6741 59.2242 30.7117C59.1248 32.101 59.4356 33.4891 60.121 34.7179C60.2158 34.5831 60.3217 34.4557 60.4379 34.337C59.8224 33.1886 59.5328 31.9062 59.5978 30.6174" fill="#94090D"/>
<path fill-rule="evenodd" clip-rule="evenodd" d="M34.3095 31.8591C34.1833 31.8868 34.0521 31.8868 33.9259 31.8591C34.0764 32.3057 33.3699 32.7942 33.9259 33.0542C34.0226 32.9433 34.1327 32.8435 34.2537 32.7571C33.898 32.5447 34.2537 32.2257 34.3095 31.8486" fill="#867424"/>
<path fill-rule="evenodd" clip-rule="evenodd" d="M34.8364 33.6504C34.9309 33.3192 35.124 33.0214 35.3925 32.7933C35.1676 32.914 34.9702 33.0763 34.8118 33.2707C34.6534 33.4651 34.5371 33.6877 34.4697 33.9256C35.3536 34.457 35.7372 35.4492 36.9719 35.6311C36.9844 35.5169 37.0105 35.4045 37.0496 35.2959C36.0531 35.0102 35.6545 34.1322 34.8255 33.6542" fill="#EF771E"/>
<path fill-rule="evenodd" clip-rule="evenodd" d="M3.0105 8.51143C3.23146 8.32089 3.4644 8.14343 3.70803 7.98007C3.32543 8.23382 2.96457 8.51627 2.62885 8.82473C1.90043 9.88747 4.26306 7.762 5.48672 7.96769C5.51386 7.8722 5.55126 7.77966 5.59833 7.69153C4.3358 7.76581 2.32891 9.5456 3.00751 8.5581" fill="#319397"/>
</g>
<defs>
<clipPath id="clip0_488_346">
<rect width="199" height="40" fill="white"/>
</clipPath>
</defs>
</svg>
