<svg width="183" height="26" viewBox="0 0 183 26" fill="none" xmlns="http://www.w3.org/2000/svg">
<g clip-path="url(#clip0_488_334)">
<path fill-rule="evenodd" clip-rule="evenodd" d="M46.6472 5.00291L34.9883 25.7184V25.9892H55.8426V20.8347H44.1042L55.729 0.314036V0H35.9873V5.00291H46.6472ZM75.993 15.0954V10.0491H66.6614V5.00291H76.7877V0H60.5538V25.9892H77.1509V20.683H66.6614V15.0954H75.993ZM105.6 25.9892V0H99.5037V14.0342L84.2235 0H82.6568V25.9892H88.753V11.1753L104.204 25.9892H105.6ZM121.119 20.7588H117.247V5.24115H121.119C125.807 5.24115 128.259 9.1287 128.259 12.9621C128.271 16.7089 126.023 20.7588 121.119 20.7588ZM121.198 0.0433153H111.151V25.9892H121.209C124.74 26.0975 128.157 24.8088 130.655 22.4265C133.152 19.8384 134.48 16.4165 134.367 12.8971C134.367 6.49729 129.849 0.0433153 121.198 0.0433153ZM153.632 15.0954V10.0491H144.289V5.00291H154.426V0H138.193V25.9892H154.79V20.683H144.3V15.0954H153.632ZM183 25.9892V0H176.904V14.0342L161.624 0H160.069V25.9892H166.165V11.1753L181.615 25.9892H183Z" fill="#919090"/>
<path fill-rule="evenodd" clip-rule="evenodd" d="M8.51427 0H0V8.12162C0.00407081 9.35483 0.496446 10.5411 1.3785 11.4427C2.26056 12.3443 3.46716 12.8947 4.75664 12.9838C9.66086 12.9946 13.6342 16.7847 13.6342 21.4519C13.7268 22.6802 14.3021 23.8299 15.245 24.6711C16.188 25.5124 17.429 25.9831 18.72 25.9892H27.2457V17.8676C27.2395 16.6349 26.7464 15.4498 25.8647 14.5486C24.9831 13.6475 23.7777 13.0964 22.489 13.0054C17.5848 12.9946 13.6115 9.21533 13.6115 4.53728C13.5145 3.30855 12.9364 2.15962 11.992 1.31894C11.0475 0.478262 9.80602 0.00740646 8.51427 0Z" fill="url(#paint0_linear_488_334)"/>
<path fill-rule="evenodd" clip-rule="evenodd" d="M27.2457 8.12162V0H18.7314C17.3123 0 15.9728 0.563099 15.0078 1.54852C15.0078 1.54852 1.35093 14.5539 1.11253 14.8463C0.38598 15.7126 0 16.7738 0 17.8676V25.9892H8.51427C10.0922 25.9892 11.5681 25.2961 12.533 24.105L25.7244 11.5868C26.7007 10.6772 27.2457 9.42107 27.2457 8.12162Z" fill="url(#paint1_linear_488_334)"/>
</g>
<defs>
<linearGradient id="paint0_linear_488_334" x1="27.2376" y1="25.9925" x2="1.27831" y2="-1.21955" gradientUnits="userSpaceOnUse">
<stop stop-color="#919090"/>
<stop offset="0.24" stop-color="#C5C5C5"/>
<stop offset="0.3" stop-color="#919090"/>
<stop offset="0.5" stop-color="#808080"/>
<stop offset="0.68" stop-color="#ACACAC"/>
<stop offset="0.74" stop-color="#A0A0A0"/>
<stop offset="1" stop-color="#888888"/>
</linearGradient>
<linearGradient id="paint1_linear_488_334" x1="3.56404" y1="33.5631" x2="22.1618" y2="-8.22416" gradientUnits="userSpaceOnUse">
<stop stop-color="#919090"/>
<stop offset="1" stop-color="#D3D3D3"/>
</linearGradient>
<clipPath id="clip0_488_334">
<rect width="183" height="26" fill="white"/>
</clipPath>
</defs>
</svg>
