<svg width="254" height="32" viewBox="0 0 254 32" fill="none" xmlns="http://www.w3.org/2000/svg">
<g clip-path="url(#clip0_488_329)">
<path d="M146.535 9.856L137.631 0L142.681 22.4L161.02 0L146.535 9.856ZM27.7323 19.584L39.9581 6.272L26.2705 11.52L0.755859 6.4L27.7323 19.584Z" fill="#D4D4D4"/>
<path d="M137.1 5.75999L131.784 24.064H141.086L137.1 5.75999ZM158.628 5.75999L144.276 24.064H153.312L158.628 5.75999ZM246.999 7.67999C245.484 7.70879 244.009 8.15279 242.746 8.95999C242.152 9.40781 241.616 9.9236 241.152 10.496L241.683 8.06399H236.102L230.122 28.672H236.368L238.361 22.272C238.892 23.552 240.088 24.32 241.683 24.32H242.746C244.341 24.064 245.936 23.424 247.53 22.4C248.46 21.76 249.391 20.864 250.188 19.84C250.852 18.816 251.517 17.408 251.916 16C252.58 13.696 252.58 11.776 251.783 10.112C250.985 8.57599 249.391 7.67999 246.999 7.67999ZM245.67 16C245.271 17.152 244.74 18.048 244.075 18.56C243.676 19.072 243.278 19.2 242.746 19.456C242.394 19.505 242.036 19.505 241.683 19.456C240.753 19.456 240.354 19.328 239.956 18.56C239.69 17.92 239.69 17.024 239.956 16C240.354 14.464 241.019 13.696 241.55 13.312C241.816 12.928 242.613 12.288 243.676 12.288C245.404 12.288 246.334 13.568 245.537 16.128M109.724 7.67999C108.255 7.7326 106.829 8.17559 105.605 8.95999C104.964 9.39956 104.383 9.91568 103.877 10.496L104.542 8.06399H98.8276L92.8476 28.672H99.0933L100.954 22.272C101.618 23.552 102.814 24.32 104.409 24.32H105.472C107.067 24.064 108.661 23.424 110.256 22.4C111.186 21.76 111.984 20.864 112.781 19.84C113.445 18.816 114.11 17.408 114.641 16C115.306 13.696 115.173 11.776 114.508 10.112C113.711 8.57599 112.116 7.67999 109.592 7.67999M108.263 16C107.997 17.152 107.465 18.048 106.801 18.56C106.402 19.072 105.871 19.2 105.472 19.456C105.076 19.5181 104.672 19.5181 104.276 19.456C103.346 19.456 102.947 19.328 102.681 18.56C102.283 17.92 102.283 17.024 102.681 16C103.08 14.464 103.744 13.696 104.276 13.312C104.542 12.928 105.339 12.288 106.402 12.288C108.13 12.288 109.06 13.568 108.263 16.128M1.28711 31.104L17.2338 24.96L47.2667 31.36L15.3733 15.616L1.28711 31.104ZM24.6756 1.27999C24.1167 1.31258 23.5701 1.45113 23.067 1.68769C22.5639 1.92425 22.1143 2.25416 21.7439 2.65851C21.3735 3.06285 21.0896 3.53366 20.9086 4.04393C20.7275 4.55419 20.6529 5.09387 20.6889 5.63199C20.9547 7.80799 23.0809 9.47199 25.34 9.47199C25.9109 9.44008 26.4693 9.29757 26.9818 9.05298C27.4942 8.80839 27.9501 8.46676 28.3223 8.04852C28.6945 7.63027 28.9753 7.14402 29.1479 6.61883C29.3204 6.09365 29.3812 5.54034 29.3267 4.99199C29.2935 4.44206 29.1456 3.90422 28.8916 3.41063C28.6377 2.91705 28.283 2.47788 27.8488 2.11939C27.4146 1.76089 26.9098 1.49045 26.3645 1.32423C25.8193 1.158 25.2448 1.09943 24.6756 1.15199M224.408 19.456C224.098 19.8534 223.697 20.176 223.236 20.3982C222.774 20.6203 222.266 20.736 221.75 20.736C220.687 20.736 220.155 20.48 219.624 19.968C219.225 19.328 219.092 18.688 219.358 17.664H231.318C232.248 14.848 232.248 12.416 231.052 10.624C229.989 8.83199 227.996 7.80799 224.939 7.80799L223.344 7.93599C220.998 8.27952 218.807 9.27333 217.037 10.7962C215.267 12.319 213.996 14.305 213.378 16.512C212.713 19.072 213.112 20.992 214.308 22.528C215.637 23.808 217.497 24.576 220.155 24.576C222.111 24.5964 224.052 24.2485 225.869 23.552C227.85 22.7233 229.487 21.2819 230.52 19.456H224.408ZM223.344 11.776H224.142C224.939 11.776 225.471 12.032 225.736 12.544C226.135 13.056 226.268 13.824 226.135 14.592H220.421C220.82 13.056 221.75 12.032 223.344 11.776ZM174.707 8.31999C173.644 8.06399 172.182 7.80799 170.322 7.80799C169.027 7.81754 167.737 7.94613 166.468 8.19199C165.139 8.44799 164.076 8.83199 163.146 9.21599C162.364 9.63632 161.679 10.2045 161.131 10.8863C160.582 11.5682 160.183 12.3497 159.956 13.184H166.202L166.468 12.8C166.601 12.416 167.132 12.032 167.531 11.904C167.953 11.7381 168.404 11.6512 168.86 11.648C169.392 11.648 169.79 11.648 170.189 11.904C170.588 11.904 170.853 12.544 170.72 12.928C170.455 13.568 169.657 14.08 168.461 14.208L162.216 15.232C161.426 15.4364 160.667 15.7376 159.956 16.128C159.425 16.512 158.76 16.896 158.229 17.536C157.697 18.176 157.299 18.816 157.033 19.84C156.634 21.376 156.9 22.528 157.83 23.424C158.628 24.192 159.824 24.576 161.285 24.576C163.706 24.6875 166.081 23.9098 167.93 22.4L167.664 24.064H174.308C174.308 24.064 173.777 23.808 174.043 23.04L176.568 14.464L177.099 11.776C177.099 11.008 177.099 10.368 176.7 9.72799C176.435 9.08799 175.77 8.70399 174.707 8.44799M168.063 19.968C167.633 20.4376 167.083 20.7906 166.468 20.992H165.405C163.943 20.992 163.412 20.608 163.544 19.712C163.81 19.328 164.076 18.816 164.475 18.56L165.804 18.048L167.531 17.792L169.392 17.28C169.259 18.304 168.86 19.2 168.063 19.968ZM187.464 19.584C187.201 19.8324 186.89 20.0282 186.548 20.16C186.205 20.2918 185.84 20.3571 185.471 20.352C184.541 20.352 184.009 19.968 183.744 19.2C183.478 18.56 183.478 17.28 184.009 15.744C184.142 15.36 184.674 14.08 185.205 13.568C185.471 13.056 185.87 12.672 186.401 12.416C186.8 12.16 187.332 12.032 187.863 12.032C188.66 12.032 189.059 12.288 189.325 12.672C189.724 13.056 189.724 13.568 189.591 14.336H195.969C196.368 12.032 195.836 10.24 194.508 9.21599C193.179 8.31999 191.318 7.93599 189.192 7.93599C186.534 7.93599 184.142 8.57599 182.016 10.112C179.863 11.6678 178.318 13.8776 177.631 16.384C176.833 18.944 177.099 20.992 178.428 22.528C179.757 23.808 181.617 24.576 184.275 24.576C186.458 24.5762 188.605 24.048 190.521 23.04C191.525 22.5135 192.425 21.8202 193.179 20.992C193.976 20.224 194.508 19.2 195.039 17.92H188.66C188.395 18.688 187.996 19.2 187.464 19.584ZM94.5751 10.24C93.512 8.70399 91.5187 7.67999 88.3293 7.67999C87.5256 7.69475 86.7249 7.78044 85.9373 7.93599C83.944 8.31999 82.0835 9.08799 80.6218 10.24C78.6885 11.7547 77.2947 13.8132 76.6351 16.128C76.1036 18.432 76.2364 20.352 77.1667 22.016C78.2298 23.68 80.2231 24.576 83.4124 24.576C84.3427 24.576 85.14 24.576 86.0702 24.32C87.9309 23.9822 89.67 23.1888 91.12 22.016C93.0533 20.5013 94.4471 18.4428 95.1067 16.128C95.7711 13.824 95.6382 11.904 94.5751 10.24ZM88.9938 16.128C88.5951 17.408 88.0636 18.432 87.2662 19.2C86.8676 19.712 85.9373 20.48 84.6084 20.48C83.6782 20.48 83.0138 20.096 82.748 19.2C82.4215 18.2001 82.4215 17.1279 82.748 16.128C83.1467 14.848 83.6782 13.824 84.4756 12.928C84.8113 12.5773 85.2242 12.3033 85.6841 12.1261C86.1439 11.949 86.6391 11.8731 87.1333 11.904C88.0636 11.904 88.8609 12.16 89.1267 12.928C89.3924 13.824 89.3924 14.848 88.9938 16.128ZM116.502 12.672H121.419L118.096 24.064H124.342L127.664 12.544H132.183L133.512 8.06399H117.831L116.502 12.672ZM197.564 12.672H202.481L199.292 24.064H205.404L208.86 12.544H213.378L214.707 8.06399H199.026L197.564 12.672ZM60.1569 8.06399L55.5058 24.064H61.7516L65.0738 12.544H70.1236L66.8013 24.064H73.18L77.8311 8.06399H60.1569ZM48.3298 19.456C48.0712 19.7105 47.7604 19.9102 47.4172 20.0425C47.074 20.1747 46.7059 20.2365 46.3364 20.224C45.4062 20.224 44.8747 19.84 44.6089 19.072C44.3431 18.432 44.3431 17.28 44.8747 15.616C45.1915 14.8516 45.5924 14.1221 46.0707 13.44C46.3364 12.928 46.7351 12.544 47.2667 12.288C47.6653 12.032 48.1969 11.904 48.7284 11.904C49.5258 11.904 49.9244 12.16 50.1902 12.544C50.5889 12.928 50.5889 13.568 50.456 14.208H56.5689C56.9676 11.904 56.436 10.112 55.1071 9.08799C53.7782 8.19199 51.7849 7.80799 49.7916 7.80799C47.1527 7.73308 44.5667 8.53032 42.4634 10.0672C40.3602 11.6041 38.8663 13.788 38.2302 16.256C37.4329 18.816 37.6987 20.864 39.0276 22.4C40.3564 23.68 42.2169 24.448 44.8747 24.448C47.0906 24.5093 49.2862 24.0246 51.2533 23.04C52.2546 22.5092 53.1536 21.8164 53.9111 20.992C54.5756 20.224 55.24 19.2 55.7716 17.92H49.3929C49.1271 18.688 48.7284 19.2 48.1969 19.584" fill="#919090"/>
</g>
<defs>
<clipPath id="clip0_488_329">
<rect width="253" height="32" fill="white" transform="translate(0.5)"/>
</clipPath>
</defs>
</svg>
