<svg width="295" height="40" viewBox="0 0 295 40" fill="none" xmlns="http://www.w3.org/2000/svg">
<g clip-path="url(#clip0_488_315)">
<mask id="mask0_488_315" style="mask-type:luminance" maskUnits="userSpaceOnUse" x="0" y="0" width="295" height="40">
<path d="M295 0H0V40H295V0Z" fill="white"/>
</mask>
<g mask="url(#mask0_488_315)">
<path fill-rule="evenodd" clip-rule="evenodd" d="M243.2 31.142V17.6091C243.2 14.363 242.268 12.1443 240.769 10.7157C239.27 9.28708 237.1 8.33333 233.947 8.33333C228.384 8.33333 225.189 11.7637 225.323 16.0126L229.593 15.9881C229.656 13.532 231.121 12.1116 234.085 12.1116C237.049 12.1116 238.876 13.6384 238.88 17.3962C238.88 17.3962 234.568 17.3225 231.441 18.0634C226.826 19.1522 224.307 21.4446 224.307 25.186C224.307 28.9274 227.141 31.6618 231.658 31.6618C233.057 31.7057 234.447 31.4495 235.732 30.9112C237.017 30.3728 238.164 29.5657 239.094 28.5467C239.183 29.4216 239.323 30.2907 239.514 31.1502H243.196L243.2 31.142ZM238.838 20.7323V21.8498C238.838 25.8287 235.118 27.9368 232.507 27.9368C230.135 27.9368 228.85 26.762 228.85 25.0222C228.85 23.4667 230.08 21.9849 233.229 21.2317C235.072 20.8506 236.955 20.683 238.838 20.7323ZM62.9194 19.5774C65.2747 19.5774 67.2311 18.6564 67.9575 18.0219V8.86083H72.286V31.1168H67.9659V22.1522C66.3225 23.1255 64.4305 23.6264 62.5079 23.5972C60.8698 23.6523 59.2497 23.2489 57.8393 22.4347C55.6687 21.0633 54.4092 19.1107 54.4092 16.0857V8.86083H58.7209V15.0992C58.7209 16.7857 58.9603 17.9114 59.9805 18.7301C60.669 19.2867 61.6221 19.5774 62.9194 19.5774ZM202.501 27.093C203.382 26.7041 204.104 25.9877 204.579 23.9001L204.591 23.9082C205.373 20.478 205.595 14.3992 205.742 8.86083H220.911V31.1455H216.557V12.8192H209.818C209.566 18.7301 209.239 22.3282 208.609 25.1486C207.979 27.969 206.8 29.3239 205.46 30.2162C204.239 31.0227 202.463 31.3583 200.595 31.3337C200.552 29.2133 200.532 27.4572 200.532 27.4572C201.206 27.4632 201.875 27.3394 202.501 27.093ZM138.065 8.85758H142.473V31.1177H138.065V8.85758ZM116.375 8.85758H98.1925V12.8118H105.082V31.1177H105.119H109.453H109.49V12.8118H116.375V8.85758ZM251.995 31.1292H247.667V8.85266H266.257V31.1292H261.929V12.7947H251.995V31.1292ZM128.338 16.0816H123.279V8.86083H118.95V31.1168H128.338C132.573 31.1168 135.819 27.6374 135.819 23.5398C135.834 21.585 135.057 19.7034 133.655 18.3055C132.253 16.9075 130.342 16.1067 128.338 16.0775V16.0816ZM127.745 27.1175H123.279V20.04H127.745C128.686 20.0712 129.579 20.4577 130.234 21.1179C130.887 21.7782 131.254 22.6605 131.254 23.5787C131.254 24.497 130.887 25.3793 130.234 26.0396C129.579 26.6998 128.686 27.0863 127.745 27.1175ZM290.592 8.85758H295V31.1177H290.592V8.85758ZM280.867 16.0816H275.809V8.86083H271.48V31.1168H280.867C285.103 31.1168 288.349 27.6374 288.349 23.5398C288.365 21.585 287.587 19.7034 286.186 18.3055C284.784 16.9075 282.873 16.1067 280.867 16.0775V16.0816ZM280.288 27.1298H275.809V20.04H280.288C281.229 20.0712 282.121 20.4577 282.776 21.1179C283.43 21.7782 283.796 22.6605 283.796 23.5787C283.796 24.497 283.43 25.3793 282.776 26.0396C282.121 26.6998 281.229 27.0863 280.288 27.1175V27.1298ZM149.491 8.85966H156.687V8.8515C157.828 8.82691 158.962 9.02466 160.023 9.43308C161.084 9.84158 162.05 10.4527 162.865 11.2303C163.682 12.008 164.329 12.9367 164.771 13.9617C165.214 14.9869 165.441 16.0879 165.441 17.2001C165.441 18.3122 165.214 19.4132 164.771 20.4384C164.329 21.4635 163.682 22.3922 162.865 23.1698C162.05 23.9475 161.084 24.5586 160.023 24.9671C158.962 25.3755 157.828 25.5732 156.687 25.5487H151.897V31.1198H147.569V8.85966H149.491ZM151.901 21.5493H156.519C157.665 21.4846 158.741 20.9939 159.526 20.1784C160.312 19.363 160.746 18.2849 160.74 17.1664C160.734 16.048 160.288 14.9743 159.495 14.1668C158.701 13.3593 157.619 12.8795 156.473 12.8262H151.901V21.5493ZM178.43 8.45158C176.982 8.41591 175.542 8.66133 174.193 9.17366C172.843 9.68599 171.612 10.4549 170.57 11.4357C168.396 13.5275 167.052 16.3478 167.052 19.9951C167.052 26.7575 171.939 31.5427 178.597 31.5427C180.39 31.5459 182.159 31.1404 183.763 30.3586C185.367 29.5768 186.761 28.4403 187.834 27.0399L184.417 24.5838C183.762 25.4962 182.893 26.2428 181.882 26.7612C180.872 27.2796 179.748 27.5548 178.606 27.5639C174.928 27.5639 172.078 24.9318 171.779 22.0582H189.778C189.787 21.9027 189.796 21.7515 189.807 21.6012C189.835 21.1773 189.862 20.7598 189.862 20.2735C189.862 17.1502 188.909 14.076 186.806 11.8573C184.622 9.55683 181.599 8.48841 178.438 8.468L178.43 8.45158ZM171.721 18.0794C171.817 16.5607 173.921 12.5041 178.438 12.5041C180.077 12.4624 181.674 13.0062 182.93 14.0331C184.185 15.06 185.013 16.4991 185.257 18.0794H171.721ZM82.8451 9.17366C84.1944 8.66133 85.635 8.41591 87.0819 8.45158L87.0947 8.468C90.2564 8.48841 93.2837 9.55683 95.4669 11.8573C97.5659 14.076 98.5189 17.1502 98.5189 20.2735C98.5189 20.7357 98.4943 21.1355 98.4687 21.5378C98.4585 21.7092 98.4475 21.8809 98.439 22.0582H80.4363C80.7343 24.9318 83.585 27.5639 87.2673 27.5639C88.409 27.5538 89.532 27.2782 90.5429 26.7598C91.5528 26.2416 92.4225 25.4956 93.078 24.5838L96.4913 27.0399C95.4184 28.4406 94.0242 29.5772 92.42 30.3591C90.8166 31.1408 89.0475 31.5462 87.2545 31.5427C80.5916 31.5427 75.7046 26.7575 75.7046 19.9951C75.7046 16.3478 77.0523 13.5275 79.2228 11.4357C80.2644 10.4549 81.4957 9.68599 82.8451 9.17366ZM87.0947 12.5041C82.5774 12.5041 80.474 16.5607 80.3774 18.0794H93.9128C93.6697 16.4991 92.8425 15.06 91.5868 14.0331C90.3312 13.0062 88.7337 12.4624 87.0947 12.5041Z" fill="#919090"/>
<path d="M40.8068 0H20.4033V40H40.8068V0Z" fill="#919090"/>
<path d="M20.4035 0H0V40H20.4035V0Z" fill="#D4D4D4"/>
<g clip-path="url(#clip1_488_315)">
<path d="M26.7122 23.4122C26.6795 23.3939 26.6557 23.3638 26.6459 23.3283C26.6359 23.2928 26.6409 23.2548 26.6595 23.2229C26.6781 23.191 26.709 23.1676 26.7451 23.1579C26.7813 23.1482 26.82 23.153 26.8525 23.1713C28.6303 23.9543 30.3451 24.868 31.9822 25.9045C32.0763 25.9619 32.1819 25.9987 32.2919 26.0123C32.4018 26.0258 32.5134 26.0159 32.6191 25.9832C32.855 25.9038 33.0753 25.7858 33.271 25.6341C33.5047 25.4557 33.6863 25.22 33.7975 24.9508C33.8459 24.822 33.858 24.6828 33.8324 24.5478C33.8068 24.4128 33.7445 24.2871 33.652 24.1839C32.1478 22.4782 30.142 21.3623 28.5424 20.4479C28.3866 20.3811 28.2553 20.2692 28.1659 20.1274C28.0765 19.9856 28.0333 19.8204 28.042 19.6539C28.0507 19.4873 28.1109 19.3274 28.2146 19.1953C28.3184 19.0632 28.4607 18.9651 28.6226 18.9142C29.0338 18.7766 30.0216 18.634 31.1699 18.4226C33.5267 17.99 34.2939 16.299 34.2738 14.0721C34.2661 13.9217 34.1979 13.7804 34.0842 13.6791C33.9705 13.5778 33.8206 13.5247 33.667 13.5314C32.4887 13.5314 31.4307 13.6641 30.5381 13.61C29.2946 13.5314 28.743 13.2069 28.0711 11.7469C27.7452 10.8979 27.2529 10.1197 26.6219 9.45616C26.5679 9.4128 26.5041 9.38293 26.4357 9.36909C26.3675 9.35526 26.2967 9.35788 26.2296 9.37673C26.1626 9.39558 26.1012 9.4301 26.0507 9.47733C26.0003 9.52456 25.9623 9.58308 25.9399 9.64787C25.8491 10.2993 25.8172 10.9573 25.8447 11.6142C25.8447 11.6142 25.1226 10.2427 24.6412 9.53481C24.5929 9.47229 24.5275 9.42438 24.4527 9.39657C24.3779 9.36876 24.2965 9.36217 24.218 9.37756C24.1396 9.39295 24.067 9.42969 24.0089 9.48358C23.9507 9.53748 23.9092 9.60634 23.889 9.68228C23.8038 10.1739 23.7888 11.2406 23.7286 12.6318C23.7167 13.7411 23.5237 14.8414 23.157 15.891C22.9633 16.4863 22.5978 17.0138 22.1049 17.4099C21.6119 17.8059 21.0125 18.0535 20.379 18.1228C18.6426 18.3378 16.8824 18.2813 15.1641 17.9556C14.2532 17.6868 13.4102 17.2332 12.6897 16.6243C11.9692 16.0154 11.3874 15.2648 10.9821 14.4211C10.9662 14.3644 10.9306 14.3149 10.8813 14.2813C10.832 14.2478 10.7722 14.2323 10.7125 14.2376C10.6527 14.2428 10.5967 14.2685 10.5544 14.3102C10.512 14.3518 10.4859 14.4068 10.4806 14.4654C10.0945 15.7386 10.4806 17.7393 11.5938 19.0863C10.0895 20.1727 6.4892 22.6895 5.16541 25.5162C5.11807 25.6182 5.09611 25.7298 5.10134 25.8417C5.10657 25.9537 5.13884 26.0627 5.1955 26.1601C5.3317 26.397 5.51655 26.6037 5.73837 26.7669C5.96018 26.9303 6.21414 27.0467 6.4842 27.1088C6.58858 27.1296 6.69637 27.1271 6.79963 27.1016C6.90291 27.0761 6.99902 27.0282 7.0809 26.9614C8.74567 25.5898 11.1526 23.6628 12.356 23.2401C12.3886 23.2218 12.4272 23.217 12.4634 23.2268C12.4997 23.2364 12.5304 23.2598 12.5491 23.2918C12.5677 23.3237 12.5726 23.3616 12.5627 23.3971C12.5528 23.4325 12.529 23.4628 12.4964 23.481C10.347 24.9213 8.56444 26.8269 7.28649 29.0506C7.23067 29.1475 7.19927 29.256 7.19492 29.3672C7.19055 29.4783 7.21336 29.5889 7.26142 29.6897C7.38737 29.9448 7.57712 30.1647 7.813 30.3288C7.98853 30.4619 8.17857 30.5757 8.37963 30.6679C8.51497 30.7261 8.66487 30.7435 8.81035 30.7182C8.95584 30.6928 9.09038 30.6257 9.19696 30.5253C10.9821 28.8442 12.1655 27.6889 14.7529 26.5287C17.45 25.5495 20.3853 25.3885 23.177 26.0667C25.7544 26.7254 27.6047 27.7774 30.3676 29.8175C30.46 29.8863 30.5674 29.9331 30.6813 29.9544C30.7953 29.9757 30.9127 29.9709 31.0245 29.9403C31.3183 29.8663 31.5899 29.7248 31.8168 29.5274C31.9804 29.3701 32.1191 29.1894 32.2279 28.9916C32.2934 28.8748 32.3239 28.7423 32.3159 28.6092C32.3079 28.4762 32.2618 28.348 32.1829 28.2395C30.6785 26.1011 28.1714 24.3068 26.7122 23.4122Z" fill="black"/>
</g>
</g>
</g>
<defs>
<clipPath id="clip0_488_315">
<rect width="295" height="40" fill="white"/>
</clipPath>
<clipPath id="clip1_488_315">
<rect width="29.755" height="21.6667" fill="white" transform="translate(5.10059 9.16667)"/>
</clipPath>
</defs>
</svg>
