<svg width="213" height="40" viewBox="0 0 213 40" fill="none" xmlns="http://www.w3.org/2000/svg">
<g clip-path="url(#clip0_488_341)">
<path d="M116.595 21.4C115.687 19.9 113.97 19.2 112.254 18.7C111.144 18.4 109.932 18.1 108.721 17.7C107.913 17.4 107.207 17 106.702 16.4C105.995 15.4 106.096 13.9 106.702 12.9C107.106 12.2 107.812 11.7 108.519 11.4C109.529 11 110.639 11 111.75 11.1C112.961 11.2 114.172 11.5 115.384 11.9L115.99 10.4C115.586 10.2 115.081 10.1 114.677 9.89999C113.769 9.59999 112.86 9.49999 111.85 9.39999C110.74 9.29999 109.63 9.39999 108.519 9.59999C107.106 9.99999 105.995 10.7 105.188 11.8C104.582 12.8 104.279 14.1 104.481 15.3C104.784 17.5 106.5 18.6 108.62 19.3C109.73 19.7 110.942 19.9 112.052 20.3C112.86 20.6 113.769 20.9 114.374 21.4C115.081 22 115.384 22.7 115.485 23.6V24.2C115.384 25.7 114.677 26.7 113.365 27.2C112.456 27.6 111.346 27.7 110.336 27.7C109.024 27.7 107.812 27.5 106.601 27.1C105.894 26.9 105.289 26.6 104.683 26.3L103.976 27.7C105.995 28.8 108.216 29.2 110.538 29.2C111.548 29.2 112.658 29.1 113.668 28.7C115.586 28 116.898 26.7 117.302 24.7C117.302 23.8 117.201 22.4 116.595 21.4ZM31.4924 18.2H21.7V9.69999H19.9838V29.2H21.7V19.7H31.4924V29.2H33.2086V9.69999H31.4924V18.2ZM0.5 11.3H6.75905V29.3H8.47524V11.3H14.7343V9.69999H0.5V11.3ZM70.2581 25.6L62.9895 9.69999H61.1724V29.2H62.8886V13.5L69.4505 27.6H71.1667L77.7286 13.5V29.3H79.4448V9.69999H77.6276L70.2581 25.6ZM91.5591 9.69999L85.0981 29.2H86.9152L92.5686 11.8L96.001 22.4H91.66L91.0543 24H96.4048L98.2219 29.3H100.039L93.5781 9.69999H91.5591ZM52.3895 11.3C50.6733 9.69999 48.7552 9.39999 47.14 9.39999C45.4238 9.39999 43.6067 9.69999 41.8905 11.3C39.7705 13.2 39.1648 16.7 39.1648 19.5C39.1648 22.3 39.7705 25.8 41.8905 27.7C43.6067 29.3 45.5248 29.6 47.14 29.6C48.8562 29.6 50.6733 29.3 52.3895 27.7C54.5095 25.8 55.1152 22.3 55.1152 19.5C55.1152 16.7 54.4086 13.2 52.3895 11.3ZM51.1781 26.4C49.8657 27.7 48.3514 28 47.039 28C45.7267 28 44.2124 27.7 42.9 26.4C41.4867 25.1 40.6791 22.3 40.6791 19.5C40.6791 16.6 41.4867 13.8 42.9 12.6C44.2124 11.3 45.7267 11 47.039 11C48.3514 11 49.8657 11.3 51.1781 12.6C52.5914 13.9 53.3991 16.7 53.3991 19.5C53.3991 22.3 52.5914 25.1 51.1781 26.4Z" fill="#767676"/>
<path d="M187.968 24.3H187.867L178.277 9.7H174.945V29.3H178.075V14.4H178.277L187.867 29.3H191.098V9.7H187.968V24.3ZM165.052 22.3C165.052 24 164.648 25.2 163.841 26C163.033 26.8 161.922 27.2 160.408 27.2C158.894 27.2 157.682 26.8 156.976 26C156.168 25.2 155.764 24 155.764 22.3V9.7H152.534V22.2C152.534 23.3 152.736 24.3 153.039 25.3C153.341 26.2 153.846 27 154.452 27.6C155.058 28.2 155.865 28.7 156.875 29C157.884 29.3 159.096 29.5 160.509 29.5C161.922 29.5 163.033 29.3 164.042 29C165.052 28.6 165.86 28.2 166.465 27.5C167.172 26.9 167.576 26.1 167.98 25.2C168.282 24.3 168.484 23.3 168.484 22.2V9.7H165.052V22.3ZM152.332 0V2.8C156.774 2.8 157.582 3.2 160.105 4.6C162.023 5.7 163.336 6.2 168.181 6.2V3.4C163.336 3.4 162.73 2.9 160.812 1.8C158.389 0.4 156.875 0 152.332 0ZM135.372 24H135.17L129.113 9.7H125.176V29.3H128.305V14.8H128.406L133.959 27.3H136.684L142.237 14.8H142.338V29.3H145.467V9.7H141.732L135.372 24ZM201.597 26.8L201.496 26.7L211.995 11.7V9.7H198.063V12.2H207.755V12.4L197.357 27.4V29.3H212.5V26.8H201.597Z" fill="#919090"/>
</g>
<defs>
<clipPath id="clip0_488_341">
<rect width="212" height="40" fill="white" transform="translate(0.5)"/>
</clipPath>
</defs>
</svg>
