<svg width="15" height="15" viewBox="0 0 15 15" fill="none" xmlns="http://www.w3.org/2000/svg">
<path d="M10.194 9.96617L10.5651 9.57554C11.078 9.03549 11.8775 8.92454 12.5338 9.3023L14.0902 10.1982C15.0898 10.7735 15.31 12.1835 14.5289 13.0059L13.3715 14.2243C13.0773 14.5341 12.7121 14.7605 12.2923 14.802C10.9648 14.933 7.71855 14.7882 4.25886 11.1458C0.996396 7.711 0.411733 4.76716 0.33829 3.3989C0.309581 2.86408 0.546308 2.38197 0.899565 2.01005L2.17827 0.66381C2.89071 -0.086249 4.09179 0.0298823 4.71337 0.909001L5.74065 2.36196C6.24286 3.07224 6.1886 4.04518 5.61297 4.65119L5.37931 4.89719C5.37931 4.89719 4.49736 5.82572 6.9047 8.36021C9.31204 10.8947 10.194 9.96617 10.194 9.96617Z" fill="#EF0206"/>
</svg>
