<svg width="60" height="60" viewBox="0 0 60 60" fill="none" xmlns="http://www.w3.org/2000/svg">
<g clip-path="url(#clip0_422_1398)">
<path d="M36.4676 12.6501C36.921 12.823 37.429 12.5952 37.6019 12.1415L38.077 10.8941H41.3196L41.7895 12.139C41.9222 12.4909 42.2567 12.7078 42.6119 12.7078C42.715 12.7078 42.8199 12.6896 42.9221 12.651C43.3762 12.4797 43.6054 11.9726 43.434 11.5184L40.686 4.23641C40.6829 4.22832 40.6797 4.22012 40.6764 4.21204C40.5142 3.81839 40.1346 3.56421 39.7089 3.56421H39.7076C39.2814 3.56479 38.9018 3.82003 38.7404 4.21438C38.7377 4.22106 38.735 4.22762 38.7326 4.2343L35.9593 11.5159C35.7863 11.9695 36.0141 12.4773 36.4676 12.6501ZM39.7057 6.61783L40.6561 9.13636H38.7464L39.7057 6.61783Z" fill="#EF0206"/>
<path d="M46.1765 14.7764H36.711C36.2254 14.7764 35.832 15.1698 35.832 15.6553C35.832 16.1408 36.2254 16.5342 36.711 16.5342H46.1765C46.662 16.5342 47.0554 16.1408 47.0554 15.6553C47.0554 15.1698 46.662 14.7764 46.1765 14.7764Z" fill="#EF0206"/>
<path d="M11.7356 11.7639H8.20215C7.71664 11.7639 7.32324 12.1573 7.32324 12.6428C7.32324 13.1283 7.71664 13.5217 8.20215 13.5217H11.7355C12.221 13.5217 12.6144 13.1283 12.6144 12.6428C12.6144 12.1573 12.221 11.7639 11.7356 11.7639Z" fill="#EF0206"/>
<path d="M51.4114 37H47.8779C47.3924 37 46.999 37.3934 46.999 37.8789C46.999 38.3644 47.3924 38.7578 47.8779 38.7578H51.4112C51.8968 38.7578 52.2902 38.3644 52.2902 37.8789C52.2902 37.3934 51.8968 37 51.4114 37Z" fill="#EF0206"/>
<path d="M11.7356 15.1265H8.20215C7.71664 15.1265 7.32324 15.5199 7.32324 16.0054C7.32324 16.4909 7.71664 16.8843 8.20215 16.8843H11.7355C12.221 16.8843 12.6144 16.4909 12.6144 16.0054C12.6144 15.5199 12.221 15.1265 11.7356 15.1265Z" fill="#EF0206"/>
<path d="M51.4114 40.3625H47.8779C47.3924 40.3625 46.999 40.7559 46.999 41.2415C46.999 41.727 47.3924 42.1204 47.8779 42.1204H51.4112C51.8968 42.1204 52.2902 41.727 52.2902 41.2415C52.2902 40.7559 51.8968 40.3625 51.4114 40.3625Z" fill="#EF0206"/>
<path d="M27.403 5.59816C27.403 5.11265 27.0096 4.71924 26.5241 4.71924H14.7578C14.2723 4.71924 13.8789 5.11265 13.8789 5.59816C13.8789 6.08368 14.2723 6.47709 14.7578 6.47709H26.5241C27.0096 6.47709 27.403 6.08368 27.403 5.59816Z" fill="#EF0206"/>
<path fill-rule="evenodd" clip-rule="evenodd" d="M56.7273 18.7734C56.7273 19.5608 56.0866 20.2015 55.2992 20.2015L44.0912 20.2013V24.7006H42.3331V20.2013H17.6666V24.7006L15.9088 24.7008V20.2016H4.70054C3.91314 20.2016 3.27246 19.5609 3.27246 18.7735V1.46136C3.27246 0.655561 3.92802 0 4.7337 0H55.2659C56.0717 0 56.7273 0.655561 56.7273 1.46136V18.7734ZM15.9088 44.9021V51.6026C15.9088 52.0882 16.3022 52.4816 16.7878 52.4816C17.2733 52.4816 17.6667 52.0882 17.6667 51.6026V44.9021H15.9088ZM42.3332 44.9021V58.2423H17.6666V55.0011C17.6666 54.5156 17.2732 54.1222 16.7876 54.1222C16.3021 54.1222 15.9087 54.5156 15.9087 55.0011V59.1212C15.9087 59.6067 16.3021 60.0001 16.7876 60.0001H43.212C43.6975 60.0001 44.0909 59.6067 44.0909 59.1212V44.9019L42.3332 44.9021ZM5.48946 27.5433L5.48826 27.5432L5.48946 27.5433ZM5.40215 4.59842C5.2825 4.59256 5.15863 4.58635 5.03031 4.57697V18.4436H24.0429C23.8368 17.861 23.6422 17.416 22.9414 16.8913C22.1822 16.323 21.6798 16.298 20.9844 16.2634L20.9819 16.2633C20.5127 16.2397 19.9811 16.2131 19.3738 16.0023C18.9151 15.8432 18.6724 15.3424 18.8314 14.8838C18.9905 14.4252 19.4914 14.1821 19.9499 14.3415C20.3203 14.4701 20.6678 14.4874 21.0698 14.5076L21.0719 14.5077C21.8444 14.5461 22.8058 14.5939 23.9948 15.4841C25.1838 16.3741 25.5005 17.2833 25.7548 18.0137C25.8077 18.1656 25.8573 18.3077 25.9117 18.4436H54.9696V1.75785H5.03043V2.81315C5.17743 2.8273 5.32828 2.83479 5.48822 2.84275L5.48923 2.8428C6.26174 2.88112 7.22341 2.9287 8.41242 3.81899C9.60143 4.70905 9.91795 5.61821 10.1723 6.34854C10.401 7.00585 10.5662 7.48071 11.3254 8.04896C12.0841 8.61698 12.5861 8.64183 13.2812 8.67605C14.0535 8.71425 15.0149 8.76159 16.2039 9.65177C17.3932 10.5418 17.7095 11.4511 17.9638 12.1816L17.9667 12.1901C17.9915 12.2613 18.0163 12.3327 18.0422 12.4041C18.2069 12.8607 17.9703 13.3645 17.5137 13.5292C17.4152 13.5647 17.3145 13.5816 17.2154 13.5816C16.8555 13.5816 16.5179 13.359 16.3886 13.0008C16.3595 12.9203 16.3314 12.8398 16.3034 12.7593C16.0748 12.1019 15.9094 11.6271 15.1504 11.059C14.3916 10.4907 13.8894 10.466 13.1944 10.4317C12.4221 10.3936 11.4608 10.3461 10.2719 9.45606C9.08274 8.56589 8.76621 7.65684 8.51191 6.9264C8.28315 6.26908 8.11792 5.79434 7.35888 5.22609C6.59972 4.65783 6.09744 4.63287 5.40215 4.59842Z" fill="#EF0206"/>
<path d="M31.7375 49.8997C32.223 49.8997 32.6164 49.5063 32.6164 49.0208C32.6164 48.5352 32.223 48.1418 31.7375 48.1418H28.2617C27.7762 48.1418 27.3828 48.5352 27.3828 49.0208C27.3828 49.5063 27.7762 49.8997 28.2617 49.8997H31.7375Z" fill="#EF0206"/>
<path fill-rule="evenodd" clip-rule="evenodd" d="M43.8168 24.0002H54.9919C55.7976 24.0002 56.4531 24.6817 56.4531 25.5192V43.5155C56.4531 44.334 55.8124 45 55.025 45H43.8168H42.0589H17.3924L15.6347 44.9999H14.9531H11.7215C11.2359 44.9999 10.8425 44.5909 10.8425 44.0862C10.8425 43.5815 11.2359 43.1725 11.7215 43.1725H33.8139C33.8684 43.0312 33.9178 42.8836 33.9707 42.7257C34.2251 41.9664 34.5416 41.0213 35.7308 40.096C36.9197 39.1708 37.881 39.1215 38.6534 39.0819C39.3484 39.0463 39.8505 39.0205 40.6093 38.43C41.3681 37.8394 41.5334 37.3459 41.7621 36.6626C42.0164 35.9033 42.3327 34.9583 43.5217 34.0331C44.7107 33.1078 45.672 33.0585 46.4444 33.0189C47.1394 32.9832 47.6415 32.9575 48.4003 32.3669C49.1593 31.7762 49.3246 31.2827 49.5533 30.5994C49.8076 29.84 50.1242 28.8949 51.3132 27.9697C52.5022 27.0443 53.4637 26.9949 54.2361 26.955C54.3966 26.9468 54.5478 26.939 54.6952 26.9242V25.8272H4.75603V43.1724H8.32283C8.80835 43.1724 9.20176 43.5814 9.20176 44.0861C9.20176 44.5908 8.80835 44.9998 8.32283 44.9998H4.42627C3.63887 44.9998 2.99819 44.3338 2.99819 43.5152V25.519C2.99819 24.6815 3.65374 24 4.45943 24H15.6344H17.3925H42.059L43.8168 24.0002ZM52.3667 29.4327C53.1257 28.8421 53.628 28.8161 54.3233 28.7803C54.443 28.7741 54.567 28.7676 54.6953 28.7579V43.1727H35.6828C35.8887 42.5671 36.0834 42.1044 36.7842 41.559C37.543 40.9685 38.045 40.9427 38.7401 40.9071C39.5125 40.8675 40.4738 40.8182 41.6627 39.893C42.8518 38.9677 43.1681 38.0227 43.4224 37.2634C43.6511 36.5801 43.8164 36.0866 44.5752 35.496C45.334 34.9054 45.8361 34.8797 46.5311 34.844C47.3035 34.8044 48.2648 34.7551 49.4538 33.8299C50.6428 32.9046 50.9594 31.9595 51.2137 31.2002C51.4424 30.5169 51.6077 30.0234 52.3667 29.4327Z" fill="#EF0206"/>
<path d="M16.8861 37.0721C17.0574 37.5441 17.5647 37.7827 18.0187 37.6042C18.4728 37.4261 18.7021 36.899 18.5306 36.4268L15.7826 28.857C15.7797 28.8487 15.7764 28.8402 15.7731 28.8319C15.611 28.4226 15.2313 28.1582 14.8055 28.1582H14.8042C14.3779 28.1587 13.9982 28.4241 13.8369 28.8343C13.8343 28.8411 13.8316 28.848 13.8292 28.8548L11.0559 36.4242C10.883 36.8958 11.1108 37.4237 11.5644 37.6033C11.6674 37.6442 11.7731 37.6634 11.8771 37.6634C12.2312 37.6634 12.565 37.4392 12.6986 37.0748L13.1737 35.778H16.4163L16.8861 37.0721ZM13.8431 33.9506L14.8023 31.3325L15.7527 33.9506H13.8431Z" fill="#EF0206"/>
<path d="M11.8067 41.6408H26.2722C26.7577 41.6408 27.1511 41.2319 27.1511 40.7271C27.1511 40.2224 26.7577 39.8135 26.2722 39.8135H11.8067C11.3211 39.8135 10.9277 40.2224 10.9277 40.7271C10.9277 41.2319 11.3211 41.6408 11.8067 41.6408Z" fill="#EF0206"/>
</g>
<defs>
<clipPath id="clip0_422_1398">
<rect width="60" height="60" fill="white"/>
</clipPath>
</defs>
</svg>
