<svg width="60" height="60" viewBox="0 0 60 60" fill="none" xmlns="http://www.w3.org/2000/svg">
<g clip-path="url(#clip0_518_3110)">
<path d="M7.88801 58.2422H1.75781V1.75781H39.1066V2.91914C39.1066 3.40465 39.5002 3.79805 39.9855 3.79805C40.4709 3.79805 40.8645 3.40465 40.8645 2.91914V0.878906C40.8645 0.393398 40.4709 0 39.9855 0H0.878906C0.393516 0 0 0.393398 0 0.878906V59.1211C0 59.6066 0.393516 60 0.878906 60H7.88801C8.3734 60 8.76691 59.6066 8.76691 59.1211C8.76691 58.6356 8.3734 58.2422 7.88801 58.2422Z" fill="#EF0206"/>
<path d="M39.9854 55.4834C39.5 55.4834 39.1064 55.8768 39.1064 56.3623V58.2421H11.9893C11.5039 58.2421 11.1104 58.6355 11.1104 59.121C11.1104 59.6065 11.5039 59.9999 11.9893 59.9999H39.9854C40.4707 59.9999 40.8643 59.6065 40.8643 59.121V56.3623C40.8643 55.8768 40.4709 55.4834 39.9854 55.4834Z" fill="#EF0206"/>
<path d="M51.2735 29.9907C50.2531 29.9907 49.2751 30.1751 48.3703 30.5114L44.2658 26.2497C44.3069 25.8759 44.3149 25.4846 44.2855 25.1075L48.5918 20.8012C49.537 21.1728 50.5646 21.3792 51.6402 21.3792C56.2497 21.3792 59.9998 17.6291 59.9998 13.0195C59.9998 8.41003 56.2497 4.65991 51.6402 4.65991C47.0307 4.65991 43.2806 8.41003 43.2806 13.0195C43.2806 14.1077 43.4919 15.147 43.8718 16.1014L40.3225 19.6507C39.95 19.4988 39.5602 19.3809 39.1566 19.3014L37.7388 16.0471C37.4989 15.4965 37.227 14.9576 36.9286 14.4379L40.6148 10.6542C40.7752 10.4898 40.8669 10.2616 40.8645 10.0319V7.02065C40.8645 6.53515 40.471 6.14175 39.9856 6.14175C39.5002 6.14175 39.1067 6.53515 39.1067 7.02065V9.4612L25.5447 15.2762C25.0986 15.4675 24.892 15.9842 25.0832 16.4303C25.2261 16.7636 25.5505 16.9632 25.8914 16.9632C26.0069 16.9632 26.1243 16.9403 26.2373 16.8919L36.2782 12.5868L16.5598 32.8267V21.0412L22.4646 18.5095C22.9107 18.3181 23.1173 17.8014 22.9261 17.3553C22.7347 16.9091 22.2179 16.7026 21.7719 16.8938L15.3346 19.6539C15.0116 19.7926 14.8021 20.1103 14.8021 20.4618V34.1096H7.70117C7.21578 34.1096 6.82227 34.503 6.82227 34.9885C6.82227 35.474 7.21578 35.8674 7.70117 35.8674H15.6809H22.1304L16.677 41.3207C16.4686 41.5292 16.3786 41.8283 16.4371 42.1171C16.4957 42.406 16.6953 42.6462 16.9685 42.7569C18.9593 43.5634 21.0168 43.9464 23.0407 43.9464C28.6865 43.9464 34.0665 40.9623 36.9951 35.8674H39.1064V52.2609C39.1064 52.7464 39.4999 53.1398 39.9853 53.1398C40.4707 53.1398 40.8642 52.7464 40.8642 52.2609V34.9884C40.8642 34.5029 40.4707 34.1095 39.9853 34.1095H37.8798L38.9077 31.866C39.3279 31.8007 39.7346 31.6942 40.1236 31.5508L43.5629 35.1217C43.1451 36.1156 42.9138 37.2063 42.9138 38.3503C42.9138 42.9598 46.6639 46.71 51.2735 46.71C55.8829 46.71 59.633 42.9598 59.633 38.3503C59.6332 33.7408 55.883 29.9907 51.2735 29.9907ZM51.6402 6.41784C55.2805 6.41784 58.242 9.37929 58.242 13.0196C58.242 16.6599 55.2805 19.6215 51.6402 19.6215C48 19.6215 45.0384 16.6599 45.0384 13.0196C45.0384 9.37929 48 6.41784 51.6402 6.41784ZM44.7346 17.7247C45.331 18.5971 46.0875 19.3517 46.9625 19.9447L43.8085 23.0987C43.3898 22.1019 42.7243 21.2341 41.8899 20.5695L44.7346 17.7247ZM37.9225 30.1845C35.3735 30.1845 33.2995 28.1107 33.2995 25.5616C33.2995 23.0124 35.3734 20.9385 37.9225 20.9385C40.4717 20.9385 42.5456 23.0124 42.5456 25.5616C42.5457 28.1107 40.4717 30.1845 37.9225 30.1845ZM32.4286 19.0571L33.9259 20.5926C33.2975 21.0991 32.7673 21.7218 32.3674 22.4282L30.7652 20.7646L32.4286 19.0571ZM36.1272 16.7496L37.2045 19.2222C36.6001 19.2903 36.0209 19.4425 35.4793 19.6679L33.6556 17.7976L35.6471 15.7533C35.8195 16.079 35.98 16.4117 36.1272 16.7496ZM17.7643 34.1095L29.5379 22.0243L31.6787 24.247C31.5895 24.6714 31.5418 25.1109 31.5418 25.5615C31.5418 25.8455 31.5624 26.1248 31.5985 26.3991L23.8883 34.1094H17.7643V34.1095ZM32.1677 28.3161C32.4827 28.9714 32.9061 29.5651 33.4149 30.0734L21.3207 42.02C21.3023 42.0382 21.2854 42.0571 21.269 42.0765C20.4791 41.9779 19.689 41.8132 18.9061 41.5777L32.1677 28.3161ZM23.6671 42.173L34.8339 31.1425C35.4856 31.5046 36.2066 31.7564 36.9719 31.8712L36.091 33.7937C33.7708 38.8572 28.8912 41.943 23.6671 42.173ZM41.7267 30.681C42.5819 30.0439 43.2713 29.1973 43.7216 28.2187L46.7278 31.34C45.8411 31.9169 45.0707 32.6568 44.4586 33.5177L41.7267 30.681ZM51.2736 44.9521C47.6333 44.9521 44.6717 41.9906 44.6717 38.3503C44.6717 34.71 47.6333 31.7485 51.2735 31.7485C54.9138 31.7485 57.8754 34.71 57.8754 38.3503C57.8754 41.9906 54.9138 44.9521 51.2736 44.9521Z" fill="#EF0206"/>
<path d="M51.2737 33.4429C48.5677 33.4429 46.3662 35.6444 46.3662 38.3503C46.3662 41.0564 48.5678 43.2579 51.2737 43.2579C53.9795 43.2578 56.181 41.0563 56.181 38.3503C56.181 35.6444 53.9795 33.4429 51.2737 33.4429ZM51.2737 41.5001C49.537 41.5001 48.1241 40.0871 48.124 38.3503C48.124 36.6136 49.537 35.2007 51.2737 35.2007C53.0104 35.2007 54.4232 36.6136 54.4232 38.3503C54.4232 40.0869 53.0103 41.5 51.2737 41.5001Z" fill="#EF0206"/>
<path d="M51.6408 17.8644C54.3122 17.8644 56.4857 15.691 56.4857 13.0194C56.4857 10.3479 54.3123 8.17456 51.6408 8.17456C48.9693 8.17456 46.7959 10.3479 46.7959 13.0194C46.7959 15.691 48.9693 17.8644 51.6408 17.8644ZM51.6408 9.93249C53.3429 9.93249 54.7279 11.3173 54.7279 13.0196C54.7279 14.7218 53.343 16.1067 51.6408 16.1067C49.9385 16.1067 48.5537 14.7219 48.5537 13.0196C48.5537 11.3173 49.9385 9.93249 51.6408 9.93249Z" fill="#EF0206"/>
<path d="M37.9223 22.5037C36.2361 22.5037 34.8643 23.8755 34.8643 25.5617C34.8643 27.2479 36.2361 28.6197 37.9223 28.6197C39.6085 28.6197 40.9803 27.2479 40.9803 25.5617C40.9803 23.8755 39.6085 22.5037 37.9223 22.5037ZM37.9223 26.8619C37.2053 26.8619 36.6221 26.2785 36.6221 25.5617C36.6221 24.8448 37.2053 24.2615 37.9223 24.2615C38.6392 24.2615 39.2225 24.8448 39.2225 25.5617C39.2225 26.2785 38.6392 26.8619 37.9223 26.8619Z" fill="#EF0206"/>
<path d="M8.42028 4.5934C8.41755 4.58635 8.41449 4.5791 8.41143 4.57205C8.26072 4.22441 7.90764 4 7.51174 4H7.51043C7.114 4.00052 6.76102 4.22586 6.61107 4.57402C6.60867 4.57982 6.60616 4.58563 6.60387 4.59143L4.05389 10.9457C3.8928 11.3469 4.1051 11.796 4.52775 11.9489C4.62375 11.9836 4.72226 12 4.81924 12C5.14917 12 5.46031 11.8093 5.58481 11.4992L6.01893 10.4172H8.98512L9.41443 11.4969C9.5741 11.8985 10.0468 12.1012 10.47 11.9496C10.8932 11.7981 11.1068 11.3496 10.947 10.9478L8.42028 4.5934ZM6.64286 8.86259L7.5089 6.70457L8.36698 8.86259H6.64286Z" fill="#EF0206"/>
<path d="M8.42028 38.5934C8.41755 38.5864 8.41449 38.5791 8.41143 38.5721C8.26072 38.2244 7.90764 38 7.51174 38H7.51043C7.114 38.0005 6.76102 38.2259 6.61107 38.574C6.60867 38.5798 6.60616 38.5856 6.60387 38.5914L4.05389 44.9457C3.8928 45.3469 4.1051 45.796 4.52775 45.9489C4.62375 45.9836 4.72226 46 4.81924 46C5.14917 46 5.46031 45.8093 5.58481 45.4992L6.01893 44.4172H8.98512L9.41443 45.4969C9.5741 45.8985 10.0468 46.1012 10.47 45.9496C10.8932 45.7981 11.1068 45.3496 10.947 44.9478L8.42028 38.5934ZM6.64286 42.8626L7.5089 40.7046L8.36698 42.8626H6.64286Z" fill="#EF0206"/>
<path d="M4.87891 14C4.3934 14 4 14.3934 4 14.8789C4 15.3644 4.3934 15.7578 4.87891 15.7578H13.9927C14.4782 15.7578 14.8716 15.3644 14.8716 14.8789C14.8716 14.3934 14.4782 14 13.9927 14H4.87891Z" fill="#EF0206"/>
<path d="M4.87891 48C4.3934 48 4 48.3934 4 48.8789C4 49.3644 4.3934 49.7578 4.87891 49.7578H13.9927C14.4782 49.7578 14.8716 49.3644 14.8716 48.8789C14.8716 48.3934 14.4782 48 13.9927 48H4.87891Z" fill="#EF0206"/>
</g>
<defs>
<clipPath id="clip0_518_3110">
<rect width="60" height="60" fill="white"/>
</clipPath>
</defs>
</svg>
