<svg width="60" height="60" viewBox="0 0 60 60" fill="none" xmlns="http://www.w3.org/2000/svg">
<g clip-path="url(#clip0_518_3087)">
<path d="M47.5135 14.2083C47.999 14.2083 48.3924 13.8149 48.3924 13.3294V8.62909C48.3924 7.49142 47.7087 6.47961 46.6508 6.05116C42.4173 4.33693 38.1233 3.26605 33.8794 2.86527V1.8149C33.8794 0.814111 33.0653 0 32.0646 0H27.9353C26.9346 0 26.1204 0.814111 26.1204 1.8149V2.86527C21.877 3.26582 17.5831 4.33669 13.3492 6.05105C12.2911 6.47949 11.6074 7.4913 11.6074 8.62897V22.6821C11.6074 23.8197 12.2911 24.8315 13.3491 25.2599C15.0037 25.9299 16.6655 26.5009 18.3307 26.972V29.5881C18.3307 31.5319 19.912 33.1132 21.8558 33.1132H23.6567V49.8996C23.6567 50.3851 24.0501 50.7785 24.5356 50.7785C25.0211 50.7785 25.4145 50.3851 25.4145 49.8996V33.1134H34.5856V59.1211C34.5856 59.6066 34.979 60 35.4645 60C35.95 60 36.3434 59.6066 36.3434 59.1211V46.1074H38.3718V46.9701C38.3718 47.4556 38.7652 47.849 39.2508 47.849C39.7363 47.849 40.1297 47.4556 40.1297 46.9701V43.4867C40.1297 43.0012 39.7363 42.6078 39.2508 42.6078C38.7652 42.6078 38.3718 43.0012 38.3718 43.4867V44.3494H36.3434V33.1132H38.1443C40.0881 33.1132 41.6694 31.5319 41.6694 29.5881V26.972C43.3367 26.5002 44.9989 25.9287 46.6508 25.2599C47.7089 24.8315 48.3925 23.8197 48.3925 22.6821V16.7278C48.3925 16.2423 47.9991 15.8489 47.5136 15.8489C47.0281 15.8489 46.6347 16.2423 46.6347 16.7278V22.6821C46.6347 23.0999 46.382 23.4722 45.991 23.6307C45.0937 23.9941 44.1952 24.3267 43.2959 24.6285C42.7913 23.8408 42.1188 23.0084 40.6494 22.3568C38.9103 21.5857 37.7328 21.8121 36.6942 22.0118C35.7583 22.1919 35.0189 22.3341 33.7833 21.786C32.5478 21.2381 32.1567 20.5948 31.6617 19.7804C31.1123 18.8764 30.4897 17.852 28.7505 17.0807C27.0112 16.3096 25.8337 16.5357 24.7953 16.7357C23.8593 16.9156 23.1199 17.0578 21.8844 16.5099C21.5716 16.3711 21.3026 16.2208 21.062 16.0503C20.6658 15.7695 20.1172 15.8633 19.8367 16.2594C19.5561 16.6555 19.6496 17.2041 20.0457 17.4847C20.3826 17.7233 20.751 17.9301 21.1717 18.1168C22.9109 18.8878 24.0884 18.6616 25.1269 18.4618C26.0631 18.2822 26.8022 18.1399 28.0379 18.6878C29.2734 19.2356 29.6645 19.879 30.1595 20.6933C30.7089 21.5973 31.3315 22.6218 33.0707 23.393C34.8098 24.164 35.987 23.9376 37.0259 23.738C37.9619 23.5581 38.7011 23.416 39.9368 23.9638C40.7428 24.3211 41.1893 24.7191 41.5398 25.1787C32.3791 27.8436 23.1386 27.3277 14.0087 23.6307C13.6178 23.4723 13.3651 23.1002 13.3651 22.6823V13.1588C14.238 12.9928 14.9641 12.8904 16.1383 13.4113C17.0384 13.8104 17.4561 14.2536 17.7459 14.6343C17.9189 14.8614 18.1809 14.9808 18.446 14.9808C18.6315 14.9808 18.8186 14.9224 18.9777 14.8013C19.3639 14.5073 19.4387 13.9558 19.1447 13.5695C18.5582 12.7993 17.8294 12.2384 16.851 11.8044C15.3684 11.1471 14.2937 11.2145 13.3653 11.3724V8.62909C13.3653 8.21119 13.6179 7.83888 14.0089 7.68056C18.0295 6.05245 22.1006 5.02787 26.1206 4.6313V5.94417C26.1206 6.94485 26.9347 7.75896 27.9355 7.75896H32.0646C33.0653 7.75896 33.8794 6.94485 33.8794 5.94417V4.6313C37.8997 5.02799 41.9708 6.05269 45.9911 7.68068C46.382 7.839 46.6347 8.21119 46.6347 8.6292V13.3295C46.6346 13.8149 47.0281 14.2083 47.5135 14.2083ZM39.9115 27.4322V29.5882C39.9115 30.5626 39.1186 31.3555 38.1441 31.3555H21.8557C20.8813 31.3555 20.0884 30.5626 20.0884 29.5882V27.4322C23.3965 28.2276 26.7112 28.6288 29.9999 28.6288C33.2887 28.6288 36.6035 28.2276 39.9115 27.4322ZM32.1216 5.94417C32.1216 5.97569 32.096 6.00112 32.0646 6.00112H27.9353C27.9038 6.00112 27.8783 5.97558 27.8783 5.94417V1.8149C27.8783 1.78338 27.9039 1.75783 27.9353 1.75783H32.0645C32.096 1.75783 32.1215 1.7835 32.1215 1.8149L32.1216 5.94417Z" fill="#EF0206"/>
<path d="M19.9775 22.9363H24.5352C25.0207 22.9363 25.4141 22.5429 25.4141 22.0574C25.4141 21.5719 25.0207 21.1785 24.5352 21.1785H19.9775C19.492 21.1785 19.0986 21.5719 19.0986 22.0574C19.0986 22.5429 19.492 22.9363 19.9775 22.9363Z" fill="#EF0206"/>
<path d="M27.8781 9.76367C27.8781 9.27816 27.4847 8.88477 26.9992 8.88477H19.6123C19.1268 8.88477 18.7334 9.27816 18.7334 9.76367C18.7334 10.2492 19.1268 10.6426 19.6123 10.6426H26.9992C27.4846 10.6426 27.8781 10.2492 27.8781 9.76367Z" fill="#EF0206"/>
<g filter="url(#filter0_f_518_3087)">
<path fill-rule="evenodd" clip-rule="evenodd" d="M32.0646 6.00112C32.096 6.00112 32.1216 5.97569 32.1216 5.94417L32.1215 1.8149C32.1215 1.7835 32.096 1.75783 32.0645 1.75783H27.9353C27.9039 1.75783 27.8783 1.78338 27.8783 1.8149V5.94417C27.8783 5.97558 27.9038 6.00112 27.9353 6.00112H32.0646Z" fill="#7A7A7A" fill-opacity="0.5"/>
</g>
<path d="M19.9785 22.9363H24.5362C25.0217 22.9363 25.4151 22.5429 25.4151 22.0574C25.4151 21.5719 25.0217 21.1785 24.5362 21.1785H19.9785C19.493 21.1785 19.0996 21.5719 19.0996 22.0574C19.0996 22.5429 19.493 22.9363 19.9785 22.9363Z" fill="#EF0206"/>
<path d="M27.8771 9.76367C27.8771 9.27816 27.4838 8.88477 26.9982 8.88477H19.6113C19.1258 8.88477 18.7324 9.27816 18.7324 9.76367C18.7324 10.2492 19.1258 10.6426 19.6113 10.6426H26.9982C27.4836 10.6426 27.8771 10.2492 27.8771 9.76367Z" fill="#EF0206"/>
<path d="M39.4831 9H39.482C39.0457 9.00047 38.6673 9.2741 38.5238 9.65871L36.0559 16.1386C35.883 16.5921 36.1108 17.0999 36.5645 17.2727C37.0175 17.4455 37.5258 17.2179 37.6986 16.7641L38.0976 15.7165H40.8495L41.244 16.7618C41.3768 17.1137 41.7112 17.3306 42.0664 17.3306C42.6777 17.3306 43.1061 16.7175 42.8886 16.1412L40.4431 9.66094C40.3058 9.28523 39.9303 9 39.4831 9ZM38.7672 13.9586L39.4801 12.087L40.1864 13.9586H38.7672Z" fill="#EF0206"/>
<path d="M24.5371 52.4194C24.0516 52.4194 23.6582 52.8128 23.6582 53.2983V59.1212C23.6582 59.6067 24.0516 60.0001 24.5371 60.0001C25.0226 60.0001 25.416 59.6067 25.416 59.1212V53.2983C25.416 52.8128 25.0226 52.4194 24.5371 52.4194Z" fill="#EF0206"/>
<path d="M51.0208 22.4495C50.7925 22.8779 50.9546 23.4101 51.383 23.6385L56.5215 26.3774C56.9499 26.6058 57.4821 26.4437 57.7105 26.0152C57.9389 25.5868 57.7767 25.0546 57.3483 24.8262L52.2099 22.0873C51.7814 21.8589 51.2492 22.021 51.0208 22.4495Z" fill="#EF0206"/>
<path d="M8.60319 22.4495C8.83156 22.8779 8.66944 23.4101 8.241 23.6385L3.10256 26.3774C2.67411 26.6058 2.14191 26.4437 1.91354 26.0152C1.68517 25.5868 1.84728 25.0546 2.27573 24.8262L7.41417 22.0873C7.84261 21.8589 8.37482 22.021 8.60319 22.4495Z" fill="#EF0206"/>
<path d="M51.4115 9.34128C51.1831 8.91283 51.3452 8.38063 51.7737 8.15226L56.9121 5.41336C57.3405 5.18499 57.8727 5.3471 58.1011 5.77555C58.3295 6.20399 58.1674 6.7362 57.7389 6.96457L52.6005 9.70347C52.172 9.93184 51.6398 9.76972 51.4115 9.34128Z" fill="#EF0206"/>
<path d="M8.21256 9.34128C8.44093 8.91283 8.27882 8.38063 7.85037 8.15226L2.71193 5.41336C2.28349 5.18499 1.75128 5.3471 1.52291 5.77555C1.29454 6.20399 1.45666 6.7362 1.8851 6.96457L7.02354 9.70347C7.45199 9.93184 7.98419 9.76972 8.21256 9.34128Z" fill="#EF0206"/>
<path d="M51.0232 16.0992C51.0374 16.5846 51.4421 16.9663 51.9274 16.9522L57.7477 16.7827C58.233 16.7685 58.6148 16.3638 58.6006 15.8785C58.5865 15.3932 58.1818 15.0115 57.6965 15.0256L51.8762 15.1951C51.3909 15.2093 51.0091 15.6139 51.0232 16.0992Z" fill="#EF0206"/>
<path d="M8.60078 16.0992C8.58665 16.5846 8.18196 16.9663 7.69666 16.9522L1.87632 16.7827C1.39102 16.7685 1.00924 16.3638 1.02337 15.8785C1.03751 15.3932 1.44219 15.0115 1.9275 15.0256L7.74784 15.1951C8.23314 15.2093 8.61492 15.6139 8.60078 16.0992Z" fill="#EF0206"/>
</g>
<defs>
<filter id="filter0_f_518_3087" x="19.8779" y="-6.24219" width="20.2432" height="20.2434" filterUnits="userSpaceOnUse" color-interpolation-filters="sRGB">
<feFlood flood-opacity="0" result="BackgroundImageFix"/>
<feBlend mode="normal" in="SourceGraphic" in2="BackgroundImageFix" result="shape"/>
<feGaussianBlur stdDeviation="4" result="effect1_foregroundBlur_518_3087"/>
</filter>
<clipPath id="clip0_518_3087">
<rect width="60" height="60" fill="white"/>
</clipPath>
</defs>
</svg>
