<svg width="60" height="60" viewBox="0 0 60 60" fill="none" xmlns="http://www.w3.org/2000/svg">
<g clip-path="url(#clip0_422_1419)">
<path d="M13.749 48.2996C13.749 48.7851 14.1424 49.1785 14.6279 49.1785H15.2139C15.6994 49.1785 16.0928 48.7851 16.0928 48.2996C16.0928 47.9029 15.8302 47.5677 15.4692 47.4583C15.3598 47.0973 15.0246 46.8347 14.6279 46.8347C14.1424 46.8347 13.749 47.2281 13.749 47.7136V48.2996Z" fill="#EF0206"/>
<path d="M13.749 18.8563C13.749 19.3417 14.1424 19.7352 14.6279 19.7352C15.1134 19.7352 15.5068 19.3417 15.5068 18.8563V17.6926C15.5068 17.2072 15.1134 16.8137 14.6279 16.8137C14.1424 16.8137 13.749 17.2072 13.749 17.6926V18.8563Z" fill="#EF0206"/>
<path d="M13.749 28.8634C13.749 29.3488 14.1424 29.7423 14.6279 29.7423C15.1134 29.7423 15.5068 29.3488 15.5068 28.8634V27.6997C15.5068 27.2143 15.1134 26.8208 14.6279 26.8208C14.1424 26.8208 13.749 27.2143 13.749 27.6997V28.8634Z" fill="#EF0206"/>
<path d="M13.749 33.8668C13.749 34.3523 14.1424 34.7457 14.6279 34.7457C15.1134 34.7457 15.5068 34.3523 15.5068 33.8668V32.7031C15.5068 32.2176 15.1134 31.8242 14.6279 31.8242C14.1424 31.8242 13.749 32.2176 13.749 32.7031V33.8668Z" fill="#EF0206"/>
<path d="M13.749 23.86C13.749 24.3454 14.1424 24.7389 14.6279 24.7389C15.1134 24.7389 15.5068 24.3454 15.5068 23.86V22.6963C15.5068 22.2109 15.1134 21.8174 14.6279 21.8174C14.1424 21.8174 13.749 22.2109 13.749 22.6963V23.86Z" fill="#EF0206"/>
<path d="M13.749 38.8702C13.749 39.3557 14.1424 39.7491 14.6279 39.7491C15.1134 39.7491 15.5068 39.3557 15.5068 38.8702V37.7065C15.5068 37.221 15.1134 36.8276 14.6279 36.8276C14.1424 36.8276 13.749 37.221 13.749 37.7065V38.8702Z" fill="#EF0206"/>
<path d="M13.749 43.8736C13.749 44.3591 14.1424 44.7525 14.6279 44.7525C15.1134 44.7525 15.5068 44.3591 15.5068 43.8736V42.71C15.5068 42.2245 15.1134 41.8311 14.6279 41.8311C14.1424 41.8311 13.749 42.2245 13.749 42.71V43.8736Z" fill="#EF0206"/>
<path d="M14.6279 14.7318C15.1134 14.7318 15.5068 14.3383 15.5068 13.8529V12.6892C15.5068 12.2038 15.1134 11.8103 14.6279 11.8103C14.1424 11.8103 13.749 12.2038 13.749 12.6892V13.8529C13.749 14.3384 14.1424 14.7318 14.6279 14.7318Z" fill="#EF0206"/>
<path d="M15.2139 7.38452H14.6279C14.1424 7.38452 13.749 7.77804 13.749 8.26343V8.84937C13.749 9.33476 14.1424 9.72827 14.6279 9.72827C15.0246 9.72827 15.3598 9.46554 15.4692 9.10472C15.8302 8.99526 16.0928 8.66011 16.0928 8.26343C16.0928 7.77804 15.6994 7.38452 15.2139 7.38452Z" fill="#EF0206"/>
<path d="M20.3409 9.14233C20.8264 9.14233 21.2198 8.74882 21.2198 8.26343C21.2198 7.77804 20.8264 7.38452 20.3409 7.38452H19.1484C18.6629 7.38452 18.2695 7.77804 18.2695 8.26343C18.2695 8.74882 18.6629 9.14233 19.1484 9.14233H20.3409Z" fill="#EF0206"/>
<path d="M25.4689 9.14233C25.9544 9.14233 26.3478 8.74882 26.3478 8.26343C26.3478 7.77804 25.9544 7.38452 25.4689 7.38452H24.2764C23.7909 7.38452 23.3975 7.77804 23.3975 8.26343C23.3975 8.74882 23.7909 9.14233 24.2764 9.14233H25.4689Z" fill="#EF0206"/>
<path d="M35.7238 9.14233C36.2093 9.14233 36.6027 8.74882 36.6027 8.26343C36.6027 7.77804 36.2093 7.38452 35.7238 7.38452H34.5312C34.0457 7.38452 33.6523 7.77804 33.6523 8.26343C33.6523 8.74882 34.0457 9.14233 34.5312 9.14233H35.7238Z" fill="#EF0206"/>
<path d="M30.5958 9.14233C31.0813 9.14233 31.4747 8.74882 31.4747 8.26343C31.4747 7.77804 31.0813 7.38452 30.5958 7.38452H29.4033C28.9178 7.38452 28.5244 7.77804 28.5244 8.26343C28.5244 8.74882 28.9178 9.14233 29.4033 9.14233H30.5958Z" fill="#EF0206"/>
<path d="M40.8506 9.14233C41.3361 9.14233 41.7295 8.74882 41.7295 8.26343C41.7295 7.77804 41.3361 7.38452 40.8506 7.38452H39.6582C39.1727 7.38452 38.7793 7.77804 38.7793 8.26343C38.7793 8.74882 39.1727 9.14233 39.6582 9.14233H40.8506Z" fill="#EF0206"/>
<path d="M46.251 8.26343C46.251 7.77804 45.8576 7.38452 45.3721 7.38452H44.7861C44.3006 7.38452 43.9072 7.77804 43.9072 8.26343C43.9072 8.65999 44.1698 8.99526 44.5308 9.10472C44.6402 9.46565 44.9754 9.72827 45.3721 9.72827C45.8576 9.72827 46.251 9.33476 46.251 8.84937V8.26343Z" fill="#EF0206"/>
<path d="M46.251 12.6892C46.251 12.2038 45.8576 11.8103 45.3721 11.8103C44.8866 11.8103 44.4932 12.2038 44.4932 12.6892V13.8528C44.4932 14.3382 44.8866 14.7317 45.3721 14.7317C45.8576 14.7317 46.251 14.3382 46.251 13.8528V12.6892Z" fill="#EF0206"/>
<path d="M46.251 17.6926C46.251 17.2072 45.8576 16.8137 45.3721 16.8137C44.8866 16.8137 44.4932 17.2072 44.4932 17.6926V18.8562C44.4932 19.3416 44.8866 19.7351 45.3721 19.7351C45.8576 19.7351 46.251 19.3416 46.251 18.8562V17.6926Z" fill="#EF0206"/>
<path d="M46.251 22.6963C46.251 22.2109 45.8576 21.8174 45.3721 21.8174C44.8866 21.8174 44.4932 22.2109 44.4932 22.6963V23.8598C44.4932 24.3452 44.8866 24.7387 45.3721 24.7387C45.8576 24.7387 46.251 24.3452 46.251 23.8598V22.6963Z" fill="#EF0206"/>
<path d="M46.251 37.7065C46.251 37.221 45.8576 36.8276 45.3721 36.8276C44.8866 36.8276 44.4932 37.221 44.4932 37.7065V38.8702C44.4932 39.3557 44.8866 39.7491 45.3721 39.7491C45.8576 39.7491 46.251 39.3557 46.251 38.8702V37.7065Z" fill="#EF0206"/>
<path d="M46.251 42.71C46.251 42.2245 45.8576 41.8311 45.3721 41.8311C44.8866 41.8311 44.4932 42.2245 44.4932 42.71V43.8736C44.4932 44.3591 44.8866 44.7525 45.3721 44.7525C45.8576 44.7525 46.251 44.3591 46.251 43.8736V42.71Z" fill="#EF0206"/>
<path d="M46.251 27.6997C46.251 27.2143 45.8576 26.8208 45.3721 26.8208C44.8866 26.8208 44.4932 27.2143 44.4932 27.6997V28.8634C44.4932 29.3488 44.8866 29.7423 45.3721 29.7423C45.8576 29.7423 46.251 29.3488 46.251 28.8634V27.6997Z" fill="#EF0206"/>
<path d="M46.251 32.7031C46.251 32.2176 45.8576 31.8242 45.3721 31.8242C44.8866 31.8242 44.4932 32.2176 44.4932 32.7031V33.8668C44.4932 34.3523 44.8866 34.7457 45.3721 34.7457C45.8576 34.7457 46.251 34.3523 46.251 33.8668V32.7031Z" fill="#EF0206"/>
<path d="M45.3721 46.8347C44.9754 46.8347 44.6402 47.0973 44.5308 47.4583C44.1698 47.5677 43.9072 47.9029 43.9072 48.2996C43.9072 48.7851 44.3006 49.1785 44.7861 49.1785H45.3721C45.8576 49.1785 46.251 48.7851 46.251 48.2996V47.7136C46.251 47.2281 45.8575 46.8347 45.3721 46.8347Z" fill="#EF0206"/>
<path d="M39.6582 47.4207C39.1727 47.4207 38.7793 47.8141 38.7793 48.2996C38.7793 48.7851 39.1727 49.1785 39.6582 49.1785H40.8507C41.3362 49.1785 41.7296 48.7851 41.7296 48.2996C41.7296 47.8141 41.3362 47.4207 40.8507 47.4207H39.6582Z" fill="#EF0206"/>
<path d="M34.5312 47.4207C34.0457 47.4207 33.6523 47.8141 33.6523 48.2996C33.6523 48.7851 34.0457 49.1785 34.5312 49.1785H35.7238C36.2093 49.1785 36.6027 48.7851 36.6027 48.2996C36.6027 47.8141 36.2093 47.4207 35.7238 47.4207H34.5312Z" fill="#EF0206"/>
<path d="M29.4033 47.4207C28.9178 47.4207 28.5244 47.8141 28.5244 48.2996C28.5244 48.7851 28.9178 49.1785 29.4033 49.1785H30.5958C31.0813 49.1785 31.4747 48.7851 31.4747 48.2996C31.4747 47.8141 31.0813 47.4207 30.5958 47.4207H29.4033Z" fill="#EF0206"/>
<path d="M24.2764 47.4207C23.7909 47.4207 23.3975 47.8141 23.3975 48.2996C23.3975 48.7851 23.7909 49.1785 24.2764 49.1785H25.4689C25.9544 49.1785 26.3478 48.7851 26.3478 48.2996C26.3478 47.8141 25.9544 47.4207 25.4689 47.4207H24.2764Z" fill="#EF0206"/>
<path d="M19.1484 47.4207C18.6629 47.4207 18.2695 47.8141 18.2695 48.2996C18.2695 48.7851 18.6629 49.1785 19.1484 49.1785H20.3409C20.8264 49.1785 21.2198 48.7851 21.2198 48.2996C21.2198 47.8141 20.8264 47.4207 20.3409 47.4207H19.1484Z" fill="#EF0206"/>
<path d="M42.7352 44.1309V12.432C42.7352 11.5873 42.048 10.9001 41.2034 10.9001H18.7965C17.9518 10.9001 17.2646 11.5873 17.2646 12.432V44.1309C17.2646 44.9756 17.9518 45.6628 18.7965 45.6628H41.2032C42.0479 45.6629 42.7352 44.9757 42.7352 44.1309ZM19.0225 43.9051V31.3743C19.1026 31.4253 19.1861 31.4828 19.2734 31.5481C20.0324 32.1164 20.1976 32.5911 20.4264 33.2484C20.6807 33.9788 20.9971 34.888 22.1863 35.7781C23.3752 36.6682 24.3364 36.7156 25.1088 36.7537C25.8039 36.7879 26.306 36.8128 27.0647 37.3808C27.8236 37.9489 27.9888 38.4236 28.2175 39.0808C28.4718 39.8112 28.788 40.7204 29.9771 41.6104C31.166 42.5005 32.1273 42.5479 32.8997 42.586C33.5947 42.6202 34.0968 42.6451 34.8555 43.2131C35.1766 43.4535 35.3914 43.6773 35.5499 43.9051H19.0225ZM40.9774 43.9051H37.513C37.2642 43.2632 36.8741 42.5284 35.9089 41.8059C34.7201 40.9158 33.7588 40.8684 32.9864 40.8303C32.2914 40.7961 31.7893 40.7712 31.0305 40.2032C30.2718 39.6351 30.1064 39.1604 29.8778 38.5031C29.6236 37.7726 29.3072 36.8636 28.1182 35.9736C26.9292 35.0835 25.9679 35.0361 25.1955 34.998C24.5005 34.9638 23.9985 34.9389 23.2398 34.3709C22.4807 33.8027 22.3154 33.3278 22.0867 32.6705C21.8324 31.9401 21.516 31.0311 20.3269 30.1408C19.8961 29.8184 19.4701 29.5851 19.0226 29.4292V12.6581H40.9775V43.9051H40.9774Z" fill="#EF0206"/>
<path d="M31.2562 20.3802C31.0948 19.9877 30.7166 19.7344 30.2923 19.7344H30.2913C29.8666 19.7347 29.4883 19.989 29.3276 20.3821C29.3249 20.3886 29.3222 20.3953 29.3198 20.4019L26.6154 27.5026C26.4426 27.9563 26.6704 28.464 27.124 28.6368C27.2269 28.676 27.3326 28.6945 27.4367 28.6945C27.7907 28.6945 28.1246 28.4789 28.2582 28.1282L28.7161 26.9258H31.8481L32.3009 28.1257C32.4722 28.5799 32.9794 28.8091 33.4335 28.6377C33.8876 28.4662 34.1168 27.9592 33.9454 27.5051L31.2656 20.404C31.2626 20.3961 31.2593 20.388 31.2562 20.3802ZM29.3855 25.1681L30.2891 22.7953L31.1846 25.1681H29.3855Z" fill="#EF0206"/>
<path d="M29.0674 32.2034C28.5819 32.2034 28.1885 32.5968 28.1885 33.0823C28.1885 33.5678 28.5819 33.9612 29.0674 33.9612H38.1812C38.6667 33.9612 39.0601 33.5678 39.0601 33.0823C39.0601 32.5968 38.6667 32.2034 38.1812 32.2034H29.0674Z" fill="#EF0206"/>
<path d="M25.2052 39.4507H21.6719C21.1864 39.4507 20.793 39.8441 20.793 40.3296C20.793 40.8151 21.1864 41.2085 21.6719 41.2085H25.2052C25.6907 41.2085 26.0841 40.8151 26.0841 40.3296C26.0841 39.8441 25.6906 39.4507 25.2052 39.4507Z" fill="#EF0206"/>
<path d="M21.4082 17.2024H29.467C29.9525 17.2024 30.3459 16.8089 30.3459 16.3235C30.3459 15.8381 29.9525 15.4446 29.467 15.4446H21.4082C20.9227 15.4446 20.5293 15.8381 20.5293 16.3235C20.5293 16.8089 20.9228 17.2024 21.4082 17.2024Z" fill="#EF0206"/>
<path d="M48.8876 28.4211C49.3731 28.4211 49.7665 28.0276 49.7665 27.5422V6.08484C49.7665 4.86305 48.7725 3.86895 47.5506 3.86895H43.8834V1.67297C43.8833 0.750469 43.1329 0 42.2104 0H25.1379C24.6524 0 24.259 0.393516 24.259 0.878906C24.259 1.3643 24.6524 1.75781 25.1379 1.75781H42.1255V3.82418H17.8741V1.75781H21.7395C22.225 1.75781 22.6184 1.3643 22.6184 0.878906C22.6184 0.393516 22.225 0 21.7395 0H17.7894C16.8669 0 16.1163 0.750469 16.1163 1.67297V3.86895H12.4492C11.2274 3.86895 10.2334 4.86293 10.2334 6.08484V50.4783C10.2334 51.7001 11.2274 52.6941 12.4492 52.6941H17.1743V54.2013H15.7172C14.7934 54.2013 14.0419 54.9529 14.0419 55.8768V58.3247C14.0419 59.2486 14.7934 60.0001 15.7172 60.0001H24.5821C25.0676 60.0001 25.461 59.6067 25.461 59.1212C25.461 58.6357 25.0676 58.2423 24.5821 58.2423H15.7997V55.9593H44.2V58.2422H27.9806C27.4951 58.2422 27.1017 58.6356 27.1017 59.1211C27.1017 59.6066 27.4951 60 27.9806 60H44.2823C45.2063 60 45.9578 59.2485 45.9578 58.3246V55.8766C45.9578 54.9527 45.2063 54.2012 44.2823 54.2012H42.8254V52.6939H47.5504C48.7723 52.6939 49.7663 51.7 49.7663 50.4782V30.9407C49.7663 30.4552 49.3729 30.0618 48.8873 30.0618C48.4018 30.0618 48.0084 30.4552 48.0084 30.9407V50.4783C48.0084 50.7308 47.8029 50.9362 47.5504 50.9362H12.4492C12.1966 50.9362 11.9912 50.7308 11.9912 50.4783V6.08484C11.9912 5.8323 12.1966 5.62676 12.4492 5.62676H47.5505C47.803 5.62676 48.0086 5.83219 48.0086 6.08484V27.5422C48.0087 28.0276 48.4021 28.4211 48.8876 28.4211ZM41.0677 52.6941V54.2013H18.9321V52.6941H41.0677Z" fill="#EF0206"/>
</g>
<defs>
<clipPath id="clip0_422_1419">
<rect width="60" height="60" fill="white"/>
</clipPath>
</defs>
</svg>
