<svg width="60" height="60" viewBox="0 0 60 60" fill="none" xmlns="http://www.w3.org/2000/svg">
<path d="M55.3031 14.2352V11.2121C55.3031 10.2095 54.4875 9.39387 53.4848 9.39387H38.3941V7.45465C38.3941 7.42125 38.4212 7.39418 38.4546 7.39418H45.0303C46.033 7.39418 46.8486 6.57855 46.8486 5.5759V3.69703C46.8486 2.69438 46.033 1.87875 45.0303 1.87875H30.879V0.878906C30.879 0.393516 30.4855 0 30.0001 0H8.39414C6.35555 0 4.69711 1.65844 4.69711 3.69703V14.2352C3.60633 14.6031 2.81836 15.6352 2.81836 16.8485V24.3636C2.81836 25.5769 3.60633 26.6089 4.69711 26.9769V57.2423C4.69711 58.245 5.51273 59.0606 6.51539 59.0606H7.51828C7.51687 59.0807 7.51523 59.1007 7.51523 59.1211C7.51523 59.6065 7.90875 60 8.39414 60H10.2729C10.7583 60 11.1518 59.6065 11.1518 59.1211C11.1518 59.1007 11.1502 59.0807 11.1488 59.0606H48.8515C48.8501 59.0807 48.8484 59.1007 48.8484 59.1211C48.8484 59.6065 49.242 60 49.7273 60H51.6061C52.0915 60 52.485 59.6065 52.485 59.1211C52.485 59.1007 52.4834 59.0807 52.482 59.0606H53.4848C54.4875 59.0606 55.3031 58.245 55.3031 57.2423V26.9769C56.3939 26.6091 57.1819 25.577 57.1819 24.3636V16.8485C57.182 15.6353 56.394 14.6032 55.3031 14.2352ZM45.0303 3.63656C45.0637 3.63656 45.0908 3.66363 45.0908 3.69703V5.57578C45.0908 5.60918 45.0637 5.63625 45.0303 5.63625H38.4546C37.452 5.63625 36.6363 6.45187 36.6363 7.45453V9.39375H30.879V3.63656H45.0303ZM36.6363 21.5455C36.6363 21.5789 36.6093 21.606 36.5759 21.606H23.4244C23.391 21.606 23.3639 21.5789 23.3639 21.5455V14.0304C23.3639 13.997 23.391 13.9699 23.4244 13.9699H36.5759C36.6093 13.9699 36.6363 13.997 36.6363 14.0304V21.5455ZM8.39414 1.75781H29.1212V12.212H23.4244C22.4217 12.212 21.6061 13.0276 21.6061 14.0303V14.0907H6.45492V3.69703C6.45492 2.6277 7.3248 1.75781 8.39414 1.75781ZM10.3334 27.1214V34.7575H6.45492V27.1214H10.3334ZM14.091 27.1214V34.7575H12.0913V27.1214H14.091ZM44.1514 27.1214V29.1211H15.8488V27.1214H44.1514ZM47.9091 27.1214V34.7575H45.9094V27.1214H47.9091ZM53.5453 27.1214V34.7575H49.6668V27.1214H53.5453ZM15.8488 34.7575V30.8789H19.7273V31.8788C19.7273 32.3641 20.1209 32.7577 20.6063 32.7577C21.0916 32.7577 21.4852 32.3641 21.4852 31.8788V30.8789H29.1212V31.8788C29.1212 32.3641 29.5147 32.7577 30.0001 32.7577C30.4855 32.7577 30.879 32.3641 30.879 31.8788V30.8789H38.5151V31.8788C38.5151 32.3641 38.9086 32.7577 39.394 32.7577C39.8794 32.7577 40.2729 32.3641 40.2729 31.8788V30.8789H44.1514V34.7575H15.8488ZM41.3332 57.3028H18.667V56.303C18.667 55.7516 19.1156 55.3031 19.6669 55.3031H40.3334C40.8847 55.3031 41.3332 55.7517 41.3332 56.303V57.3028ZM53.4848 57.3028H43.091V56.303C43.091 54.7823 41.8539 53.5453 40.3334 53.5453H19.6669C18.1463 53.5453 16.9092 54.7825 16.9092 56.303V57.3028H6.51539C6.48199 57.3028 6.45492 57.2757 6.45492 57.2423V51.5455H8.39449C8.87988 51.5455 9.2734 51.152 9.2734 50.6666C9.2734 50.1812 8.87988 49.7877 8.39449 49.7877H6.45492V36.5153H53.5454V49.7877H12.1514C11.666 49.7877 11.2725 50.1812 11.2725 50.6666C11.2725 51.152 11.666 51.5455 12.1514 51.5455H53.5453V57.2423C53.5453 57.2756 53.5182 57.3028 53.4848 57.3028ZM55.4242 24.3636C55.4242 24.9145 54.9763 25.3628 54.4254 25.3635C54.425 25.3635 54.4247 25.3635 54.4242 25.3635C54.4234 25.3635 54.4227 25.3636 54.422 25.3636H5.57824C5.57754 25.3636 5.57672 25.3635 5.57602 25.3635C5.57566 25.3635 5.57531 25.3635 5.57484 25.3635C5.02406 25.3629 4.57605 24.9146 4.57605 24.3636V16.8485C4.57605 16.2977 5.02371 15.8496 5.57426 15.8487C5.57484 15.8487 5.57543 15.8488 5.5759 15.8488C5.57707 15.8488 5.57813 15.8487 5.5793 15.8487H21.606V21.5455C21.606 22.5482 22.4216 23.3638 23.4243 23.3638H36.5757C37.5784 23.3638 38.394 22.5482 38.394 21.5455V15.8487H48.7878C49.2732 15.8487 49.6668 15.4552 49.6668 14.9698C49.6668 14.4844 49.2732 14.0909 48.7878 14.0909H38.394V14.0304C38.394 13.0277 37.5784 12.2121 36.5757 12.2121H30.879V11.1518H53.4848C53.5182 11.1518 53.5453 11.1789 53.5453 11.2123V14.0909H52.5455C52.0601 14.0909 51.6666 14.4844 51.6666 14.9698C51.6666 15.4552 52.0601 15.8487 52.5455 15.8487H54.4242C54.9756 15.8487 55.4241 16.2973 55.4241 16.8486V24.3636H55.4242Z" fill="#EF0206"/>
<path d="M42.2118 17.8484H41.2725C40.7871 17.8484 40.3936 18.2419 40.3936 18.7273C40.3936 19.2127 40.7871 19.6062 41.2725 19.6062H42.2118C42.6972 19.6062 43.0907 19.2127 43.0907 18.7273C43.0907 18.2419 42.6973 17.8484 42.2118 17.8484Z" fill="#EF0206"/>
<path d="M18.7275 17.8484H12.7881C12.3027 17.8484 11.9092 18.2419 11.9092 18.7273C11.9092 19.2127 12.3027 19.6062 12.7881 19.6062H18.7275C19.2129 19.6062 19.6064 19.2127 19.6064 18.7273C19.6064 18.2419 19.2129 17.8484 18.7275 17.8484Z" fill="#EF0206"/>
<path d="M18.7275 21.606H12.7881C12.3027 21.606 11.9092 21.9995 11.9092 22.4849C11.9092 22.9703 12.3027 23.3638 12.7881 23.3638H18.7275C19.2129 23.3638 19.6064 22.9703 19.6064 22.4849C19.6064 21.9995 19.2129 21.606 18.7275 21.606Z" fill="#EF0206"/>
<path d="M46.9091 17.8484H45.9697C45.4843 17.8484 45.0908 18.2419 45.0908 18.7273C45.0908 19.2127 45.4843 19.6062 45.9697 19.6062H46.9091C47.3945 19.6062 47.788 19.2127 47.788 18.7273C47.788 18.2419 47.3945 17.8484 46.9091 17.8484Z" fill="#EF0206"/>
<path d="M51.6064 17.8484H50.667C50.1816 17.8484 49.7881 18.2419 49.7881 18.7273C49.7881 19.2127 50.1816 19.6062 50.667 19.6062H51.6064C52.0918 19.6062 52.4853 19.2127 52.4853 18.7273C52.4853 18.2419 52.0918 17.8484 51.6064 17.8484Z" fill="#EF0206"/>
<path d="M42.2118 21.606H41.2725C40.7871 21.606 40.3936 21.9995 40.3936 22.4849C40.3936 22.9703 40.7871 23.3638 41.2725 23.3638H42.2118C42.6972 23.3638 43.0907 22.9703 43.0907 22.4849C43.0907 21.9995 42.6973 21.606 42.2118 21.606Z" fill="#EF0206"/>
<path d="M46.9091 21.606H45.9697C45.4843 21.606 45.0908 21.9995 45.0908 22.4849C45.0908 22.9703 45.4843 23.3638 45.9697 23.3638H46.9091C47.3945 23.3638 47.788 22.9703 47.788 22.4849C47.788 21.9995 47.3945 21.606 46.9091 21.606Z" fill="#EF0206"/>
<path d="M51.6064 21.606H50.667C50.1816 21.606 49.7881 21.9995 49.7881 22.4849C49.7881 22.9703 50.1816 23.3638 50.667 23.3638H51.6064C52.0918 23.3638 52.4853 22.9703 52.4853 22.4849C52.4853 21.9995 52.0918 21.606 51.6064 21.606Z" fill="#EF0206"/>
</svg>
