<svg width="60" height="60" viewBox="0 0 60 60" fill="none" xmlns="http://www.w3.org/2000/svg">
<g clip-path="url(#clip0_422_1498)">
<path d="M35.2372 36.0623C35.3402 36.1016 35.4459 36.1201 35.5499 36.1201C35.904 36.1201 36.2379 35.9045 36.3714 35.5537L37.4345 32.7624H44.4707L45.5231 35.5514C45.6944 36.0056 46.2016 36.2347 46.6557 36.0633C47.1098 35.8919 47.3391 35.3849 47.1676 34.9306L42.08 21.4493C42.077 21.4413 42.0738 21.4332 42.0705 21.4252C41.8864 20.9777 41.4551 20.6887 40.9712 20.6887H40.97C40.4857 20.6892 40.0543 20.9792 39.8708 21.4274C39.8681 21.4341 39.8654 21.4407 39.863 21.4475L34.7286 34.9283C34.556 35.3818 34.7836 35.8896 35.2372 36.0623ZM40.9689 23.4829L43.8075 31.0047H38.1041L40.9689 23.4829Z" fill="#C10000"/>
<path d="M34.5653 36.3736C34.6684 36.4129 34.7741 36.4314 34.878 36.4314C35.2321 36.4314 35.566 36.2157 35.6995 35.865L36.7626 33.0737H43.7988L44.8512 35.8627C45.0226 36.3169 45.5298 36.546 45.9839 36.3745C46.438 36.2032 46.6672 35.6961 46.4957 35.2419L41.4082 21.7605C41.4051 21.7526 41.4019 21.7445 41.3987 21.7365C41.2146 21.289 40.7832 21 40.2993 21H40.2982C39.8138 21.0005 39.3825 21.2905 39.1989 21.7386C39.1962 21.7454 39.1935 21.752 39.1911 21.7588L34.0567 35.2396C33.8841 35.6931 34.1117 36.2009 34.5653 36.3736ZM40.297 23.7942L43.1356 31.316H37.4322L40.297 23.7942Z" fill="#EF0206"/>
<path d="M35.6455 40.8657C35.16 40.8657 34.7666 41.2591 34.7666 41.7446C34.7666 42.2301 35.16 42.6235 35.6455 42.6235H45.7944C46.2799 42.6235 46.6733 42.2301 46.6733 41.7446C46.6733 41.2591 46.2799 40.8657 45.7944 40.8657H35.6455Z" fill="#EF0206"/>
<path d="M22.2567 45.9827H14.3604C13.875 45.9827 13.4814 46.3761 13.4814 46.8616C13.4814 47.3471 13.875 47.7405 14.3604 47.7405H22.2567C22.7421 47.7405 23.1356 47.3471 23.1356 46.8616C23.1356 46.3761 22.7421 45.9827 22.2567 45.9827Z" fill="#EF0206"/>
<path d="M22.2567 49.845H14.3604C13.875 49.845 13.4814 50.2384 13.4814 50.7239C13.4814 51.2094 13.875 51.6028 14.3604 51.6028H22.2567C22.7421 51.6028 23.1356 51.2094 23.1356 50.7239C23.1356 50.2384 22.7421 49.845 22.2567 49.845Z" fill="#EF0206"/>
<path d="M22.2567 53.7073H14.3604C13.875 53.7073 13.4814 54.1007 13.4814 54.5862C13.4814 55.0717 13.875 55.4651 14.3604 55.4651H22.2567C22.7421 55.4651 23.1356 55.0717 23.1356 54.5862C23.1356 54.1007 22.7421 53.7073 22.2567 53.7073Z" fill="#EF0206"/>
<path d="M14.3535 20.3604H21.7259C22.2113 20.3604 22.6048 19.967 22.6048 19.4814C22.6048 18.9959 22.2113 18.6025 21.7259 18.6025H14.3535C13.8681 18.6025 13.4746 18.9959 13.4746 19.4814C13.4746 19.967 13.8681 20.3604 14.3535 20.3604Z" fill="#EF0206"/>
<path d="M14.3535 23.7214H21.7259C22.2113 23.7214 22.6048 23.328 22.6048 22.8425C22.6048 22.357 22.2113 21.9636 21.7259 21.9636H14.3535C13.8681 21.9636 13.4746 22.357 13.4746 22.8425C13.4746 23.328 13.8681 23.7214 14.3535 23.7214Z" fill="#EF0206"/>
<path d="M56.8867 12.0875L47.9155 8.2507V0.878906C47.9155 0.393398 47.5221 0 47.0366 0H41.8656C41.3801 0 40.9867 0.393398 40.9867 0.878906V5.28738L31.4749 1.21934C30.5376 0.818789 29.4629 0.818672 28.5258 1.21945L11.0289 8.7027C10.5825 8.89359 10.3755 9.41004 10.5664 9.85641C10.7573 10.3028 11.274 10.5097 11.7201 10.3188L29.2169 2.8357C29.715 2.62289 30.286 2.62301 30.7839 2.83559L56.1955 13.7038C57.2054 14.136 57.6758 15.3091 57.2439 16.3189C56.9294 17.0537 56.21 17.5284 55.4107 17.5284C55.142 17.5284 54.8789 17.4742 54.6286 17.3672L30.346 6.98168C30.1251 6.88711 29.8755 6.88711 29.6548 6.98168L5.3721 17.3672C4.36241 17.7994 3.18901 17.3291 2.75706 16.3191C2.32511 15.3091 2.79538 14.1359 3.8053 13.7038L8.58772 11.6585C9.03409 11.4676 9.24104 10.9512 9.05026 10.5048C8.85936 10.0584 8.34292 9.85172 7.89655 10.0424L3.11413 12.0877C1.213 12.9009 0.32788 15.1092 1.14093 17.0104C1.95397 18.9114 4.16225 19.7967 6.06339 18.9834L6.88358 18.6327V58.2422H3.33327C2.84788 58.2422 2.45436 58.6356 2.45436 59.1211C2.45436 59.6066 2.84788 60 3.33327 60H56.6675C57.153 60 57.5464 59.6066 57.5464 59.1211C57.5464 58.6356 57.153 58.2422 56.6675 58.2422H53.1172V29.0327C53.1172 28.5472 52.7238 28.1538 52.2383 28.1538C51.7528 28.1538 51.3594 28.5472 51.3594 29.0327V50.4209C50.7782 49.9145 50.04 49.4387 49.0442 49.0268C46.6083 48.0191 44.9732 48.3762 43.5302 48.6915C42.1672 48.9891 40.9904 49.2462 39.0635 48.4492C37.1364 47.6521 36.485 46.6386 35.7308 45.4652C34.9324 44.2229 34.0274 42.8152 31.5913 41.8073C30.9725 41.5513 30.3885 41.3745 29.8059 41.2662C29.3292 41.1777 28.8699 41.4926 28.7812 41.9698C28.6926 42.4471 29.0076 42.9057 29.4848 42.9945C29.9457 43.08 30.415 43.2231 30.9193 43.4317C32.8465 44.2288 33.4978 45.2422 34.252 46.4156C35.0504 47.6579 35.9555 49.0657 38.3914 50.0735C40.8276 51.0811 42.4628 50.724 43.9053 50.4088C45.268 50.1109 46.4449 49.8538 48.3722 50.6511C50.005 51.3265 50.7249 52.1627 51.3593 53.1055V58.2422H8.6414V36.0466C8.76198 36.0211 8.88093 35.9952 8.99858 35.9694C10.3614 35.6718 11.5383 35.4145 13.4658 36.2119C15.393 37.0091 16.0445 38.0224 16.7988 39.1959C17.5973 40.4382 18.5024 41.8461 20.9386 42.8539C22.1494 43.3547 23.1599 43.5189 24.0463 43.5189C24.9431 43.5189 25.713 43.3508 26.4344 43.1933C26.9087 43.0897 27.2092 42.6214 27.1057 42.1472C27.0022 41.673 26.5331 41.3721 26.0596 41.4759C24.7062 41.7714 23.5372 42.0265 21.6105 41.2295C19.6833 40.4323 19.0318 39.4189 18.2775 38.2454C17.479 37.0031 16.5739 35.5952 14.1377 34.5874C11.7116 33.5838 10.0798 33.9339 8.64151 34.248V17.8808L30.0003 8.7457L51.3593 17.8808V25.6343C51.3593 26.1198 51.7527 26.5132 52.2382 26.5132C52.7237 26.5132 53.1171 26.1198 53.1171 25.6343V18.6326L53.9374 18.9834C54.4073 19.1844 54.903 19.2863 55.4106 19.2863C56.9144 19.2863 58.2683 18.3929 58.8599 17.0102C59.6729 15.1092 58.7878 12.9008 56.8867 12.0875ZM42.7445 1.75781H46.1578V7.49895L42.7445 6.03914V1.75781Z" fill="#EF0206"/>
</g>
<defs>
<clipPath id="clip0_422_1498">
<rect width="60" height="60" fill="white"/>
</clipPath>
</defs>
</svg>
