<svg width="32" height="32" viewBox="0 0 32 32" fill="none" xmlns="http://www.w3.org/2000/svg">
<path d="M16.0052 13.3332C18.9507 13.3332 21.3385 10.9454 21.3385 7.99984C21.3385 5.05432 18.9507 2.6665 16.0052 2.6665C13.0597 2.6665 10.6719 5.05432 10.6719 7.99984C10.6719 10.9454 13.0597 13.3332 16.0052 13.3332Z" stroke="#3E3E3E" stroke-width="1.5"/>
<path d="M26.6659 23.9999C26.6693 23.781 26.6693 23.5586 26.6693 23.3333C26.6693 20.0195 21.8937 17.3333 16.0026 17.3333C10.1116 17.3333 5.33594 20.0195 5.33594 23.3333C5.33594 26.647 5.33594 29.3333 16.0026 29.3333C18.9773 29.3333 21.1223 29.1243 22.6693 28.7511" stroke="#3E3E3E" stroke-width="1.5" stroke-linecap="round"/>
</svg>
